<svg xmlns="http://www.w3.org/2000/svg" xmlns:xlink="http://www.w3.org/1999/xlink" width="1200" zoomAndPan="magnify" viewBox="0 0 900 899.99999" height="1200" preserveAspectRatio="xMidYMid meet" version="1.2"><defs><clipPath id="3462ff0fdf"><path d="M 17.382812 17.382812 L 882.617188 17.382812 L 882.617188 882.617188 L 17.382812 882.617188 Z M 17.382812 17.382812 "/></clipPath><clipPath id="110c3ece00"><path d="M 450 17.382812 C 211.074219 17.382812 17.382812 211.074219 17.382812 450 C 17.382812 688.925781 211.074219 882.617188 450 882.617188 C 688.925781 882.617188 882.617188 688.925781 882.617188 450 C 882.617188 211.074219 688.925781 17.382812 450 17.382812 Z M 450 17.382812 "/></clipPath><clipPath id="690c6f1b11"><path d="M 17.382812 17.382812 L 882.882812 17.382812 L 882.882812 882.882812 L 17.382812 882.882812 Z M 17.382812 17.382812 "/></clipPath></defs><g id="2d281e4240"><g clip-rule="nonzero" clip-path="url(#3462ff0fdf)"><g clip-rule="nonzero" clip-path="url(#110c3ece00)"><path style=" stroke:none;fill-rule:nonzero;fill:#ca1c1c;fill-opacity:1;" d="M 17.382812 17.382812 L 882.617188 17.382812 L 882.617188 882.617188 L 17.382812 882.617188 Z M 17.382812 17.382812 "/></g></g><g clip-rule="nonzero" clip-path="url(#690c6f1b11)"><path style=" stroke:none;fill-rule:nonzero;fill:#f00f0b;fill-opacity:1;" d="M 450 17.382812 C 211.308594 17.382812 17.382812 211.308594 17.382812 450 C 17.382812 688.691406 211.308594 882.613281 450 882.613281 C 688.691406 882.613281 882.613281 688.691406 882.613281 450 C 882.613281 211.308594 688.691406 17.382812 450 17.382812 Z M 450 36.195312 C 678.777344 36.195312 863.804688 221.222656 863.804688 450 C 863.804688 678.777344 678.777344 863.804688 450 863.804688 C 221.222656 863.804688 36.195312 678.777344 36.195312 450 C 36.195312 221.222656 221.222656 36.195312 450 36.195312 Z M 450 36.195312 "/></g><path style=" stroke:none;fill-rule:nonzero;fill:#000000;fill-opacity:1;" d="M 695.734375 371.003906 C 697.441406 369.296875 699.089844 367.53125 700.679688 365.710938 C 702.269531 363.890625 703.796875 362.019531 705.261719 360.097656 C 706.726562 358.175781 708.125 356.207031 709.457031 354.191406 C 710.789062 352.175781 712.054688 350.117188 713.246094 348.015625 C 714.441406 345.914062 715.566406 343.777344 716.617188 341.601562 C 717.667969 339.425781 718.644531 337.214844 719.550781 334.972656 C 720.453125 332.734375 721.28125 330.464844 722.03125 328.164062 C 722.785156 325.867188 723.457031 323.550781 724.054688 321.207031 C 724.652344 318.863281 725.167969 316.503906 725.605469 314.128906 C 726.042969 311.75 726.402344 309.359375 726.679688 306.960938 C 726.957031 304.558594 727.15625 302.152344 727.273438 299.738281 C 727.390625 297.320312 727.425781 294.90625 727.382812 292.488281 C 727.335938 290.074219 727.210938 287.660156 727.003906 285.25 C 726.800781 282.84375 726.511719 280.445312 726.144531 278.054688 C 725.777344 275.667969 725.332031 273.292969 724.804688 270.933594 C 724.28125 268.574219 723.675781 266.234375 722.992188 263.917969 C 722.851562 263.4375 722.679688 262.96875 722.480469 262.511719 C 722.277344 262.054688 722.050781 261.613281 721.789062 261.183594 C 721.53125 260.757812 721.246094 260.347656 720.9375 259.957031 C 720.625 259.566406 720.289062 259.199219 719.929688 258.851562 C 719.570312 258.503906 719.191406 258.183594 718.789062 257.882812 C 718.390625 257.585938 717.96875 257.316406 717.535156 257.074219 C 717.097656 256.828125 716.648438 256.613281 716.183594 256.429688 C 715.722656 256.246094 715.25 256.089844 714.765625 255.964844 C 714.28125 255.84375 713.792969 255.75 713.296875 255.691406 C 712.800781 255.628906 712.304688 255.601562 711.804688 255.605469 C 711.304688 255.609375 710.808594 255.648438 710.3125 255.714844 C 709.820312 255.785156 709.332031 255.882812 708.847656 256.015625 C 708.367188 256.148438 707.898438 256.308594 707.4375 256.503906 C 706.976562 256.695312 706.53125 256.917969 706.097656 257.167969 C 705.667969 257.417969 705.253906 257.695312 704.855469 258 C 704.460938 258.304688 704.085938 258.632812 703.734375 258.988281 L 656.3125 306.421875 L 614.460938 299.480469 L 607.527344 257.597656 L 654.925781 210.140625 C 655.28125 209.785156 655.617188 209.410156 655.925781 209.011719 C 656.234375 208.613281 656.515625 208.195312 656.769531 207.761719 C 657.023438 207.324219 657.25 206.875 657.445312 206.410156 C 657.640625 205.945312 657.804688 205.472656 657.941406 204.984375 C 658.074219 204.5 658.175781 204.003906 658.246094 203.507812 C 658.3125 203.007812 658.351562 202.503906 658.355469 202 C 658.359375 201.496094 658.328125 200.992188 658.265625 200.492188 C 658.207031 199.992188 658.109375 199.5 657.984375 199.011719 C 657.859375 198.523438 657.699219 198.046875 657.511719 197.578125 C 657.324219 197.109375 657.105469 196.65625 656.855469 196.21875 C 656.609375 195.777344 656.332031 195.359375 656.03125 194.957031 C 655.726562 194.550781 655.398438 194.171875 655.046875 193.8125 C 654.691406 193.453125 654.316406 193.117188 653.921875 192.804688 C 653.523438 192.496094 653.109375 192.210938 652.675781 191.953125 C 652.242188 191.699219 651.792969 191.46875 651.328125 191.273438 C 650.867188 191.074219 650.390625 190.90625 649.90625 190.773438 C 647.503906 190.0625 645.078125 189.4375 642.628906 188.894531 C 640.183594 188.355469 637.71875 187.898438 635.238281 187.53125 C 632.757812 187.160156 630.269531 186.878906 627.769531 186.679688 C 625.273438 186.484375 622.769531 186.375 620.261719 186.355469 C 617.757812 186.332031 615.253906 186.398438 612.75 186.550781 C 610.25 186.703125 607.753906 186.945312 605.269531 187.269531 C 602.785156 187.597656 600.3125 188.007812 597.855469 188.507812 C 595.398438 189.007812 592.964844 189.589844 590.546875 190.257812 C 588.132812 190.925781 585.742188 191.679688 583.378906 192.515625 C 581.015625 193.347656 578.683594 194.265625 576.382812 195.261719 C 574.082031 196.257812 571.820312 197.335938 569.59375 198.492188 C 567.371094 199.644531 565.1875 200.878906 563.046875 202.183594 C 560.90625 203.492188 558.816406 204.871094 556.773438 206.324219 C 554.730469 207.777344 552.738281 209.296875 550.800781 210.890625 C 548.863281 212.480469 546.984375 214.136719 545.160156 215.859375 C 543.339844 217.582031 541.578125 219.367188 539.878906 221.210938 C 538.179688 223.058594 536.550781 224.960938 534.984375 226.917969 C 533.417969 228.878906 531.921875 230.886719 530.496094 232.949219 C 529.070312 235.015625 527.714844 237.125 526.4375 239.28125 C 525.15625 241.4375 523.953125 243.636719 522.828125 245.878906 C 521.703125 248.121094 520.65625 250.398438 519.6875 252.710938 C 518.71875 255.027344 517.832031 257.371094 517.027344 259.746094 C 516.222656 262.121094 515.5 264.523438 514.863281 266.949219 C 514.226562 269.375 513.671875 271.820312 513.207031 274.285156 C 512.738281 276.75 512.355469 279.226562 512.0625 281.71875 C 511.765625 284.210938 511.558594 286.707031 511.433594 289.214844 C 511.3125 291.71875 511.277344 294.226562 511.332031 296.734375 C 511.382812 299.242188 511.523438 301.746094 511.75 304.246094 C 511.976562 306.742188 512.292969 309.230469 512.691406 311.707031 C 513.089844 314.183594 513.578125 316.644531 514.148438 319.085938 C 514.71875 321.527344 515.375 323.949219 516.113281 326.34375 C 516.851562 328.742188 517.675781 331.109375 518.578125 333.449219 L 455.480469 396.597656 L 394.972656 336.042969 L 421.332031 309.664062 C 422.136719 308.839844 422.808594 307.914062 423.34375 306.890625 C 423.878906 305.871094 424.257812 304.792969 424.476562 303.65625 C 424.691406 302.523438 424.742188 301.382812 424.625 300.234375 C 424.507812 299.085938 424.226562 297.980469 423.78125 296.914062 C 423.238281 295.496094 422.78125 294.054688 422.414062 292.582031 C 422.042969 291.109375 421.765625 289.621094 421.578125 288.113281 C 421.390625 286.609375 421.292969 285.097656 421.289062 283.582031 C 421.285156 282.0625 421.371094 280.550781 421.550781 279.046875 C 421.730469 277.539062 422.003906 276.046875 422.363281 274.574219 C 422.722656 273.101562 423.171875 271.652344 423.710938 270.234375 C 424.246094 268.816406 424.867188 267.433594 425.570312 266.089844 C 426.273438 264.746094 427.058594 263.453125 427.921875 262.203125 C 433.003906 255.761719 438.65625 249.863281 444.878906 244.515625 C 451.105469 239.167969 457.78125 234.464844 464.914062 230.410156 C 465.316406 230.199219 465.707031 229.964844 466.082031 229.707031 C 466.457031 229.453125 466.8125 229.171875 467.15625 228.875 C 467.496094 228.574219 467.820312 228.257812 468.125 227.921875 C 468.429688 227.582031 468.714844 227.230469 468.976562 226.859375 C 469.238281 226.488281 469.480469 226.101562 469.699219 225.703125 C 469.914062 225.304688 470.109375 224.894531 470.277344 224.472656 C 470.449219 224.050781 470.589844 223.621094 470.710938 223.183594 C 470.828125 222.742188 470.921875 222.300781 470.988281 221.847656 C 471.054688 221.398438 471.09375 220.949219 471.105469 220.492188 C 471.121094 220.039062 471.105469 219.585938 471.066406 219.132812 C 471.023438 218.679688 470.957031 218.230469 470.863281 217.785156 C 470.773438 217.339844 470.652344 216.902344 470.507812 216.472656 C 470.363281 216.042969 470.195312 215.621094 470 215.210938 C 469.804688 214.800781 469.585938 214.402344 469.347656 214.015625 C 469.105469 213.628906 468.839844 213.261719 468.554688 212.90625 C 468.273438 212.550781 467.96875 212.214844 467.644531 211.898438 C 467.042969 211.296875 406.277344 152.222656 338.164062 220.550781 L 175.855469 383.0625 C 175.316406 383.597656 174.839844 384.183594 174.417969 384.816406 C 173.996094 385.445312 173.640625 386.113281 173.347656 386.816406 C 173.058594 387.515625 172.839844 388.238281 172.691406 388.984375 C 172.542969 389.730469 172.46875 390.480469 172.46875 391.242188 C 172.46875 392 172.542969 392.753906 172.691406 393.5 C 172.839844 394.242188 173.058594 394.964844 173.347656 395.667969 C 173.640625 396.371094 173.996094 397.035156 174.417969 397.667969 C 174.839844 398.300781 175.316406 398.882812 175.855469 399.421875 L 245.609375 469.234375 C 246.148438 469.769531 246.730469 470.25 247.363281 470.671875 C 247.992188 471.09375 248.660156 471.449219 249.359375 471.742188 C 250.0625 472.03125 250.785156 472.25 251.527344 472.398438 C 252.273438 472.546875 253.023438 472.621094 253.785156 472.621094 C 254.542969 472.621094 255.292969 472.546875 256.039062 472.398438 C 256.78125 472.25 257.503906 472.03125 258.207031 471.742188 C 258.90625 471.449219 259.574219 471.09375 260.207031 470.671875 C 260.835938 470.25 261.421875 469.769531 261.957031 469.234375 L 322.765625 408.238281 L 383.34375 468.792969 L 319.4375 532.75 C 317.097656 531.847656 314.730469 531.023438 312.335938 530.285156 C 309.941406 529.542969 307.523438 528.886719 305.082031 528.316406 C 302.640625 527.746094 300.183594 527.257812 297.710938 526.859375 C 295.234375 526.460938 292.75 526.144531 290.253906 525.917969 C 287.757812 525.691406 285.257812 525.550781 282.75 525.5 C 280.242188 525.445312 277.738281 525.480469 275.234375 525.601562 C 272.730469 525.722656 270.234375 525.933594 267.746094 526.226562 C 265.257812 526.523438 262.78125 526.90625 260.316406 527.375 C 257.855469 527.839844 255.414062 528.394531 252.988281 529.03125 C 250.5625 529.671875 248.164062 530.394531 245.789062 531.199219 C 243.417969 532.003906 241.074219 532.890625 238.761719 533.859375 C 236.449219 534.828125 234.171875 535.875 231.933594 537.003906 C 229.695312 538.132812 227.496094 539.335938 225.34375 540.617188 C 223.1875 541.894531 221.078125 543.25 219.015625 544.675781 C 216.957031 546.105469 214.945312 547.601562 212.988281 549.167969 C 211.03125 550.734375 209.132812 552.371094 207.289062 554.070312 C 205.445312 555.769531 203.660156 557.53125 201.941406 559.355469 C 200.21875 561.179688 198.5625 563.058594 196.972656 565 C 195.382812 566.9375 193.863281 568.929688 192.410156 570.976562 C 190.957031 573.019531 189.582031 575.113281 188.273438 577.253906 C 186.96875 579.394531 185.738281 581.582031 184.582031 583.808594 C 183.429688 586.035156 182.355469 588.296875 181.359375 590.601562 C 180.359375 592.902344 179.445312 595.234375 178.613281 597.601562 C 177.777344 599.96875 177.027344 602.359375 176.359375 604.777344 C 175.691406 607.195312 175.105469 609.632812 174.609375 612.09375 C 174.109375 614.550781 173.699219 617.023438 173.371094 619.511719 C 173.046875 621.996094 172.804688 624.492188 172.652344 626.996094 C 172.5 629.5 172.433594 632.007812 172.457031 634.515625 C 172.480469 637.023438 172.585938 639.53125 172.785156 642.03125 C 172.980469 644.53125 173.261719 647.023438 173.632812 649.503906 C 174 651.984375 174.457031 654.449219 174.996094 656.898438 C 175.535156 659.351562 176.160156 661.777344 176.871094 664.183594 C 177.011719 664.664062 177.183594 665.132812 177.382812 665.589844 C 177.585938 666.046875 177.816406 666.488281 178.074219 666.914062 C 178.332031 667.34375 178.617188 667.75 178.929688 668.140625 C 179.238281 668.53125 179.574219 668.902344 179.933594 669.25 C 180.292969 669.59375 180.671875 669.917969 181.074219 670.214844 C 181.476562 670.511719 181.894531 670.785156 182.328125 671.027344 C 182.765625 671.269531 183.214844 671.484375 183.679688 671.671875 C 184.140625 671.855469 184.617188 672.007812 185.097656 672.132812 C 185.582031 672.257812 186.074219 672.347656 186.566406 672.410156 C 187.0625 672.46875 187.5625 672.496094 188.058594 672.492188 C 188.558594 672.488281 189.054688 672.453125 189.550781 672.382812 C 190.046875 672.316406 190.53125 672.214844 191.015625 672.082031 C 191.496094 671.953125 191.96875 671.789062 192.425781 671.597656 C 192.886719 671.402344 193.335938 671.183594 193.765625 670.929688 C 194.199219 670.679688 194.613281 670.402344 195.007812 670.097656 C 195.402344 669.792969 195.777344 669.464844 196.132812 669.113281 L 243.550781 621.675781 L 285.402344 628.617188 L 292.339844 670.5 L 244.941406 717.960938 C 244.585938 718.3125 244.257812 718.6875 243.953125 719.085938 C 243.648438 719.480469 243.371094 719.894531 243.121094 720.328125 C 242.871094 720.757812 242.648438 721.207031 242.457031 721.667969 C 242.265625 722.128906 242.101562 722.597656 241.96875 723.082031 C 241.839844 723.5625 241.738281 724.050781 241.671875 724.546875 C 241.601562 725.039062 241.566406 725.539062 241.5625 726.035156 C 241.558594 726.535156 241.585938 727.035156 241.644531 727.53125 C 241.707031 728.027344 241.796875 728.515625 241.921875 729 C 242.042969 729.484375 242.199219 729.957031 242.382812 730.421875 C 242.570312 730.886719 242.785156 731.335938 243.027344 731.773438 C 243.269531 732.207031 243.539062 732.628906 243.835938 733.027344 C 244.136719 733.429688 244.457031 733.808594 244.804688 734.167969 C 245.152344 734.527344 245.519531 734.863281 245.910156 735.175781 C 246.300781 735.488281 246.707031 735.773438 247.136719 736.03125 C 247.5625 736.289062 248.003906 736.519531 248.460938 736.722656 C 248.917969 736.921875 249.386719 737.09375 249.863281 737.234375 C 252.269531 737.945312 254.695312 738.570312 257.140625 739.113281 C 259.589844 739.652344 262.054688 740.109375 264.53125 740.476562 C 267.011719 740.847656 269.5 741.128906 272 741.324219 C 274.5 741.523438 277 741.632812 279.507812 741.652344 C 282.015625 741.675781 284.519531 741.609375 287.019531 741.457031 C 289.523438 741.304688 292.015625 741.0625 294.503906 740.738281 C 296.988281 740.410156 299.457031 739.996094 301.914062 739.5 C 304.371094 739 306.808594 738.417969 309.222656 737.75 C 311.640625 737.078125 314.03125 736.328125 316.394531 735.492188 C 318.757812 734.660156 321.089844 733.742188 323.390625 732.746094 C 325.6875 731.746094 327.953125 730.671875 330.175781 729.515625 C 332.402344 728.359375 334.585938 727.128906 336.722656 725.824219 C 338.863281 724.515625 340.957031 723.136719 343 721.683594 C 345.042969 720.230469 347.03125 718.707031 348.96875 717.117188 C 350.90625 715.527344 352.789062 713.867188 354.609375 712.144531 C 356.433594 710.421875 358.191406 708.640625 359.890625 706.792969 C 361.589844 704.949219 363.222656 703.046875 364.789062 701.089844 C 366.355469 699.128906 367.851562 697.117188 369.277344 695.054688 C 370.703125 692.992188 372.054688 690.882812 373.335938 688.726562 C 374.613281 686.566406 375.816406 684.367188 376.941406 682.128906 C 378.070312 679.886719 379.117188 677.609375 380.085938 675.296875 C 381.050781 672.980469 381.9375 670.636719 382.742188 668.261719 C 383.546875 665.882812 384.269531 663.484375 384.90625 661.058594 C 385.546875 658.632812 386.097656 656.1875 386.566406 653.722656 C 387.035156 651.257812 387.414062 648.78125 387.710938 646.289062 C 388.007812 643.796875 388.214844 641.296875 388.335938 638.792969 C 388.457031 636.289062 388.492188 633.78125 388.441406 631.273438 C 388.386719 628.765625 388.246094 626.261719 388.019531 623.761719 C 387.792969 621.265625 387.480469 618.777344 387.078125 616.300781 C 386.679688 613.824219 386.195312 611.363281 385.625 608.921875 C 385.050781 606.480469 384.398438 604.058594 383.65625 601.660156 C 382.917969 599.265625 382.097656 596.898438 381.191406 594.558594 L 445.308594 530.691406 L 640.265625 725.804688 C 642.601562 728.152344 645.144531 730.246094 647.894531 732.085938 C 650.644531 733.929688 653.546875 735.484375 656.605469 736.753906 C 659.664062 738.019531 662.816406 738.972656 666.0625 739.617188 C 669.308594 740.257812 672.585938 740.574219 675.894531 740.566406 C 679.289062 740.5625 682.652344 740.222656 685.976562 739.550781 C 689.304688 738.882812 692.535156 737.894531 695.667969 736.585938 C 698.800781 735.277344 701.773438 733.675781 704.589844 731.777344 C 707.40625 729.882812 710.011719 727.730469 712.402344 725.316406 C 713.570312 724.140625 714.679688 722.910156 715.726562 721.621094 C 716.777344 720.335938 717.757812 719.003906 718.675781 717.621094 C 719.59375 716.238281 720.441406 714.8125 721.21875 713.347656 C 722 711.882812 722.703125 710.382812 723.335938 708.847656 C 723.96875 707.3125 724.523438 705.753906 725.003906 704.164062 C 725.480469 702.574219 725.882812 700.964844 726.203125 699.339844 C 726.527344 697.710938 726.769531 696.070312 726.929688 694.417969 C 727.089844 692.765625 727.171875 691.113281 727.171875 689.453125 C 727.171875 687.792969 727.089844 686.136719 726.929688 684.484375 C 726.769531 682.832031 726.527344 681.195312 726.203125 679.566406 C 725.882812 677.9375 725.480469 676.328125 725.003906 674.742188 C 724.523438 673.152344 723.96875 671.589844 723.335938 670.054688 C 722.703125 668.523438 722 667.023438 721.21875 665.554688 C 720.441406 664.089844 719.59375 662.667969 718.675781 661.285156 C 717.757812 659.902344 716.777344 658.566406 715.726562 657.28125 C 714.679688 655.996094 713.570312 654.761719 712.402344 653.585938 L 517.332031 458.496094 L 580.429688 395.347656 C 582.851562 396.285156 585.304688 397.128906 587.789062 397.886719 C 590.273438 398.644531 592.78125 399.3125 595.316406 399.890625 C 597.847656 400.46875 600.398438 400.953125 602.964844 401.347656 C 605.53125 401.742188 608.109375 402.042969 610.699219 402.25 C 613.289062 402.457031 615.882812 402.570312 618.476562 402.59375 C 621.074219 402.613281 623.671875 402.539062 626.261719 402.375 C 628.855469 402.207031 631.4375 401.949219 634.011719 401.597656 C 636.582031 401.246094 639.140625 400.800781 641.683594 400.265625 C 644.222656 399.726562 646.742188 399.101562 649.238281 398.382812 C 651.734375 397.664062 654.203125 396.855469 656.640625 395.960938 C 659.078125 395.066406 661.480469 394.082031 663.847656 393.015625 C 666.214844 391.945312 668.542969 390.792969 670.828125 389.554688 C 673.109375 388.320312 675.347656 387 677.539062 385.605469 C 679.726562 384.207031 681.863281 382.730469 683.949219 381.179688 C 686.03125 379.628906 688.058594 378.003906 690.023438 376.304688 C 691.992188 374.605469 693.894531 372.839844 695.734375 371.003906 Z M 354.488281 236.933594 C 390.972656 200.445312 422.671875 209.515625 439.390625 219.371094 C 427.875 227.519531 417.855469 237.214844 409.332031 248.457031 C 408.058594 250.230469 406.886719 252.066406 405.816406 253.96875 C 404.746094 255.867188 403.78125 257.824219 402.925781 259.828125 C 402.070312 261.835938 401.328125 263.882812 400.695312 265.972656 C 400.066406 268.0625 399.550781 270.179688 399.152344 272.324219 C 398.753906 274.46875 398.472656 276.628906 398.3125 278.804688 C 398.152344 280.980469 398.109375 283.160156 398.1875 285.339844 C 398.265625 287.519531 398.464844 289.691406 398.78125 291.851562 C 399.097656 294.007812 399.53125 296.144531 400.082031 298.253906 L 295.644531 402.730469 L 242.257812 349.277344 Z M 253.796875 444.613281 L 200.386719 391.183594 L 225.820312 365.730469 L 279.207031 419.183594 Z M 359.414062 583.820312 C 358.566406 584.660156 357.867188 585.613281 357.3125 586.671875 C 356.757812 587.730469 356.378906 588.847656 356.171875 590.023438 C 355.964844 591.199219 355.941406 592.382812 356.097656 593.566406 C 356.257812 594.75 356.589844 595.882812 357.101562 596.964844 C 358.039062 598.929688 358.898438 600.933594 359.679688 602.964844 C 360.464844 605 361.167969 607.0625 361.792969 609.148438 C 362.417969 611.238281 362.964844 613.347656 363.425781 615.476562 C 363.890625 617.605469 364.269531 619.75 364.570312 621.910156 C 364.867188 624.070312 365.082031 626.234375 365.214844 628.410156 C 365.347656 630.585938 365.398438 632.765625 365.363281 634.945312 C 365.328125 637.125 365.210938 639.300781 365.007812 641.46875 C 364.808594 643.640625 364.523438 645.800781 364.15625 647.949219 C 363.789062 650.097656 363.339844 652.226562 362.808594 654.339844 C 362.277344 656.457031 361.667969 658.546875 360.976562 660.613281 C 360.285156 662.679688 359.515625 664.71875 358.667969 666.726562 C 357.820312 668.734375 356.898438 670.707031 355.898438 672.644531 C 354.898438 674.582031 353.828125 676.476562 352.683594 678.332031 C 351.539062 680.1875 350.324219 681.992188 349.042969 683.753906 C 347.757812 685.515625 346.410156 687.226562 344.996094 688.882812 C 343.582031 690.542969 342.105469 692.140625 340.570312 693.6875 C 338.484375 695.722656 336.304688 697.652344 334.027344 699.472656 C 331.75 701.292969 329.386719 702.996094 326.9375 704.578125 C 324.492188 706.160156 321.972656 707.617188 319.378906 708.949219 C 316.785156 710.28125 314.132812 711.480469 311.421875 712.546875 C 308.707031 713.613281 305.949219 714.542969 303.144531 715.332031 C 300.339844 716.125 297.503906 716.773438 294.632812 717.277344 C 291.761719 717.785156 288.875 718.148438 285.96875 718.367188 C 283.0625 718.585938 280.152344 718.65625 277.238281 718.585938 L 313.007812 682.71875 C 313.660156 682.066406 314.226562 681.347656 314.707031 680.5625 C 315.1875 679.777344 315.566406 678.945312 315.847656 678.066406 C 316.128906 677.1875 316.304688 676.289062 316.371094 675.371094 C 316.4375 674.453125 316.398438 673.539062 316.246094 672.628906 L 306.835938 616.769531 C 306.738281 616.179688 306.59375 615.601562 306.40625 615.03125 C 306.214844 614.460938 305.984375 613.910156 305.710938 613.378906 C 305.4375 612.847656 305.125 612.335938 304.769531 611.851562 C 304.417969 611.371094 304.03125 610.914062 303.605469 610.492188 C 303.183594 610.066406 302.730469 609.679688 302.246094 609.328125 C 301.761719 608.972656 301.253906 608.660156 300.722656 608.386719 C 300.1875 608.109375 299.640625 607.878906 299.070312 607.691406 C 298.503906 607.503906 297.921875 607.359375 297.332031 607.261719 L 241.519531 597.84375 C 240.609375 597.691406 239.695312 597.648438 238.777344 597.714844 C 237.859375 597.785156 236.960938 597.957031 236.085938 598.238281 C 235.207031 598.519531 234.378906 598.902344 233.589844 599.382812 C 232.804688 599.863281 232.085938 600.429688 231.4375 601.082031 L 195.597656 636.878906 C 195.527344 635.058594 195.515625 633.242188 195.5625 631.421875 C 195.605469 629.601562 195.710938 627.785156 195.875 625.96875 C 196.035156 624.15625 196.257812 622.351562 196.535156 620.550781 C 196.8125 618.753906 197.148438 616.964844 197.542969 615.1875 C 197.933594 613.410156 198.386719 611.648438 198.890625 609.898438 C 199.398438 608.148438 199.960938 606.417969 200.578125 604.707031 C 201.195312 602.996094 201.867188 601.304688 202.59375 599.636719 C 203.320312 597.964844 204.097656 596.320312 204.929688 594.703125 C 205.761719 593.082031 206.644531 591.492188 207.578125 589.929688 C 208.511719 588.367188 209.496094 586.835938 210.527344 585.339844 C 211.5625 583.839844 212.640625 582.375 213.765625 580.945312 C 214.894531 579.515625 216.0625 578.125 217.28125 576.769531 C 218.496094 575.414062 219.753906 574.101562 221.054688 572.828125 C 222.351562 571.554688 223.691406 570.324219 225.070312 569.136719 C 226.449219 567.949219 227.867188 566.808594 229.320312 565.714844 C 230.773438 564.617188 232.257812 563.570312 233.777344 562.570312 C 235.296875 561.566406 236.847656 560.617188 238.429688 559.714844 C 240.007812 558.816406 241.617188 557.96875 243.253906 557.167969 C 244.886719 556.371094 246.546875 555.628906 248.230469 554.9375 C 249.914062 554.246094 251.617188 553.613281 253.339844 553.03125 C 255.066406 552.449219 256.804688 551.925781 258.5625 551.457031 C 260.320312 550.988281 262.09375 550.574219 263.875 550.21875 C 265.660156 549.863281 267.453125 549.566406 269.257812 549.328125 C 271.0625 549.085938 272.871094 548.90625 274.683594 548.78125 C 276.5 548.660156 278.316406 548.59375 280.136719 548.589844 C 281.953125 548.582031 283.773438 548.632812 285.585938 548.746094 C 287.402344 548.855469 289.214844 549.023438 291.019531 549.25 C 292.824219 549.476562 294.621094 549.761719 296.40625 550.105469 C 298.191406 550.445312 299.964844 550.847656 301.726562 551.304688 C 303.488281 551.757812 305.234375 552.273438 306.960938 552.839844 C 308.6875 553.410156 310.398438 554.035156 312.085938 554.710938 C 313.773438 555.390625 315.4375 556.125 317.078125 556.910156 C 318.15625 557.417969 319.289062 557.753906 320.472656 557.910156 C 321.65625 558.070312 322.835938 558.046875 324.011719 557.835938 C 325.1875 557.628906 326.304688 557.25 327.363281 556.695312 C 328.417969 556.144531 329.371094 555.441406 330.210938 554.59375 L 399.574219 485.175781 L 428.730469 514.355469 Z M 695.457031 709.445312 C 694.816406 710.082031 694.148438 710.6875 693.453125 711.261719 C 692.753906 711.832031 692.03125 712.371094 691.28125 712.871094 C 690.53125 713.371094 689.757812 713.835938 688.960938 714.261719 C 688.164062 714.6875 687.351562 715.070312 686.515625 715.417969 C 685.683594 715.761719 684.835938 716.066406 683.972656 716.328125 C 683.109375 716.589844 682.234375 716.808594 681.351562 716.984375 C 680.464844 717.160156 679.574219 717.292969 678.675781 717.382812 C 677.777344 717.46875 676.878906 717.515625 675.976562 717.515625 C 675.074219 717.515625 674.175781 717.46875 673.277344 717.382812 C 672.378906 717.292969 671.488281 717.160156 670.601562 716.984375 C 669.71875 716.808594 668.84375 716.589844 667.980469 716.328125 C 667.117188 716.066406 666.269531 715.761719 665.433594 715.417969 C 664.601562 715.070312 663.785156 714.6875 662.992188 714.261719 C 662.195312 713.835938 661.421875 713.371094 660.671875 712.871094 C 659.921875 712.371094 659.199219 711.832031 658.5 711.261719 C 657.800781 710.6875 657.132812 710.082031 656.496094 709.445312 L 339.183594 391.878906 L 378.625 352.402344 L 695.941406 669.992188 C 696.582031 670.644531 697.191406 671.324219 697.765625 672.039062 C 698.339844 672.75 698.875 673.488281 699.378906 674.253906 C 699.878906 675.019531 700.339844 675.804688 700.765625 676.617188 C 701.1875 677.429688 701.570312 678.257812 701.914062 679.105469 C 702.253906 679.957031 702.550781 680.820312 702.808594 681.695312 C 703.066406 682.574219 703.277344 683.464844 703.445312 684.363281 C 703.613281 685.261719 703.738281 686.167969 703.816406 687.078125 C 703.894531 687.992188 703.929688 688.90625 703.917969 689.820312 C 703.90625 690.734375 703.851562 691.644531 703.75 692.554688 C 703.648438 693.464844 703.5 694.367188 703.3125 695.261719 C 703.121094 696.15625 702.886719 697.039062 702.609375 697.910156 C 702.332031 698.785156 702.011719 699.640625 701.648438 700.480469 C 701.285156 701.320312 700.882812 702.140625 700.441406 702.941406 C 699.996094 703.738281 699.515625 704.515625 698.996094 705.269531 C 698.476562 706.023438 697.921875 706.746094 697.328125 707.445312 C 696.738281 708.140625 696.113281 708.808594 695.457031 709.445312 Z M 569.605469 373.457031 L 500.984375 442.136719 L 471.828125 412.957031 L 540.453125 344.28125 C 541.296875 343.4375 542 342.488281 542.550781 341.429688 C 543.105469 340.371094 543.484375 339.253906 543.691406 338.074219 C 543.898438 336.898438 543.921875 335.71875 543.765625 334.535156 C 543.605469 333.351562 543.273438 332.21875 542.761719 331.136719 C 541.828125 329.167969 540.964844 327.167969 540.183594 325.132812 C 539.398438 323.101562 538.695312 321.039062 538.070312 318.949219 C 537.445312 316.863281 536.902344 314.753906 536.4375 312.625 C 535.972656 310.492188 535.59375 308.347656 535.292969 306.191406 C 534.996094 304.03125 534.78125 301.863281 534.648438 299.6875 C 534.515625 297.511719 534.464844 295.335938 534.5 293.15625 C 534.535156 290.976562 534.652344 288.800781 534.855469 286.628906 C 535.058594 284.460938 535.339844 282.300781 535.707031 280.152344 C 536.074219 278.003906 536.523438 275.871094 537.054688 273.757812 C 537.585938 271.644531 538.195312 269.554688 538.886719 267.488281 C 539.578125 265.417969 540.347656 263.382812 541.195312 261.375 C 542.042969 259.367188 542.96875 257.394531 543.964844 255.457031 C 544.964844 253.519531 546.035156 251.625 547.179688 249.769531 C 548.324219 247.914062 549.539062 246.105469 550.820312 244.34375 C 552.105469 242.582031 553.453125 240.875 554.867188 239.214844 C 556.28125 237.558594 557.757812 235.957031 559.296875 234.414062 C 561.382812 232.382812 563.570312 230.457031 565.847656 228.644531 C 568.128906 226.828125 570.492188 225.132812 572.941406 223.550781 C 575.390625 221.972656 577.910156 220.515625 580.503906 219.1875 C 583.097656 217.859375 585.746094 216.660156 588.460938 215.59375 C 591.171875 214.527344 593.929688 213.597656 596.730469 212.808594 C 599.535156 212.015625 602.371094 211.363281 605.238281 210.855469 C 608.109375 210.34375 610.992188 209.976562 613.898438 209.753906 C 616.804688 209.527344 619.710938 209.449219 622.625 209.515625 L 586.855469 245.382812 C 586.203125 246.03125 585.636719 246.75 585.15625 247.539062 C 584.675781 248.324219 584.296875 249.15625 584.015625 250.03125 C 583.734375 250.910156 583.558594 251.808594 583.492188 252.726562 C 583.425781 253.648438 583.46875 254.5625 583.617188 255.46875 L 593.027344 311.328125 C 593.128906 311.921875 593.269531 312.5 593.460938 313.070312 C 593.648438 313.636719 593.878906 314.1875 594.152344 314.722656 C 594.425781 315.253906 594.742188 315.761719 595.09375 316.246094 C 595.445312 316.730469 595.835938 317.183594 596.257812 317.609375 C 596.679688 318.03125 597.132812 318.421875 597.617188 318.773438 C 598.101562 319.125 598.609375 319.441406 599.140625 319.714844 C 599.675781 319.988281 600.226562 320.21875 600.792969 320.410156 C 601.363281 320.597656 601.941406 320.742188 602.53125 320.839844 L 658.347656 330.257812 C 659.253906 330.410156 660.167969 330.449219 661.085938 330.382812 C 662.003906 330.316406 662.902344 330.140625 663.777344 329.859375 C 664.65625 329.578125 665.488281 329.199219 666.273438 328.714844 C 667.058594 328.234375 667.777344 327.667969 668.425781 327.015625 L 704.265625 291.21875 C 704.335938 293.039062 704.351562 294.859375 704.304688 296.679688 C 704.257812 298.5 704.15625 300.316406 703.996094 302.128906 C 703.832031 303.941406 703.613281 305.746094 703.335938 307.546875 C 703.058594 309.347656 702.722656 311.132812 702.328125 312.910156 C 701.9375 314.6875 701.488281 316.453125 700.980469 318.199219 C 700.472656 319.949219 699.914062 321.679688 699.296875 323.390625 C 698.679688 325.105469 698.007812 326.796875 697.28125 328.464844 C 696.554688 330.132812 695.777344 331.777344 694.945312 333.398438 C 694.113281 335.015625 693.230469 336.605469 692.296875 338.167969 C 691.363281 339.730469 690.382812 341.261719 689.347656 342.761719 C 688.316406 344.261719 687.238281 345.726562 686.113281 347.15625 C 684.984375 348.585938 683.816406 349.976562 682.601562 351.332031 C 681.382812 352.683594 680.125 354 678.828125 355.273438 C 677.527344 356.546875 676.1875 357.777344 674.808594 358.964844 C 673.429688 360.152344 672.015625 361.292969 670.5625 362.390625 C 669.109375 363.484375 667.625 364.535156 666.105469 365.535156 C 664.585938 366.535156 663.035156 367.484375 661.453125 368.386719 C 659.871094 369.285156 658.265625 370.136719 656.628906 370.933594 C 654.996094 371.730469 653.335938 372.476562 651.652344 373.164062 C 649.96875 373.855469 648.265625 374.492188 646.542969 375.074219 C 644.816406 375.652344 643.078125 376.179688 641.320312 376.648438 C 639.5625 377.117188 637.792969 377.527344 636.007812 377.882812 C 634.222656 378.238281 632.429688 378.535156 630.625 378.777344 C 628.824219 379.015625 627.015625 379.195312 625.199219 379.320312 C 623.386719 379.445312 621.566406 379.507812 619.75 379.515625 C 617.929688 379.519531 616.113281 379.46875 614.296875 379.359375 C 612.480469 379.246094 610.671875 379.078125 608.867188 378.851562 C 607.0625 378.625 605.265625 378.339844 603.480469 377.996094 C 601.691406 377.65625 599.917969 377.253906 598.160156 376.796875 C 596.398438 376.339844 594.652344 375.828125 592.925781 375.261719 C 591.199219 374.691406 589.488281 374.066406 587.800781 373.386719 C 586.113281 372.710938 584.449219 371.976562 582.808594 371.191406 C 582.273438 370.933594 581.71875 370.714844 581.144531 370.542969 C 580.574219 370.371094 579.996094 370.242188 579.402344 370.160156 C 578.8125 370.078125 578.21875 370.042969 577.625 370.050781 C 577.027344 370.058594 576.433594 370.113281 575.847656 370.214844 C 575.257812 370.316406 574.683594 370.460938 574.117188 370.652344 C 573.550781 370.84375 573.003906 371.074219 572.476562 371.351562 C 571.945312 371.625 571.441406 371.941406 570.960938 372.292969 C 570.480469 372.648438 570.027344 373.035156 569.605469 373.457031 Z M 569.605469 373.457031 "/></g></svg>