<svg xmlns="http://www.w3.org/2000/svg" xmlns:xlink="http://www.w3.org/1999/xlink" width="1200" zoomAndPan="magnify" viewBox="0 0 900 899.99999" height="1200" preserveAspectRatio="xMidYMid meet" version="1.2"><defs><clipPath id="49bb3db8e2"><path d="M 24.054688 24.054688 L 875.945312 24.054688 L 875.945312 875.945312 L 24.054688 875.945312 Z M 24.054688 24.054688 "/></clipPath><clipPath id="49bc0f5885"><path d="M 450 24.054688 C 214.757812 24.054688 24.054688 214.757812 24.054688 450 C 24.054688 685.242188 214.757812 875.945312 450 875.945312 C 685.242188 875.945312 875.945312 685.242188 875.945312 450 C 875.945312 214.757812 685.242188 24.054688 450 24.054688 Z M 450 24.054688 "/></clipPath><clipPath id="3dd11bc370"><path d="M 328 130 L 529 130 L 529 770.527344 L 328 770.527344 Z M 328 130 "/></clipPath><clipPath id="ed3ddf5a83"><path d="M 24.054688 24.054688 L 876 24.054688 L 876 876 L 24.054688 876 Z M 24.054688 24.054688 "/></clipPath></defs><g id="51385a8e8d"><g clip-rule="nonzero" clip-path="url(#49bb3db8e2)"><g clip-rule="nonzero" clip-path="url(#49bc0f5885)"><path style=" stroke:none;fill-rule:nonzero;fill:#ca1c1c;fill-opacity:1;" d="M 24.054688 24.054688 L 875.945312 24.054688 L 875.945312 875.945312 L 24.054688 875.945312 Z M 24.054688 24.054688 "/></g></g><g clip-rule="nonzero" clip-path="url(#3dd11bc370)"><path style=" stroke:none;fill-rule:nonzero;fill:#000000;fill-opacity:1;" d="M 500.359375 379.09375 C 486.585938 407.605469 469.960938 432.515625 453.882812 456.601562 C 403.375 532.242188 359.484375 597.972656 428.164062 730.164062 C 290.234375 621.285156 355.644531 510.136719 413.828125 411.265625 C 420.3125 400.242188 426.667969 389.449219 432.574219 378.917969 C 473.640625 305.707031 444.132812 228.964844 415.628906 181.058594 C 466.496094 224.753906 537.039062 303.1875 500.359375 379.09375 Z M 379.261719 131.640625 C 375.59375 129.304688 370.78125 130.039062 367.984375 133.359375 C 365.1875 136.683594 365.285156 141.558594 368.210938 144.765625 C 369.296875 145.957031 476.433594 265.371094 417.480469 370.453125 C 411.628906 380.882812 405.339844 391.570312 398.914062 402.488281 C 335.730469 509.855469 257.09375 643.46875 453.070312 768.992188 C 454.507812 769.910156 456.121094 770.351562 457.738281 770.351562 C 460.007812 770.351562 462.257812 769.460938 463.933594 767.742188 C 466.804688 764.792969 467.199219 760.242188 464.894531 756.84375 L 452.144531 738.050781 C 376.246094 604.035156 416.867188 543.207031 468.273438 466.210938 C 484.683594 441.632812 501.644531 416.222656 515.953125 386.625 C 577.183594 259.882812 387.367188 136.816406 379.261719 131.640625 "/></g><path style=" stroke:none;fill-rule:nonzero;fill:#000000;fill-opacity:1;" d="M 314.019531 358.007812 C 281.214844 413.253906 266.460938 465.085938 260.515625 491.546875 C 223.222656 442.691406 227.265625 392.351562 272.714844 326.453125 C 298.878906 288.519531 301.269531 252.367188 296.058594 224.160156 C 319.679688 260.089844 341.386719 311.910156 314.019531 358.007812 Z M 271.542969 166.726562 C 268.257812 163.609375 263.125 163.5625 259.785156 166.597656 C 256.425781 169.636719 255.988281 174.753906 258.765625 178.328125 C 260.820312 180.972656 308.5625 243.984375 258.460938 316.632812 C 204.035156 395.546875 204.273438 457.292969 259.222656 516.832031 C 260.898438 518.636719 263.207031 519.609375 265.585938 519.609375 C 266.445312 519.609375 267.316406 519.480469 268.164062 519.222656 C 271.351562 518.226562 273.6875 515.480469 274.148438 512.175781 C 274.253906 511.476562 284.589844 441.464844 328.902344 366.839844 C 383.582031 274.742188 276.148438 171.097656 271.542969 166.726562 "/><path style=" stroke:none;fill-rule:nonzero;fill:#000000;fill-opacity:1;" d="M 574.625 642.375 C 527.421875 586.835938 557.105469 537.222656 583.535156 493.023438 C 589.835938 482.503906 595.78125 472.5625 600.4375 462.945312 C 616.808594 429.109375 611.964844 390.410156 604.441406 362.757812 C 651.613281 415.320312 654.902344 463.230469 616.875 518.308594 C 584.277344 565.5 576.3125 614.832031 574.625 642.375 Z M 588.828125 323.222656 C 585.707031 320.476562 581.097656 320.332031 577.828125 322.863281 C 574.550781 325.394531 573.519531 329.898438 575.371094 333.597656 C 575.726562 334.292969 609.886719 403.671875 584.855469 455.40625 C 580.539062 464.335938 574.78125 473.957031 568.6875 484.140625 C 539.738281 532.539062 500.082031 598.824219 577.238281 669.945312 C 578.875 671.453125 580.976562 672.238281 583.101562 672.238281 C 584.386719 672.238281 585.671875 671.949219 586.871094 671.371094 C 590.078125 669.824219 592 666.472656 591.734375 662.929688 C 591.683594 662.222656 586.976562 592.046875 631.109375 528.144531 C 695.632812 434.703125 637.882812 366.441406 588.828125 323.222656 "/><g clip-rule="nonzero" clip-path="url(#ed3ddf5a83)"><path style=" stroke:none;fill-rule:nonzero;fill:#f00f0b;fill-opacity:1;" d="M 449.996094 24.054688 C 214.988281 24.054688 24.054688 214.988281 24.054688 449.996094 C 24.054688 685.003906 214.988281 875.9375 449.996094 875.9375 C 685.003906 875.9375 875.9375 685.003906 875.9375 449.996094 C 875.9375 214.988281 685.003906 24.054688 449.996094 24.054688 Z M 449.996094 42.574219 C 675.246094 42.574219 857.417969 224.746094 857.417969 449.996094 C 857.417969 675.246094 675.246094 857.417969 449.996094 857.417969 C 224.746094 857.417969 42.574219 675.246094 42.574219 449.996094 C 42.574219 224.746094 224.746094 42.574219 449.996094 42.574219 Z M 449.996094 42.574219 "/></g></g></svg>