<svg xmlns="http://www.w3.org/2000/svg" xmlns:xlink="http://www.w3.org/1999/xlink" width="1200" zoomAndPan="magnify" viewBox="0 0 900 899.99999" height="1200" preserveAspectRatio="xMidYMid meet" version="1.2"><defs><clipPath id="4c4bfea22e"><path d="M 26.375 26.375 L 873.625 26.375 L 873.625 873.625 L 26.375 873.625 Z M 26.375 26.375 "/></clipPath><clipPath id="68b99f28d5"><path d="M 450 26.375 C 216.039062 26.375 26.375 216.039062 26.375 450 C 26.375 683.960938 216.039062 873.625 450 873.625 C 683.960938 873.625 873.625 683.960938 873.625 450 C 873.625 216.039062 683.960938 26.375 450 26.375 Z M 450 26.375 "/></clipPath><clipPath id="f48b2b148d"><path d="M 26.375 26.375 L 871.601562 26.375 L 871.601562 871.601562 L 26.375 871.601562 Z M 26.375 26.375 "/></clipPath><clipPath id="a36c079624"><path d="M 129.359375 130.160156 L 770 130.160156 L 770 769.910156 L 129.359375 769.910156 Z M 129.359375 130.160156 "/></clipPath></defs><g id="be5819309d"><g clip-rule="nonzero" clip-path="url(#4c4bfea22e)"><g clip-rule="nonzero" clip-path="url(#68b99f28d5)"><path style=" stroke:none;fill-rule:nonzero;fill:#ca1c1c;fill-opacity:1;" d="M 26.375 26.375 L 873.625 26.375 L 873.625 873.625 L 26.375 873.625 Z M 26.375 26.375 "/></g></g><g clip-rule="nonzero" clip-path="url(#f48b2b148d)"><path style=" stroke:none;fill-rule:nonzero;fill:#f00f0b;fill-opacity:1;" d="M 448.988281 26.375 C 215.816406 26.375 26.375 215.816406 26.375 448.988281 C 26.375 682.160156 215.816406 871.601562 448.988281 871.601562 C 682.160156 871.601562 871.601562 682.160156 871.601562 448.988281 C 871.601562 215.816406 682.160156 26.375 448.988281 26.375 Z M 448.988281 44.75 C 672.476562 44.75 853.226562 225.5 853.226562 448.988281 C 853.226562 672.476562 672.476562 853.226562 448.988281 853.226562 C 225.5 853.226562 44.75 672.476562 44.75 448.988281 C 44.75 225.5 225.5 44.75 448.988281 44.75 Z M 448.988281 44.75 "/></g><g clip-rule="nonzero" clip-path="url(#a36c079624)"><path style=" stroke:none;fill-rule:nonzero;fill:#000000;fill-opacity:1;" d="M 760.480469 298.058594 L 760.453125 298.035156 L 719.15625 292.140625 C 713.355469 291.316406 709.308594 285.941406 710.144531 280.128906 C 710.542969 277.339844 712.027344 274.820312 714.285156 273.132812 L 747.660156 248.101562 C 752.359375 244.585938 753.300781 237.921875 749.785156 233.234375 L 711.566406 182.269531 C 708.046875 177.582031 701.386719 176.628906 696.703125 180.144531 L 663.339844 205.175781 C 658.667969 208.722656 652.003906 207.804688 648.460938 203.132812 C 646.738281 200.863281 646.007812 197.996094 646.417969 195.183594 L 652.324219 153.878906 C 653.160156 148.078125 649.125 142.6875 643.324219 141.851562 L 580.300781 132.851562 C 574.503906 132.015625 569.113281 136.050781 568.277344 141.851562 L 562.375 183.15625 C 561.550781 188.957031 556.175781 193.007812 550.363281 192.167969 C 547.578125 191.773438 545.054688 190.285156 543.371094 188.027344 L 518.339844 154.648438 C 514.824219 149.960938 508.160156 149.007812 503.476562 152.523438 L 471.574219 176.46875 C 457.136719 174.929688 442.589844 174.929688 428.152344 176.46875 C 333.625 187.273438 259.503906 262.660156 250.296875 357.375 C 250.003906 360.375 249.898438 363.363281 249.75 366.347656 L 246.566406 366.347656 C 241.523438 366.347656 237.183594 369.90625 236.1875 374.84375 L 228.851562 409.738281 L 199.46875 389.46875 C 195.246094 386.5625 189.554688 387.082031 185.933594 390.703125 L 154.082031 422.558594 C 150.457031 426.183594 149.941406 431.863281 152.847656 436.085938 L 173.019531 465.417969 L 138.117188 472.757812 C 133.21875 473.832031 129.757812 478.160156 129.757812 483.164062 L 129.757812 525.636719 C 129.757812 530.652344 133.273438 534.992188 138.183594 536.027344 L 173.085938 543.367188 L 152.914062 572.703125 C 150.007812 576.921875 150.523438 582.601562 154.148438 586.226562 L 186 618.082031 C 189.621094 621.703125 195.3125 622.222656 199.535156 619.316406 L 228.863281 599.085938 L 236.203125 633.996094 C 237.210938 638.933594 241.550781 642.476562 246.578125 642.488281 L 289.046875 642.488281 C 294.0625 642.488281 298.402344 638.972656 299.4375 634.0625 L 306.777344 599.152344 L 336.105469 619.328125 C 340.324219 622.234375 346.003906 621.71875 349.628906 618.09375 L 366.109375 601.558594 L 366.109375 631.820312 C 366.164062 646.921875 374.246094 660.859375 387.34375 668.386719 L 387.34375 727.382812 C 387.34375 750.835938 406.359375 769.855469 429.8125 769.855469 L 472.277344 769.855469 C 495.726562 769.855469 514.746094 750.835938 514.746094 727.382812 L 514.746094 668.386719 C 527.84375 660.859375 535.925781 646.921875 535.976562 631.820312 L 535.976562 589.796875 C 536.269531 572.117188 545.519531 555.792969 560.527344 546.449219 C 569.339844 540.726562 577.6875 534.34375 585.519531 527.335938 L 571.359375 511.515625 C 564.363281 517.792969 556.878906 523.511719 548.984375 528.621094 C 527.894531 541.855469 514.996094 564.898438 514.730469 589.796875 L 514.730469 631.820312 C 514.730469 643.550781 505.230469 653.054688 493.496094 653.054688 L 408.5625 653.054688 C 396.832031 653.054688 387.332031 643.550781 387.332031 631.820312 L 387.332031 588.90625 C 387.089844 564.484375 374.378906 541.882812 353.648438 528.980469 C 269.5 476.101562 244.152344 365.007812 297.023438 280.84375 C 329.828125 228.628906 387.078125 196.839844 448.75 196.628906 C 448.589844 197 448.457031 197.398438 448.335938 197.785156 C 447.9375 200.570312 448.667969 203.398438 450.367188 205.65625 L 475.394531 239.023438 C 478.035156 242.433594 478.289062 247.132812 476.03125 250.808594 C 473.855469 254.511719 469.664062 256.53125 465.417969 255.917969 L 424.117188 250.011719 C 418.316406 249.175781 412.929688 253.210938 412.105469 259.011719 L 403.097656 322.085938 C 402.261719 327.882812 406.292969 333.273438 412.09375 334.109375 L 453.394531 340.015625 C 459.191406 340.839844 463.226562 346.214844 462.402344 352.027344 C 462.003906 354.816406 460.519531 357.335938 458.261719 359.023438 L 424.902344 384.054688 C 420.203125 387.570312 419.261719 394.222656 422.777344 398.921875 L 460.996094 449.886719 C 464.515625 454.585938 471.175781 455.527344 475.859375 452.011719 L 509.238281 426.980469 C 513.933594 423.460938 520.582031 424.429688 524.101562 429.128906 C 525.785156 431.371094 526.503906 434.199219 526.105469 436.972656 L 520.210938 478.277344 C 519.375 484.078125 523.410156 489.46875 529.210938 490.304688 L 592.273438 499.316406 C 592.765625 499.382812 593.269531 499.410156 593.773438 499.410156 C 599.054688 499.410156 603.539062 495.535156 604.296875 490.304688 L 610.1875 449 C 611.011719 443.199219 616.386719 439.164062 622.199219 439.988281 C 624.984375 440.386719 627.507812 441.871094 629.191406 444.128906 L 654.222656 477.496094 C 657.738281 482.195312 664.398438 483.136719 669.085938 479.621094 L 720.042969 441.394531 C 724.742188 437.875 725.683594 431.226562 722.167969 426.527344 L 697.140625 393.160156 C 694.511719 389.734375 694.257812 385.0625 696.503906 381.375 C 698.625 377.617188 702.859375 375.585938 707.117188 376.277344 L 748.417969 382.171875 C 754.21875 383.007812 759.605469 378.972656 760.441406 373.171875 L 769.4375 310.097656 C 770.273438 304.296875 766.242188 298.910156 760.441406 298.074219 Z M 408.589844 674.292969 L 493.523438 674.292969 L 493.523438 695.527344 L 408.589844 695.527344 Z M 408.589844 716.765625 L 493.523438 716.765625 L 493.523438 727.382812 C 493.523438 739.117188 484.023438 748.621094 472.289062 748.621094 L 429.824219 748.621094 C 418.09375 748.621094 408.589844 739.117188 408.589844 727.382812 Z M 324.070312 533.652344 C 329.867188 538.390625 335.917969 542.8125 342.210938 546.871094 C 352.242188 553.21875 359.792969 562.800781 363.601562 574.042969 L 340.828125 596.777344 L 318.773438 581.566406 C 309.113281 574.917969 295.894531 577.347656 289.246094 587.007812 C 287.652344 589.320312 286.523438 591.933594 285.953125 594.679688 L 280.394531 621.199219 L 255.152344 621.199219 L 249.59375 594.734375 C 247.175781 583.253906 235.910156 575.914062 224.445312 578.328125 C 221.695312 578.914062 219.082031 580.027344 216.773438 581.621094 L 194.71875 596.777344 L 175.367188 577.480469 L 190.5625 555.433594 C 197.226562 545.785156 194.796875 532.550781 185.148438 525.886719 C 182.828125 524.296875 180.226562 523.167969 177.464844 522.582031 L 151.003906 517.007812 L 151.003906 491.777344 L 177.464844 486.203125 C 188.929688 483.773438 196.269531 472.492188 193.828125 461.023438 C 193.242188 458.304688 192.140625 455.714844 190.578125 453.417969 L 175.367188 431.304688 L 194.71875 412.007812 L 216.785156 427.21875 C 226.449219 433.867188 239.664062 431.425781 246.3125 421.761719 C 247.90625 419.453125 249.023438 416.839844 249.605469 414.089844 L 251.464844 405.25 C 253.160156 417.488281 255.976562 429.539062 259.878906 441.261719 C 224.949219 445.429688 200 477.125 204.164062 512.058594 C 208.332031 546.992188 240.023438 571.945312 274.964844 567.777344 C 296 565.269531 314.40625 552.472656 324.082031 533.640625 Z M 307.585938 518.695312 C 299.664062 540.742188 275.363281 552.167969 253.335938 544.246094 C 231.304688 536.320312 219.867188 512.019531 227.789062 489.984375 C 233.851562 473.128906 249.859375 461.898438 267.773438 461.925781 L 268.171875 461.925781 C 277.9375 482.976562 291.261719 502.183594 307.585938 518.695312 Z M 740.894531 359.605469 L 710.105469 355.214844 C 692.695312 352.730469 676.554688 364.824219 674.074219 382.25 C 672.878906 390.613281 675.054688 399.105469 680.125 405.863281 L 698.785156 430.734375 L 664.8125 456.21875 L 646.152344 431.347656 C 635.601562 417.277344 615.644531 414.410156 601.5625 424.976562 C 594.808594 430.046875 590.335938 437.585938 589.140625 445.945312 L 584.839844 476.777344 L 542.8125 470.765625 L 547.203125 439.972656 C 549.699219 422.558594 537.609375 406.417969 520.183594 403.925781 C 511.824219 402.730469 503.316406 404.90625 496.5625 409.976562 L 471.695312 428.636719 L 446.214844 394.660156 L 471.082031 376 C 485.164062 365.445312 488.015625 345.484375 477.453125 331.402344 C 472.382812 324.644531 464.847656 320.171875 456.484375 318.976562 L 425.695312 314.585938 L 431.707031 272.550781 L 462.496094 276.941406 C 479.910156 279.4375 496.046875 267.332031 498.539062 249.917969 C 499.734375 241.542969 497.558594 233.050781 492.488281 226.292969 L 473.777344 201.394531 L 507.75 175.910156 L 526.410156 200.785156 C 536.960938 214.851562 556.917969 217.71875 571 207.15625 C 577.753906 202.085938 582.226562 194.546875 583.421875 186.183594 L 587.8125 155.390625 L 629.84375 161.390625 L 625.449219 192.183594 C 622.96875 209.597656 635.058594 225.738281 652.484375 228.21875 C 660.84375 229.414062 669.335938 227.238281 676.089844 222.167969 L 700.960938 203.503906 L 726.441406 237.484375 L 701.570312 256.144531 C 687.492188 266.695312 684.636719 286.671875 695.203125 300.742188 C 700.269531 307.496094 707.808594 311.96875 716.167969 313.164062 L 746.957031 317.558594 L 740.921875 359.578125 Z M 586.273438 231.125 C 539.363281 231.125 501.339844 269.152344 501.339844 316.070312 C 501.339844 362.992188 539.363281 401.015625 586.273438 401.015625 C 633.1875 401.015625 671.207031 362.992188 671.207031 316.070312 C 671.15625 269.179688 633.160156 231.179688 586.273438 231.125 Z M 586.273438 379.78125 C 551.09375 379.78125 522.574219 351.257812 522.574219 316.070312 C 522.574219 280.886719 551.09375 252.363281 586.273438 252.363281 C 621.457031 252.363281 649.972656 280.886719 649.972656 316.070312 C 649.933594 351.246094 621.441406 379.742188 586.273438 379.78125 Z M 440.441406 599.964844 L 461.675781 599.964844 L 461.675781 631.820312 L 440.441406 631.820312 Z M 404.621094 495.679688 C 339.089844 470.074219 306.710938 396.171875 332.308594 330.632812 C 342.234375 305.226562 360.03125 283.6875 383.109375 269.164062 L 371.765625 251.195312 C 302.304688 294.953125 281.46875 386.75 325.234375 456.207031 C 342.183594 483.109375 367.304688 503.867188 396.925781 515.441406 C 423.136719 525.488281 440.441406 550.65625 440.453125 578.726562 L 461.6875 578.726562 C 461.726562 541.894531 439.019531 508.859375 404.636719 495.679688 Z M 652.773438 525.636719 L 727.089844 525.636719 L 727.089844 546.871094 L 652.773438 546.871094 Z M 635.363281 597.496094 L 648.953125 581.183594 L 712.652344 634.261719 L 699.0625 650.574219 Z M 589.074219 610.582031 L 610.308594 610.582031 L 610.308594 684.910156 L 589.074219 684.910156 Z M 140.597656 313.578125 L 225.53125 292.339844 L 230.679688 312.925781 L 145.746094 334.164062 Z M 158.234375 205.109375 L 170.5625 187.84375 L 244.882812 240.933594 L 232.550781 258.203125 Z M 249.195312 135.375 L 269.765625 130.121094 L 291.476562 215.066406 L 270.90625 220.320312 Z M 249.195312 135.375 "/></g></g></svg>