<svg xmlns="http://www.w3.org/2000/svg" xmlns:xlink="http://www.w3.org/1999/xlink" width="1080" zoomAndPan="magnify" viewBox="0 0 810 809.999993" height="1080" preserveAspectRatio="xMidYMid meet" version="1.2"><g id="0b279eb99e"><path style=" stroke:none;fill-rule:nonzero;fill:#000000;fill-opacity:1;" d="M 405 554.863281 C 370.632812 554.863281 342.464844 583.050781 342.464844 617.4375 C 342.464844 651.828125 370.632812 680.015625 405 680.015625 C 439.367188 680.015625 467.535156 651.828125 467.535156 617.4375 C 467.535156 582.484375 439.367188 554.863281 405 554.863281 Z M 405 554.863281 "/><path style=" stroke:none;fill-rule:nonzero;fill:#000000;fill-opacity:1;" d="M 405 406.59375 C 347.535156 406.59375 293.453125 429.144531 252.890625 469.171875 C 236.550781 485.519531 236.550781 512.015625 252.890625 528.367188 C 260.777344 536.257812 271.480469 540.769531 282.75 540.769531 C 294.015625 540.769531 304.71875 536.257812 312.605469 528.367188 C 337.394531 503.558594 370.070312 490.03125 405 490.03125 C 439.929688 490.03125 473.167969 503.558594 497.957031 528.367188 C 505.84375 536.257812 516.546875 540.769531 527.816406 540.769531 C 539.082031 540.769531 549.785156 536.257812 557.671875 528.367188 C 574.011719 512.015625 574.011719 485.519531 557.671875 469.171875 C 516.546875 429.144531 462.464844 406.59375 405 406.59375 Z M 405 406.59375 "/><path style=" stroke:none;fill-rule:nonzero;fill:#000000;fill-opacity:1;" d="M 753.164062 274.675781 C 660.207031 181.660156 536.265625 130.355469 405 130.355469 C 273.734375 130.355469 149.792969 181.09375 56.835938 274.113281 C 40.5 290.460938 40.5 316.957031 56.835938 333.308594 C 64.726562 341.199219 75.429688 345.710938 86.695312 345.710938 C 97.964844 345.710938 108.667969 341.199219 116.554688 333.308594 C 193.171875 256.636719 295.707031 214.355469 405 214.355469 C 514.292969 214.355469 616.828125 256.636719 694.007812 333.871094 C 701.894531 341.761719 712.601562 346.273438 723.867188 346.273438 C 735.132812 346.273438 745.839844 341.761719 753.726562 333.871094 C 769.5 317.523438 769.5 291.027344 753.164062 274.675781 Z M 753.164062 274.675781 "/><path style=" stroke:none;fill-rule:nonzero;fill:#000000;fill-opacity:1;" d="M 405 271.859375 C 311.480469 271.859375 223.59375 307.9375 157.117188 373.898438 C 149.230469 381.789062 144.722656 392.5 144.722656 403.777344 C 144.722656 415.050781 149.230469 425.761719 157.117188 433.65625 C 165.003906 441.546875 175.707031 446.058594 186.976562 446.058594 C 198.242188 446.058594 208.949219 441.546875 216.835938 433.65625 C 266.972656 383.480469 334.015625 355.855469 405 355.855469 C 475.984375 355.855469 543.027344 383.480469 593.164062 433.65625 C 601.050781 441.546875 611.757812 446.058594 623.023438 446.058594 C 634.292969 446.058594 644.996094 441.546875 652.882812 433.65625 C 660.769531 425.761719 665.277344 415.050781 665.277344 403.777344 C 665.277344 392.5 660.769531 381.789062 652.882812 373.898438 C 586.40625 308.503906 498.519531 271.859375 405 271.859375 Z M 405 271.859375 "/><path style="fill:none;stroke-width:4;stroke-linecap:butt;stroke-linejoin:miter;stroke:#000000;stroke-opacity:1;stroke-miterlimit:4;" d="M -0.00206953 2.00045 L 345.602115 2.00045 " transform="matrix(0.75,0,0,0.75,275.39999,319.636382)"/></g></svg>