<svg xmlns="http://www.w3.org/2000/svg" xmlns:xlink="http://www.w3.org/1999/xlink" width="1080" zoomAndPan="magnify" viewBox="0 0 810 809.999993" height="1080" preserveAspectRatio="xMidYMid meet" version="1.2"><defs><clipPath id="1a5915ab46"><path d="M 25.925781 25.925781 L 763.925781 25.925781 L 763.925781 763.925781 L 25.925781 763.925781 Z M 25.925781 25.925781 "/></clipPath><clipPath id="5cd47a5ed5"><path d="M 128 175.15625 L 661 175.15625 L 661 614.65625 L 128 614.65625 Z M 128 175.15625 "/></clipPath></defs><g id="5557409081"><g clip-rule="nonzero" clip-path="url(#1a5915ab46)"><path style=" stroke:none;fill-rule:nonzero;fill:#0044a4;fill-opacity:1;" d="M 394.925781 25.925781 C 191.335938 25.925781 25.925781 191.335938 25.925781 394.925781 C 25.925781 598.519531 191.335938 763.925781 394.925781 763.925781 C 598.519531 763.925781 763.925781 598.519531 763.925781 394.925781 C 763.925781 191.335938 598.519531 25.925781 394.925781 25.925781 Z M 394.925781 41.972656 C 590.0625 41.972656 747.882812 199.789062 747.882812 394.925781 C 747.882812 590.0625 590.0625 747.882812 394.925781 747.882812 C 199.789062 747.882812 41.972656 590.0625 41.972656 394.925781 C 41.972656 199.789062 199.789062 41.972656 394.925781 41.972656 Z M 394.925781 41.972656 "/></g><g clip-rule="nonzero" clip-path="url(#5cd47a5ed5)"><path style=" stroke:none;fill-rule:nonzero;fill:#ca1c1c;fill-opacity:1;" d="M 221.949219 305.25 C 218.804688 311.335938 211.296875 313.753906 205.207031 310.613281 C 199.097656 307.46875 196.703125 299.960938 199.84375 293.847656 C 218.40625 258.050781 246.59375 228.015625 280.972656 207.109375 C 314.226562 186.902344 353.214844 175.25 394.828125 175.25 C 455.449219 175.25 510.355469 199.824219 550.070312 239.5625 C 587.214844 276.710938 611.089844 327.078125 614.058594 383.007812 L 639.503906 357.410156 C 644.34375 352.546875 652.203125 352.523438 657.089844 357.363281 C 661.957031 362.203125 661.980469 370.058594 657.140625 374.949219 L 610.367188 422 C 605.652344 426.988281 597.792969 427.238281 592.777344 422.523438 L 547.898438 380.460938 C 542.910156 375.746094 542.660156 367.890625 547.351562 362.875 C 552.066406 357.886719 559.925781 357.636719 564.9375 362.351562 L 589.210938 385.101562 C 586.765625 335.210938 565.539062 290.253906 532.433594 257.175781 C 497.234375 221.953125 448.5625 200.171875 394.800781 200.171875 C 357.757812 200.171875 323.179688 210.476562 293.792969 228.339844 C 263.359375 246.824219 238.410156 273.464844 221.921875 305.25 Z M 241.753906 409.152344 C 246.746094 413.867188 246.992188 421.722656 242.304688 426.738281 C 237.589844 431.726562 229.730469 431.976562 224.714844 427.261719 L 200.441406 404.511719 C 202.886719 454.40625 224.117188 499.359375 257.222656 532.4375 C 292.445312 567.664062 341.09375 589.441406 394.851562 589.441406 C 431.898438 589.441406 466.472656 579.136719 495.863281 561.277344 C 526.296875 542.789062 551.242188 516.148438 567.734375 484.367188 C 570.875 478.277344 578.386719 475.859375 584.472656 479.003906 C 590.585938 482.144531 592.980469 489.65625 589.835938 495.765625 C 571.273438 531.566406 543.085938 561.601562 508.710938 582.503906 C 475.457031 602.710938 436.464844 614.363281 394.851562 614.363281 C 334.230469 614.363281 279.324219 589.789062 239.609375 550.050781 C 202.464844 512.90625 178.589844 462.539062 175.621094 406.605469 L 150.175781 432.203125 C 145.335938 437.066406 137.476562 437.089844 132.589844 432.253906 C 127.722656 427.414062 127.699219 419.554688 132.539062 414.664062 L 179.3125 367.617188 C 184.027344 362.625 191.886719 362.375 196.902344 367.089844 L 241.78125 409.152344 Z M 241.753906 409.152344 "/></g></g></svg>