<svg xmlns="http://www.w3.org/2000/svg" xmlns:xlink="http://www.w3.org/1999/xlink" width="1080" zoomAndPan="magnify" viewBox="0 0 810 809.999993" height="1080" preserveAspectRatio="xMidYMid meet" version="1.2"><defs><clipPath id="4b29dfae54"><path d="M 25.925781 34.773438 L 751.925781 34.773438 L 751.925781 760.773438 L 25.925781 760.773438 Z M 25.925781 34.773438 "/></clipPath><clipPath id="dc2f321e95"><path d="M 122 136 L 645.664062 136 L 645.664062 660 L 122 660 Z M 122 136 "/></clipPath></defs><g id="c6d25e6f6c"><g clip-rule="nonzero" clip-path="url(#4b29dfae54)"><path style=" stroke:none;fill-rule:nonzero;fill:#0044a4;fill-opacity:1;" d="M 388.925781 34.773438 C 188.644531 34.773438 25.925781 197.492188 25.925781 397.773438 C 25.925781 598.054688 188.644531 760.773438 388.925781 760.773438 C 589.207031 760.773438 751.925781 598.054688 751.925781 397.773438 C 751.925781 197.492188 589.207031 34.773438 388.925781 34.773438 Z M 388.925781 50.554688 C 580.890625 50.554688 736.144531 205.808594 736.144531 397.773438 C 736.144531 589.738281 580.890625 744.988281 388.925781 744.988281 C 196.964844 744.988281 41.710938 589.738281 41.710938 397.773438 C 41.710938 205.808594 196.964844 50.554688 388.925781 50.554688 Z M 388.925781 50.554688 "/></g><path style=" stroke:none;fill-rule:nonzero;fill:#ca1c1c;fill-opacity:1;" d="M 394.328125 156.566406 L 374.101562 156.566406 L 374.101562 136.457031 L 394.210938 136.457031 L 394.328125 156.566406 "/><path style=" stroke:none;fill-rule:nonzero;fill:#ca1c1c;fill-opacity:1;" d="M 326.820312 162.886719 L 323.519531 143.054688 L 343.117188 139.796875 L 347.003906 159.039062 Z M 281.894531 178.476562 L 275.097656 159.550781 L 293.792969 152.875 L 301.058594 171.054688 L 291.359375 175.101562 Z M 242.976562 203.023438 L 230.410156 187.3125 L 239.636719 180.128906 L 248.316406 175.0625 L 258.449219 192.417969 L 250.28125 197.171875 Z M 208.0625 234.320312 L 192.355469 221.753906 L 199.894531 212.566406 L 207.394531 205.851562 L 220.828125 220.8125 L 213.875 227.058594 Z M 179.277344 271.867188 L 161.605469 262.242188 L 167.222656 252.152344 L 173.152344 244.023438 L 189.371094 255.882812 L 183.792969 263.578125 Z M 158.660156 314.199219 L 139.457031 308.308594 L 143.109375 296.960938 L 147.585938 287.96875 L 165.570312 296.960938 L 161.410156 305.324219 Z M 144.40625 361.324219 L 125.160156 355.433594 L 127.910156 346.441406 L 129.363281 337.132812 L 149.234375 340.199219 L 147.351562 351.742188 L 144.40625 361.324219 "/><path style=" stroke:none;fill-rule:nonzero;fill:#ca1c1c;fill-opacity:1;" d="M 142.992188 407.902344 L 122.882812 407.902344 L 122.882812 387.792969 L 142.992188 387.675781 L 142.992188 407.902344 "/><g clip-rule="nonzero" clip-path="url(#dc2f321e95)"><path style=" stroke:none;fill-rule:nonzero;fill:#ca1c1c;fill-opacity:1;" d="M 384.273438 659.238281 C 240.148438 659.238281 122.882812 541.972656 122.882812 397.847656 C 122.882812 392.3125 127.398438 387.792969 132.9375 387.792969 C 138.472656 387.792969 142.992188 392.3125 142.992188 397.847656 C 142.992188 530.898438 251.222656 639.132812 384.273438 639.132812 C 517.324219 639.132812 625.558594 530.898438 625.558594 397.847656 C 625.558594 264.796875 517.324219 156.566406 384.273438 156.566406 C 378.738281 156.566406 374.21875 152.046875 374.21875 146.511719 C 374.21875 140.972656 378.738281 136.457031 384.273438 136.457031 C 528.398438 136.457031 645.664062 253.722656 645.664062 397.847656 C 645.664062 541.972656 528.398438 659.238281 384.273438 659.238281 "/></g><path style=" stroke:none;fill-rule:nonzero;fill:#ca1c1c;fill-opacity:1;" d="M 173.152344 448.117188 C 170.558594 448.117188 168.007812 447.132812 166.042969 445.171875 L 132.9375 412.0625 L 99.832031 445.171875 C 95.902344 449.097656 89.542969 449.097656 85.613281 445.171875 C 81.6875 441.242188 81.6875 434.882812 85.613281 430.953125 L 125.828125 390.738281 C 129.757812 386.8125 136.117188 386.8125 140.046875 390.738281 L 180.257812 430.953125 C 184.1875 434.882812 184.1875 441.242188 180.257812 445.171875 C 178.296875 447.132812 175.742188 448.117188 173.152344 448.117188 "/><path style=" stroke:none;fill-rule:nonzero;fill:#ca1c1c;fill-opacity:1;" d="M 394.328125 247.046875 L 374.21875 247.046875 L 374.21875 186.726562 L 394.328125 186.726562 L 394.328125 247.046875 "/><path style=" stroke:none;fill-rule:nonzero;fill:#ca1c1c;fill-opacity:1;" d="M 394.328125 608.972656 L 374.21875 608.972656 L 374.21875 548.648438 L 394.328125 548.648438 L 394.328125 608.972656 "/><path style=" stroke:none;fill-rule:nonzero;fill:#ca1c1c;fill-opacity:1;" d="M 481.117188 585.722656 L 450.957031 533.492188 L 468.394531 523.4375 L 498.554688 575.667969 L 481.117188 585.722656 "/><path style=" stroke:none;fill-rule:nonzero;fill:#ca1c1c;fill-opacity:1;" d="M 562.09375 512.128906 L 509.863281 481.96875 L 519.917969 464.53125 L 572.148438 494.691406 L 562.09375 512.128906 "/><path style=" stroke:none;fill-rule:nonzero;fill:#ca1c1c;fill-opacity:1;" d="M 233.472656 407.902344 L 173.152344 407.902344 L 173.152344 387.792969 L 233.472656 387.792969 L 233.472656 407.902344 "/><path style=" stroke:none;fill-rule:nonzero;fill:#ca1c1c;fill-opacity:1;" d="M 535.078125 407.902344 L 535.078125 387.792969 L 595.398438 387.792969 L 595.398438 407.902344 L 535.078125 407.902344 "/><path style=" stroke:none;fill-rule:nonzero;fill:#ca1c1c;fill-opacity:1;" d="M 206.492188 512.089844 L 196.4375 494.691406 L 248.671875 464.53125 L 258.722656 481.96875 L 206.492188 512.089844 "/><path style=" stroke:none;fill-rule:nonzero;fill:#ca1c1c;fill-opacity:1;" d="M 519.917969 331.125 L 509.863281 313.730469 L 562.09375 283.570312 L 572.148438 300.964844 L 519.917969 331.125 "/><path style=" stroke:none;fill-rule:nonzero;fill:#ca1c1c;fill-opacity:1;" d="M 287.429688 585.683594 L 270.035156 575.628906 L 300.195312 523.398438 L 317.589844 533.453125 L 287.429688 585.683594 "/><path style=" stroke:none;fill-rule:nonzero;fill:#ca1c1c;fill-opacity:1;" d="M 468.394531 272.257812 L 450.996094 262.203125 L 481.15625 209.972656 L 498.554688 220.027344 L 468.394531 272.257812 "/><path style=" stroke:none;fill-rule:nonzero;fill:#ca1c1c;fill-opacity:1;" d="M 321.007812 475.332031 L 306.792969 461.113281 L 374.21875 393.683594 L 374.21875 277.207031 L 394.328125 277.207031 L 394.328125 397.847656 C 394.328125 400.519531 393.265625 403.070312 391.382812 404.957031 L 321.007812 475.332031 "/></g></svg>