<svg xmlns="http://www.w3.org/2000/svg" xmlns:xlink="http://www.w3.org/1999/xlink" width="1080" zoomAndPan="magnify" viewBox="0 0 810 809.999993" height="1080" preserveAspectRatio="xMidYMid meet" version="1.2"><defs><clipPath id="527677c2ea"><path d="M 25.925781 25.925781 L 764.675781 25.925781 L 764.675781 764.675781 L 25.925781 764.675781 Z M 25.925781 25.925781 "/></clipPath><clipPath id="63014fdc6b"><path d="M 197 175.363281 L 441 175.363281 L 441 511 L 197 511 Z M 197 175.363281 "/></clipPath></defs><g id="0cd3c7c68f"><g clip-rule="nonzero" clip-path="url(#527677c2ea)"><path style=" stroke:none;fill-rule:nonzero;fill:#0044a4;fill-opacity:1;" d="M 395.300781 25.925781 C 191.503906 25.925781 25.925781 191.503906 25.925781 395.300781 C 25.925781 599.101562 191.503906 764.675781 395.300781 764.675781 C 599.101562 764.675781 764.675781 599.101562 764.675781 395.300781 C 764.675781 191.503906 599.101562 25.925781 395.300781 25.925781 Z M 395.300781 41.988281 C 590.636719 41.988281 748.617188 199.96875 748.617188 395.300781 C 748.617188 590.636719 590.636719 748.617188 395.300781 748.617188 C 199.96875 748.617188 41.988281 590.636719 41.988281 395.300781 C 41.988281 199.96875 199.96875 41.988281 395.300781 41.988281 Z M 395.300781 41.988281 "/></g><path style=" stroke:none;fill-rule:nonzero;fill:#de3b21;fill-opacity:1;" d="M 564.355469 561.730469 C 516.386719 639.910156 457.617188 650.320312 401.871094 626.851562 C 402.195312 615.566406 403.070312 603.402344 404.730469 590.589844 C 415.621094 506.601562 522.679688 367.222656 523.957031 365.558594 C 522.664062 366.636719 414.242188 456.941406 377.601562 569.777344 C 372.953125 584.09375 369.84375 596.898438 367.972656 608.367188 C 309.90625 569.367188 282.429688 508.46875 335.796875 421.492188 C 391.414062 330.847656 576.890625 284.9375 576.890625 284.9375 C 576.890625 284.9375 619.976562 471.085938 564.355469 561.730469 Z M 564.355469 561.730469 "/><g clip-rule="nonzero" clip-path="url(#63014fdc6b)"><path style=" stroke:none;fill-rule:nonzero;fill:#ca1c1c;fill-opacity:1;" d="M 440.90625 315.976562 C 400.035156 335.324219 358.167969 361.039062 331.960938 393.070312 C 292.835938 331.882812 259.601562 266.332031 258.816406 264.425781 C 259.152344 266.441406 276.207031 339.347656 317.59375 414.054688 C 296.199219 450.789062 289.394531 482.769531 293.269531 510.324219 C 265.871094 500.828125 240.160156 478.132812 218.355469 437.558594 C 170.742188 348.960938 221.496094 175.535156 221.496094 175.535156 C 221.496094 175.535156 392.140625 228.300781 440.90625 315.976562 Z M 440.90625 315.976562 "/></g></g></svg>