<svg xmlns="http://www.w3.org/2000/svg" xmlns:xlink="http://www.w3.org/1999/xlink" width="1080" zoomAndPan="magnify" viewBox="0 0 810 809.999993" height="1080" preserveAspectRatio="xMidYMid meet" version="1.2"><defs><clipPath id="bf93b978dc"><path d="M 25.925781 25.925781 L 769.925781 25.925781 L 769.925781 769.925781 L 25.925781 769.925781 Z M 25.925781 25.925781 "/></clipPath><clipPath id="09a6892903"><path d="M 144 459 L 260 459 L 260 630.519531 L 144 630.519531 Z M 144 459 "/></clipPath><clipPath id="75675d3362"><path d="M 304 364 L 420 364 L 420 630.519531 L 304 630.519531 Z M 304 364 "/></clipPath><clipPath id="d54538c8e1"><path d="M 408 166 L 651 166 L 651 630.519531 L 408 630.519531 Z M 408 166 "/></clipPath></defs><g id="7cae83ec09"><g clip-rule="nonzero" clip-path="url(#bf93b978dc)"><path style=" stroke:none;fill-rule:nonzero;fill:#0044a4;fill-opacity:1;" d="M 397.925781 25.925781 C 192.679688 25.925781 25.925781 192.679688 25.925781 397.925781 C 25.925781 603.175781 192.679688 769.925781 397.925781 769.925781 C 603.175781 769.925781 769.925781 603.175781 769.925781 397.925781 C 769.925781 192.679688 603.175781 25.925781 397.925781 25.925781 Z M 397.925781 42.101562 C 594.652344 42.101562 753.753906 201.203125 753.753906 397.925781 C 753.753906 594.652344 594.652344 753.753906 397.925781 753.753906 C 201.203125 753.753906 42.101562 594.652344 42.101562 397.925781 C 42.101562 201.203125 201.203125 42.101562 397.925781 42.101562 Z M 397.925781 42.101562 "/></g><g clip-rule="nonzero" clip-path="url(#09a6892903)"><path style=" stroke:none;fill-rule:nonzero;fill:#ca1c1c;fill-opacity:1;" d="M 240.203125 459.941406 L 163.664062 459.941406 C 152.941406 459.941406 144.265625 468.621094 144.265625 479.339844 L 144.265625 611.007812 C 144.265625 621.734375 152.941406 630.410156 163.664062 630.410156 L 240.203125 630.410156 C 250.925781 630.410156 259.613281 621.734375 259.613281 611.007812 L 259.613281 479.339844 C 259.613281 468.625 250.925781 459.941406 240.203125 459.941406 Z M 240.203125 459.941406 "/></g><g clip-rule="nonzero" clip-path="url(#75675d3362)"><path style=" stroke:none;fill-rule:nonzero;fill:#ca1c1c;fill-opacity:1;" d="M 400.523438 364.367188 L 323.988281 364.367188 C 313.265625 364.367188 304.585938 373.050781 304.585938 383.773438 L 304.585938 611.015625 C 304.585938 621.742188 313.265625 630.417969 323.988281 630.417969 L 400.523438 630.417969 C 411.242188 630.417969 419.941406 621.742188 419.941406 611.015625 L 419.941406 383.765625 C 419.933594 373.050781 411.238281 364.367188 400.523438 364.367188 Z M 400.523438 364.367188 "/></g><g clip-rule="nonzero" clip-path="url(#d54538c8e1)"><path style=" stroke:none;fill-rule:nonzero;fill:#ca1c1c;fill-opacity:1;" d="M 648.277344 280.109375 C 647.894531 279.578125 647.464844 279.09375 646.980469 278.644531 C 610.648438 242.316406 574.3125 205.984375 537.984375 169.664062 C 533.515625 165.195312 526.070312 165.308594 521.632812 169.75 C 485.152344 206.238281 448.667969 242.734375 412.1875 279.222656 C 405.128906 286.289062 410.316406 298.917969 420.320312 298.917969 L 469.007812 298.917969 L 469.007812 611.015625 C 469.007812 621.742188 477.691406 630.417969 488.414062 630.417969 L 564.949219 630.417969 C 575.667969 630.417969 584.367188 621.742188 584.367188 611.015625 L 584.367188 298.914062 L 638.96875 298.914062 C 639.472656 298.90625 639.964844 298.867188 640.449219 298.789062 C 645.195312 298.359375 648.285156 295.503906 649.671875 291.890625 C 651.460938 288.292969 651.417969 283.917969 648.277344 280.109375 Z M 648.277344 280.109375 "/></g></g></svg>