<svg xmlns="http://www.w3.org/2000/svg" xmlns:xlink="http://www.w3.org/1999/xlink" width="1080" zoomAndPan="magnify" viewBox="0 0 810 809.999993" height="1080" preserveAspectRatio="xMidYMid meet" version="1.2"><defs><clipPath id="554c307319"><path d="M 101 145 L 723 145 L 723 727.246094 L 101 727.246094 Z M 101 145 "/></clipPath><clipPath id="818c8bc40b"><path d="M 0 437 L 339 437 L 339 810 L 0 810 Z M 0 437 "/></clipPath><clipPath id="d282bf9451"><path d="M -141.023438 551.972656 L -38.316406 437.878906 L 338.246094 776.859375 L 235.539062 890.953125 Z M -141.023438 551.972656 "/></clipPath><clipPath id="7a5974a1e1"><path d="M 495 0 L 810 0 L 810 349 L 495 349 Z M 495 0 "/></clipPath><clipPath id="7c2ecefa15"><path d="M 495.589844 -10.164062 L 604.140625 -118.714844 L 962.410156 239.554688 L 853.859375 348.105469 Z M 495.589844 -10.164062 "/></clipPath><clipPath id="b0d2d8c2b0"><path d="M 47.871094 32.726562 L 761.871094 32.726562 L 761.871094 746.726562 L 47.871094 746.726562 Z M 47.871094 32.726562 "/></clipPath></defs><g id="09669e7947"><path style=" stroke:none;fill-rule:nonzero;fill:#c1272d;fill-opacity:1;" d="M 111.292969 523.550781 C 111.292969 523.550781 111.777344 523.550781 111.292969 523.550781 C 205.382812 520.640625 289.285156 473.597656 350.875 404.246094 C 393.554688 356.230469 407.132812 291.242188 443.992188 239.835938 C 479.882812 189.882812 546.808594 148.171875 627.800781 125.863281 C 633.136719 124.410156 636.046875 119.074219 634.59375 113.738281 C 633.136719 108.40625 627.800781 105.496094 622.46875 106.949219 C 572.03125 120.53125 479.882812 154.964844 427.988281 228.195312 C 391.613281 279.121094 378.035156 344.105469 336.328125 391.152344 C 279.097656 455.652344 198.105469 499.789062 110.808594 504.152344 C 105.472656 504.636719 101.109375 509.003906 101.59375 514.335938 C 102.078125 519.671875 105.960938 523.550781 111.292969 523.550781 Z M 111.292969 523.550781 "/><path style=" stroke:none;fill-rule:nonzero;fill:#c1272d;fill-opacity:1;" d="M 703.460938 129.257812 C 704.429688 129.257812 705.886719 129.257812 706.855469 128.773438 C 709.765625 127.804688 712.675781 126.347656 715.585938 125.378906 C 720.433594 123.4375 723.34375 118.105469 721.40625 113.253906 C 719.464844 108.40625 714.128906 105.496094 709.28125 107.433594 C 706.371094 108.40625 702.976562 109.859375 700.066406 110.828125 C 695.214844 112.769531 692.304688 118.105469 694.246094 123.4375 C 696.183594 126.835938 699.582031 129.257812 703.460938 129.257812 Z M 703.460938 129.257812 "/><path style=" stroke:none;fill-rule:nonzero;fill:#c1272d;fill-opacity:1;" d="M 493.945312 335.378906 C 498.3125 335.378906 502.191406 332.46875 503.160156 328.101562 C 505.101562 321.796875 506.554688 315.976562 508.496094 310.160156 C 509.953125 304.824219 507.042969 299.488281 502.191406 298.035156 C 496.855469 296.578125 491.523438 299.488281 490.066406 304.339844 C 488.128906 310.644531 486.1875 316.949219 484.730469 322.769531 C 483.277344 328.101562 486.1875 333.4375 491.523438 334.894531 C 492.492188 335.378906 492.976562 335.378906 493.945312 335.378906 Z M 493.945312 335.378906 "/><path style=" stroke:none;fill-rule:nonzero;fill:#c1272d;fill-opacity:1;" d="M 525.472656 233.046875 C 523.53125 235.472656 515.769531 246.625 513.832031 249.535156 C 510.921875 253.898438 512.375 260.203125 517.226562 263.113281 C 521.589844 266.023438 527.894531 264.570312 530.804688 259.71875 C 532.746094 256.808594 539.535156 247.109375 540.992188 244.683594 C 544.386719 240.320312 543.414062 234.5 539.050781 231.105469 C 534.683594 228.195312 528.867188 228.679688 525.472656 233.046875 Z M 525.472656 233.046875 "/><path style=" stroke:none;fill-rule:nonzero;fill:#c1272d;fill-opacity:1;" d="M 480.851562 371.265625 C 476.003906 369.328125 470.183594 371.75 468.242188 377.085938 C 467.757812 378.542969 462.90625 390.179688 460.96875 394.546875 C 459.027344 399.394531 460.96875 405.214844 465.816406 407.15625 C 470.667969 409.09375 476.488281 407.15625 478.425781 402.304688 C 480.367188 397.941406 485.21875 385.816406 485.703125 384.359375 C 488.128906 379.027344 485.703125 373.207031 480.851562 371.265625 Z M 480.851562 371.265625 "/><path style=" stroke:none;fill-rule:nonzero;fill:#c1272d;fill-opacity:1;" d="M 626.347656 157.875 C 628.773438 162.238281 635.078125 163.691406 639.441406 161.269531 C 644.777344 157.875 650.113281 154.964844 655.929688 152.054688 C 660.78125 149.628906 662.238281 143.808594 659.8125 138.957031 C 657.386719 134.109375 651.566406 132.652344 646.71875 135.078125 C 640.898438 137.988281 635.078125 141.382812 629.742188 144.777344 C 624.894531 147.203125 623.4375 153.023438 626.347656 157.875 Z M 626.347656 157.875 "/><path style=" stroke:none;fill-rule:nonzero;fill:#c1272d;fill-opacity:1;" d="M 581.242188 177.273438 C 575.910156 181.152344 571.058594 185.515625 566.210938 189.882812 C 562.328125 193.277344 561.84375 199.582031 565.238281 203.460938 C 568.632812 207.339844 574.9375 207.828125 578.820312 204.433594 C 583.183594 200.550781 588.035156 196.671875 593.367188 192.792969 C 597.734375 189.398438 598.21875 183.578125 594.824219 179.210938 C 591.429688 174.847656 585.609375 174.363281 581.242188 177.273438 Z M 581.242188 177.273438 "/><path style=" stroke:none;fill-rule:nonzero;fill:#c1272d;fill-opacity:1;" d="M 195.679688 602.605469 C 190.347656 603.574219 183.558594 604.058594 176.765625 605.027344 C 171.433594 605.515625 167.550781 610.363281 168.523438 615.699219 C 169.007812 620.546875 174.34375 624.914062 179.191406 623.941406 C 185.980469 622.972656 192.773438 622.003906 198.105469 621.519531 C 203.441406 620.546875 207.320312 615.699219 206.351562 610.363281 C 206.351562 605.515625 201.015625 602.117188 195.679688 602.605469 Z M 195.679688 602.605469 "/><path style=" stroke:none;fill-rule:nonzero;fill:#c1272d;fill-opacity:1;" d="M 334.386719 551.679688 C 329.050781 555.074219 323.71875 558.46875 318.382812 561.378906 C 313.53125 564.289062 312.078125 570.109375 314.988281 574.476562 C 317.414062 578.839844 323.71875 580.78125 328.082031 577.871094 C 333.902344 574.476562 339.238281 571.078125 345.054688 567.683594 C 349.421875 564.773438 350.875 558.957031 347.964844 554.105469 C 345.054688 549.742188 338.75 548.769531 334.386719 551.679688 Z M 334.386719 551.679688 "/><path style=" stroke:none;fill-rule:nonzero;fill:#c1272d;fill-opacity:1;" d="M 267.945312 585.144531 C 262.125 587.085938 256.304688 589.507812 250.484375 590.964844 C 245.148438 592.417969 242.726562 597.753906 244.179688 603.089844 C 245.636719 607.9375 251.453125 610.847656 256.304688 609.394531 C 262.609375 607.453125 268.914062 605.515625 274.734375 603.089844 C 279.582031 601.148438 282.492188 595.8125 280.554688 590.480469 C 278.613281 586.113281 273.277344 583.203125 267.945312 585.144531 Z M 267.945312 585.144531 "/><path style=" stroke:none;fill-rule:nonzero;fill:#c1272d;fill-opacity:1;" d="M 391.128906 503.667969 C 386.765625 508.03125 382.402344 512.398438 378.035156 516.761719 C 374.15625 520.640625 374.15625 526.460938 377.550781 530.339844 C 380.945312 534.222656 387.25 534.222656 391.128906 530.828125 C 395.980469 526.460938 400.34375 521.613281 405.195312 516.761719 C 409.074219 512.882812 408.589844 506.578125 404.710938 503.183594 C 400.828125 499.789062 395.011719 499.789062 391.128906 503.667969 Z M 391.128906 503.667969 "/><path style=" stroke:none;fill-rule:nonzero;fill:#c1272d;fill-opacity:1;" d="M 435.75 444.5 C 432.355469 449.832031 428.957031 455.167969 425.5625 460.503906 C 422.652344 464.867188 423.625 471.171875 428.472656 474.082031 C 432.839844 476.992188 439.144531 476.023438 442.054688 471.171875 C 445.449219 465.839844 449.328125 460.019531 452.722656 454.683594 C 455.632812 450.320312 454.179688 444.015625 449.328125 441.589844 C 444.476562 438.195312 438.660156 440.132812 435.75 444.5 Z M 435.75 444.5 "/><path style=" stroke:none;fill-rule:nonzero;fill:#c1272d;fill-opacity:1;" d="M 111.292969 630.25 C 114.6875 630.25 118.082031 630.25 121.480469 630.25 C 126.8125 630.25 131.179688 625.398438 130.695312 620.0625 C 130.695312 614.730469 125.84375 610.363281 120.507812 610.847656 C 117.113281 610.847656 114.203125 610.847656 111.292969 610.847656 C 105.960938 610.847656 101.59375 615.214844 101.59375 620.546875 C 101.59375 625.882812 105.960938 630.25 111.292969 630.25 Z M 111.292969 630.25 "/><g clip-rule="nonzero" clip-path="url(#554c307319)"><path style=" stroke:none;fill-rule:nonzero;fill:#c1272d;fill-opacity:1;" d="M 721.40625 150.597656 C 718.980469 145.75 713.160156 143.808594 708.308594 146.234375 C 633.621094 182.609375 593.367188 253.898438 573 307.25 C 550.691406 365.445312 548.265625 428.496094 529.351562 487.664062 C 494.433594 597.753906 414.894531 672.925781 311.109375 693.296875 C 244.664062 704.449219 177.253906 705.421875 110.324219 707.84375 C 104.988281 707.84375 100.625 712.695312 101.109375 718.03125 C 101.109375 723.363281 105.472656 727.246094 110.808594 727.246094 C 110.808594 727.246094 110.808594 727.246094 111.292969 727.246094 C 179.191406 727.246094 248.058594 723.851562 314.988281 712.695312 C 426.050781 690.871094 510.921875 611.332031 547.78125 493.96875 C 566.210938 435.285156 569.121094 372.238281 590.945312 314.523438 C 609.859375 264.570312 647.203125 197.640625 716.554688 163.691406 C 721.890625 161.269531 723.828125 155.449219 721.40625 150.597656 Z M 721.40625 150.597656 "/></g><g clip-rule="nonzero" clip-path="url(#818c8bc40b)"><g clip-rule="nonzero" clip-path="url(#d282bf9451)"><path style=" stroke:none;fill-rule:nonzero;fill:#f9f9f9;fill-opacity:1;" d="M -141.023438 551.972656 L -38.316406 437.878906 L 338.285156 776.894531 L 235.578125 890.988281 Z M -141.023438 551.972656 "/></g></g><g clip-rule="nonzero" clip-path="url(#7a5974a1e1)"><g clip-rule="nonzero" clip-path="url(#7c2ecefa15)"><path style=" stroke:none;fill-rule:nonzero;fill:#f9f9f9;fill-opacity:1;" d="M 495.589844 -10.164062 L 604.140625 -118.714844 L 962.445312 239.589844 L 853.894531 348.140625 Z M 495.589844 -10.164062 "/></g></g><g clip-rule="nonzero" clip-path="url(#b0d2d8c2b0)"><path style=" stroke:none;fill-rule:nonzero;fill:#0044a4;fill-opacity:1;" d="M 404.871094 32.726562 C 207.898438 32.726562 47.871094 192.757812 47.871094 389.726562 C 47.871094 586.699219 207.898438 746.726562 404.871094 746.726562 C 601.839844 746.726562 761.871094 586.699219 761.871094 389.726562 C 761.871094 192.757812 601.839844 32.726562 404.871094 32.726562 Z M 404.871094 48.25 C 593.660156 48.25 746.347656 200.9375 746.347656 389.726562 C 746.347656 578.519531 593.660156 731.207031 404.871094 731.207031 C 216.078125 731.207031 63.394531 578.519531 63.394531 389.726562 C 63.394531 200.9375 216.078125 48.25 404.871094 48.25 Z M 404.871094 48.25 "/></g></g></svg>