<svg xmlns="http://www.w3.org/2000/svg" xmlns:xlink="http://www.w3.org/1999/xlink" width="1080" zoomAndPan="magnify" viewBox="0 0 810 809.999993" height="1080" preserveAspectRatio="xMidYMid meet" version="1.2"><defs><clipPath id="8013e05e19"><path d="M 25.925781 25.925781 L 770.675781 25.925781 L 770.675781 770.675781 L 25.925781 770.675781 Z M 25.925781 25.925781 "/></clipPath><clipPath id="772151de61"><path d="M 115.449219 115.449219 L 680.949219 115.449219 L 680.949219 680.949219 L 115.449219 680.949219 Z M 115.449219 115.449219 "/></clipPath></defs><g id="45c2f93f32"><g clip-rule="nonzero" clip-path="url(#8013e05e19)"><path style=" stroke:none;fill-rule:nonzero;fill:#0044a4;fill-opacity:1;" d="M 398.296875 25.925781 C 192.847656 25.925781 25.925781 192.847656 25.925781 398.296875 C 25.925781 603.746094 192.847656 770.664062 398.296875 770.664062 C 603.746094 770.664062 770.664062 603.746094 770.664062 398.296875 C 770.664062 192.847656 603.746094 25.925781 398.296875 25.925781 Z M 398.296875 42.117188 C 595.214844 42.117188 754.476562 201.378906 754.476562 398.296875 C 754.476562 595.214844 595.214844 754.476562 398.296875 754.476562 C 201.378906 754.476562 42.117188 595.214844 42.117188 398.296875 C 42.117188 201.378906 201.378906 42.117188 398.296875 42.117188 Z M 398.296875 42.117188 "/></g><g clip-rule="nonzero" clip-path="url(#772151de61)"><path style=" stroke:none;fill-rule:nonzero;fill:#ca1c1c;fill-opacity:1;" d="M 398.199219 115.449219 L 348.769531 149.410156 L 289.957031 136.984375 L 257.097656 187.238281 L 198.285156 198.285156 L 187.238281 257.097656 L 136.984375 289.957031 L 149.136719 348.773438 L 115.449219 398.199219 L 149.136719 447.898438 L 136.984375 506.4375 L 187.238281 539.296875 L 198.285156 598.113281 L 257.097656 609.433594 L 289.957031 659.410156 L 348.769531 647.261719 L 398.199219 680.949219 L 447.625 647.261719 L 506.4375 659.410156 L 539.296875 609.433594 L 598.109375 598.113281 L 609.15625 539.296875 L 659.410156 506.4375 L 647.261719 447.898438 L 680.949219 398.199219 L 647.261719 348.773438 L 659.410156 289.957031 L 609.15625 257.097656 L 598.109375 198.285156 L 539.296875 187.238281 L 506.4375 136.984375 L 447.625 149.410156 Z M 398.199219 203.808594 C 505.554688 203.808594 592.589844 290.839844 592.589844 398.199219 C 592.589844 505.554688 505.554688 592.589844 398.199219 592.589844 C 290.839844 592.589844 203.808594 505.554688 203.808594 398.199219 C 203.808594 290.839844 290.839844 203.808594 398.199219 203.808594 Z M 484.074219 309.285156 L 369.207031 431.886719 L 309.007812 378.316406 L 273.664062 417.804688 L 353.1875 488.492188 L 372.519531 505.609375 L 390.191406 486.832031 L 522.730469 345.457031 Z M 484.074219 309.285156 "/></g></g></svg>