<svg xmlns="http://www.w3.org/2000/svg" xmlns:xlink="http://www.w3.org/1999/xlink" width="1080" zoomAndPan="magnify" viewBox="0 0 810 809.999993" height="1080" preserveAspectRatio="xMidYMid meet" version="1.2"><defs><clipPath id="aa42d2be09"><path d="M 25.925781 25.925781 L 773.675781 25.925781 L 773.675781 773.675781 L 25.925781 773.675781 Z M 25.925781 25.925781 "/></clipPath><clipPath id="601db5b71b"><path d="M 504 476 L 640.101562 476 L 640.101562 594 L 504 594 Z M 504 476 "/></clipPath><clipPath id="65096f0fdb"><path d="M 174 194.820312 L 457 194.820312 L 457 605 L 174 605 Z M 174 194.820312 "/></clipPath></defs><g id="87877649c7"><g clip-rule="nonzero" clip-path="url(#aa42d2be09)"><path style=" stroke:none;fill-rule:nonzero;fill:#0044a4;fill-opacity:1;" d="M 399.800781 25.925781 C 193.519531 25.925781 25.925781 193.519531 25.925781 399.800781 C 25.925781 606.082031 193.519531 773.675781 399.800781 773.675781 C 606.082031 773.675781 773.675781 606.082031 773.675781 399.800781 C 773.675781 193.519531 606.082031 25.925781 399.800781 25.925781 Z M 399.800781 42.183594 C 597.515625 42.183594 757.421875 202.085938 757.421875 399.800781 C 757.421875 597.515625 597.515625 757.421875 399.800781 757.421875 C 202.085938 757.421875 42.183594 597.515625 42.183594 399.800781 C 42.183594 202.085938 202.085938 42.183594 399.800781 42.183594 Z M 399.800781 42.183594 "/></g><path style="fill:none;stroke-width:32.426998;stroke-linecap:round;stroke-linejoin:round;stroke:#930c16;stroke-opacity:1;stroke-miterlimit:4;" d="M 427.248481 192.840685 L 427.248481 323.591828 " transform="matrix(0.930964,0,0,0.931905,174.618012,194.927501)"/><g clip-rule="nonzero" clip-path="url(#601db5b71b)"><path style=" stroke:none;fill-rule:nonzero;fill:#930c16;fill-opacity:1;" d="M 504.644531 476.71875 L 572.371094 593.71875 L 640.101562 476.71875 Z M 504.644531 476.71875 "/></g><path style="fill:none;stroke-width:32.426998;stroke-linecap:round;stroke-linejoin:round;stroke:#930c16;stroke-opacity:1;stroke-miterlimit:10;" d="M 427.399534 131.260682 C 427.680661 111.668759 427.31142 105.138119 427.31142 105.138119 " transform="matrix(0.930964,0,0,0.931905,174.618012,194.927501)"/><path style="fill:none;stroke-width:32.426998;stroke-linecap:round;stroke-linejoin:round;stroke:#930c16;stroke-opacity:1;stroke-miterlimit:10;" d="M 427.550588 41.969468 C 427.831714 22.381737 427.189739 34.671749 427.189739 34.671749 " transform="matrix(0.930964,0,0,0.931905,174.618012,194.927501)"/><g clip-rule="nonzero" clip-path="url(#65096f0fdb)"><path style=" stroke:none;fill-rule:nonzero;fill:#c1272d;fill-opacity:1;" d="M 453.496094 443.785156 C 436.785156 334.964844 330.40625 204.742188 315.566406 195.226562 L 315.566406 194.925781 C 315.5 194.972656 315.40625 195.03125 315.332031 195.078125 C 315.257812 195.03125 315.175781 194.972656 315.101562 194.925781 L 315.101562 195.226562 C 300.261719 204.742188 193.878906 334.964844 177.160156 443.785156 C 159.324219 559.9375 238.492188 604.304688 315.101562 604.957031 L 315.101562 604.964844 C 315.175781 604.964844 315.257812 604.964844 315.332031 604.964844 C 315.40625 604.964844 315.492188 604.964844 315.566406 604.964844 L 315.566406 604.957031 C 392.175781 604.304688 471.34375 559.9375 453.496094 443.785156 Z M 453.496094 443.785156 "/></g><path style="fill:none;stroke-width:17.752001;stroke-linecap:round;stroke-linejoin:round;stroke:#ffffff;stroke-opacity:1;stroke-miterlimit:10;" d="M 97.75142 143.621953 C 97.75142 143.621953 50.950149 195.971872 45.369578 262.208834 " transform="matrix(0.930964,0,0,0.931905,174.618012,194.927501)"/><path style="fill:none;stroke-width:17.752001;stroke-linecap:round;stroke-linejoin:round;stroke:#ffffff;stroke-opacity:1;stroke-miterlimit:10;" d="M 42.398868 297.678848 C 41.668778 301.728013 41.631015 310.249703 43.351341 317.79054 " transform="matrix(0.930964,0,0,0.931905,174.618012,194.927501)"/><path style=" stroke:none;fill-rule:nonzero;fill:#930c16;fill-opacity:1;" d="M 453.496094 443.785156 C 448.648438 412.21875 436.246094 378.859375 420.738281 347.164062 C 420.941406 351.246094 421.042969 355.355469 421.042969 359.492188 C 421.042969 468.582031 349.714844 561.035156 251.039062 593 C 271.046875 601.003906 293.175781 604.78125 315.089844 604.964844 C 315.164062 604.964844 315.25 604.964844 315.324219 604.964844 C 315.398438 604.964844 315.480469 604.964844 315.558594 604.964844 L 315.558594 604.957031 C 392.175781 604.304688 471.34375 559.9375 453.496094 443.785156 Z M 453.496094 443.785156 "/></g></svg>