<svg xmlns="http://www.w3.org/2000/svg" xmlns:xlink="http://www.w3.org/1999/xlink" width="1080" zoomAndPan="magnify" viewBox="0 0 810 809.999993" height="1080" preserveAspectRatio="xMidYMid meet" version="1.2"><defs><clipPath id="c49445c8eb"><path d="M 25.925781 25.925781 L 771.425781 25.925781 L 771.425781 771.425781 L 25.925781 771.425781 Z M 25.925781 25.925781 "/></clipPath><clipPath id="48daac8302"><path d="M 136.785156 136.785156 L 660.285156 136.785156 L 660.285156 660.285156 L 136.785156 660.285156 Z M 136.785156 136.785156 "/></clipPath></defs><g id="605b884e2b"><g clip-rule="nonzero" clip-path="url(#c49445c8eb)"><path style=" stroke:none;fill-rule:nonzero;fill:#0044a4;fill-opacity:1;" d="M 398.554688 25.925781 C 192.960938 25.925781 25.925781 192.960938 25.925781 398.554688 C 25.925781 604.148438 192.960938 771.179688 398.554688 771.179688 C 604.148438 771.179688 771.179688 604.148438 771.179688 398.554688 C 771.179688 192.960938 604.148438 25.925781 398.554688 25.925781 Z M 398.554688 42.128906 C 595.609375 42.128906 754.980469 201.5 754.980469 398.554688 C 754.980469 595.609375 595.609375 754.980469 398.554688 754.980469 C 201.5 754.980469 42.128906 595.609375 42.128906 398.554688 C 42.128906 201.5 201.5 42.128906 398.554688 42.128906 Z M 398.554688 42.128906 "/></g><path style=" stroke:none;fill-rule:nonzero;fill:#ca1c1c;fill-opacity:1;" d="M 481.898438 434.65625 C 496.234375 401.429688 489.921875 361.417969 462.808594 334.308594 C 441.191406 312.695312 411.410156 304.363281 383.429688 309.160156 L 436.382812 362.109375 L 418.742188 418.636719 L 362.359375 436.414062 L 309.40625 383.460938 C 304.679688 411.511719 313.046875 441.332031 334.664062 462.949219 C 361.765625 490.058594 401.714844 496.3125 434.847656 481.882812 L 569.828125 616.859375 C 582.832031 629.867188 603.910156 629.84375 616.90625 616.804688 C 629.898438 603.761719 629.882812 582.640625 616.871094 569.632812 L 481.898438 434.65625 "/><g clip-rule="nonzero" clip-path="url(#48daac8302)"><path style=" stroke:none;fill-rule:nonzero;fill:#ca1c1c;fill-opacity:1;" d="M 599.039062 360.914062 C 593.742188 332.609375 582.699219 306.347656 567.015625 283.449219 L 602.117188 231.910156 L 565.285156 195.078125 L 513.746094 230.179688 C 490.851562 214.496094 464.59375 203.453125 436.28125 198.15625 L 424.640625 136.820312 L 372.554688 136.820312 L 360.917969 198.15625 C 332.601562 203.453125 306.347656 214.496094 283.449219 230.179688 L 231.910156 195.078125 L 195.078125 231.910156 L 230.179688 283.449219 C 214.496094 306.347656 203.453125 332.609375 198.160156 360.914062 L 136.820312 372.554688 L 136.820312 424.640625 L 198.160156 436.28125 C 203.453125 464.585938 214.496094 490.847656 230.179688 513.746094 L 195.078125 565.285156 L 231.910156 602.117188 L 283.449219 567.015625 C 306.347656 582.699219 332.601562 593.742188 360.914062 599.03125 L 372.554688 660.375 L 424.640625 660.375 L 436.28125 599.03125 C 450.945312 596.296875 465.027344 591.945312 478.40625 586.273438 L 431.71875 539.628906 C 421.066406 542.125 410.015625 543.578125 398.597656 543.578125 C 318.527344 543.578125 253.617188 478.671875 253.617188 398.597656 C 253.617188 318.523438 318.527344 253.617188 398.597656 253.617188 C 478.667969 253.617188 543.578125 318.523438 543.578125 398.597656 C 543.578125 410.023438 542.117188 421.09375 539.625 431.753906 L 586.285156 478.371094 C 591.953125 465.003906 596.296875 450.929688 599.039062 436.28125 L 660.375 424.640625 L 660.375 372.554688 L 599.039062 360.914062 "/></g></g></svg>