<svg xmlns="http://www.w3.org/2000/svg" xmlns:xlink="http://www.w3.org/1999/xlink" width="1080" zoomAndPan="magnify" viewBox="0 0 810 809.999993" height="1080" preserveAspectRatio="xMidYMid meet" version="1.2"><defs><clipPath id="130ec74b10"><path d="M 25.925781 25.925781 L 761.675781 25.925781 L 761.675781 761.675781 L 25.925781 761.675781 Z M 25.925781 25.925781 "/></clipPath><clipPath id="bb01e8ba92"><path d="M 348 160.691406 L 396 160.691406 L 396 162 L 348 162 Z M 348 160.691406 "/></clipPath><clipPath id="7b46114aa2"><path d="M 348 160.691406 L 568 160.691406 L 568 343 L 348 343 Z M 348 160.691406 "/></clipPath><clipPath id="d0d0f6f71a"><path d="M 368 390 L 612 390 L 612 626.441406 L 368 626.441406 Z M 368 390 "/></clipPath></defs><g id="ba8f18e856"><g clip-rule="nonzero" clip-path="url(#130ec74b10)"><path style=" stroke:none;fill-rule:nonzero;fill:#0044a4;fill-opacity:1;" d="M 393.671875 25.925781 C 190.773438 25.925781 25.925781 190.773438 25.925781 393.671875 C 25.925781 596.574219 190.773438 761.417969 393.671875 761.417969 C 596.574219 761.417969 761.417969 596.574219 761.417969 393.671875 C 761.417969 190.773438 596.574219 25.925781 393.671875 25.925781 Z M 393.671875 41.917969 C 588.148438 41.917969 745.429688 199.199219 745.429688 393.671875 C 745.429688 588.148438 588.148438 745.429688 393.671875 745.429688 C 199.199219 745.429688 41.917969 588.148438 41.917969 393.671875 C 41.917969 199.199219 199.199219 41.917969 393.671875 41.917969 Z M 393.671875 41.917969 "/></g><path style=" stroke:none;fill-rule:nonzero;fill:#ca1c1c;fill-opacity:1;" d="M 333.03125 162.183594 C 285.648438 164.832031 227.957031 290.03125 227.957031 290.03125 L 298.886719 291.996094 L 340.644531 342.144531 L 394.746094 237.921875 L 395.28125 237.378906 C 374.402344 203.375 350.234375 164.0625 348.523438 161.496094 C 343.183594 161.679688 337.988281 161.90625 333.03125 162.183594 "/><path style=" stroke:none;fill-rule:nonzero;fill:#ca1c1c;fill-opacity:1;" d="M 469.089844 162.183594 C 469.089844 162.183594 468.503906 162.164062 467.421875 162.125 C 467.96875 162.164062 468.507812 162.203125 469.035156 162.242188 L 469.089844 162.183594 "/><g clip-rule="nonzero" clip-path="url(#bb01e8ba92)"><path style=" stroke:none;fill-rule:nonzero;fill:#ca1c1c;fill-opacity:1;" d="M 348.5625 161.5 C 349.410156 161.480469 370.0625 161 395.105469 160.84375 C 379.65625 160.820312 363.527344 160.988281 348.5625 161.5 "/></g><g clip-rule="nonzero" clip-path="url(#7b46114aa2)"><path style=" stroke:none;fill-rule:nonzero;fill:#de3b21;fill-opacity:1;" d="M 517.296875 240.113281 C 517.296875 240.113281 506.636719 165.492188 471.609375 162.445312 C 470.785156 162.375 469.917969 162.308594 469.035156 162.242188 C 468.507812 162.203125 467.972656 162.164062 467.421875 162.125 C 449.019531 160.859375 419.917969 160.691406 395.105469 160.839844 C 370.0625 160.992188 349.410156 161.476562 348.5625 161.496094 L 348.519531 161.5 L 348.523438 161.5 C 350.234375 164.066406 374.402344 203.375 395.28125 237.382812 C 411.605469 263.972656 425.925781 287.324219 425.925781 287.324219 L 360.441406 326.917969 L 520.34375 342.144531 L 567.550781 212.699219 L 517.296875 240.113281 "/></g><path style=" stroke:none;fill-rule:nonzero;fill:#ca1c1c;fill-opacity:1;" d="M 354.183594 518.933594 L 381.191406 460.554688 L 263.847656 464.953125 L 263.113281 464.757812 C 243.847656 499.703125 221.59375 540.125 220.203125 542.882812 C 223 547.433594 225.761719 551.839844 228.449219 556.015625 C 254.144531 595.910156 391.503906 584.277344 391.503906 584.277344 L 354.183594 518.933594 "/><path style=" stroke:none;fill-rule:nonzero;fill:#ca1c1c;fill-opacity:1;" d="M 161.28125 437.691406 C 161.28125 437.691406 161.550781 438.210938 162.054688 439.167969 C 161.816406 438.675781 161.582031 438.191406 161.359375 437.714844 L 161.28125 437.691406 "/><path style=" stroke:none;fill-rule:nonzero;fill:#ca1c1c;fill-opacity:1;" d="M 220.183594 542.851562 C 219.777344 542.167969 209.148438 524.425781 196.636719 502.691406 C 204.242188 516.136719 212.351562 530.082031 220.183594 542.851562 "/><path style=" stroke:none;fill-rule:nonzero;fill:#de3b21;fill-opacity:1;" d="M 291.414062 413.453125 L 358.175781 450.851562 L 292.480469 304.28125 L 156.609375 327.128906 L 205.253906 357.296875 C 205.253906 357.296875 145.625 403.40625 160.265625 435.371094 C 160.609375 436.121094 160.980469 436.910156 161.359375 437.714844 C 161.582031 438.191406 161.816406 438.675781 162.054688 439.167969 C 170.035156 455.792969 184.253906 481.1875 196.636719 502.691406 C 209.148438 524.425781 219.777344 542.167969 220.183594 542.851562 L 220.203125 542.882812 C 221.59375 540.125 243.847656 499.703125 263.113281 464.757812 C 278.179688 437.433594 291.414062 413.453125 291.414062 413.453125 "/><path style=" stroke:none;fill-rule:nonzero;fill:#ca1c1c;fill-opacity:1;" d="M 564.449219 296.0625 L 528.074219 352.363281 L 461.402344 365.316406 L 522.382812 465.664062 L 522.570312 466.402344 C 562.480469 466.214844 608.621094 465.96875 611.699219 465.835938 C 614.316406 461.179688 616.820312 456.625 619.15625 452.242188 C 641.492188 410.375 564.449219 296.0625 564.449219 296.0625 "/><path style=" stroke:none;fill-rule:nonzero;fill:#ca1c1c;fill-opacity:1;" d="M 611.683594 465.871094 C 611.296875 466.542969 600.976562 484.46875 588.078125 505.988281 C 596.117188 492.800781 604.351562 478.925781 611.683594 465.871094 "/><path style=" stroke:none;fill-rule:nonzero;fill:#ca1c1c;fill-opacity:1;" d="M 548.519531 568.527344 C 548.519531 568.527344 548.84375 568.035156 549.4375 567.128906 C 549.121094 567.578125 548.804688 568.015625 548.5 568.449219 L 548.519531 568.527344 "/><g clip-rule="nonzero" clip-path="url(#d0d0f6f71a)"><path style=" stroke:none;fill-rule:nonzero;fill:#de3b21;fill-opacity:1;" d="M 463.980469 466.664062 L 464.140625 390.140625 L 368.105469 518.890625 L 454.222656 626.445312 L 456.886719 569.265625 C 456.886719 569.265625 526.195312 598.894531 546.984375 570.542969 C 547.476562 569.871094 547.984375 569.171875 548.5 568.449219 C 548.808594 568.019531 549.121094 567.578125 549.433594 567.128906 C 560.070312 552.0625 575.328125 527.277344 588.082031 505.988281 C 600.972656 484.46875 611.296875 466.542969 611.6875 465.871094 L 611.707031 465.835938 L 611.703125 465.835938 C 608.621094 465.96875 562.476562 466.210938 522.574219 466.402344 C 491.371094 466.550781 463.980469 466.664062 463.980469 466.664062 "/></g></g></svg>