<svg xmlns="http://www.w3.org/2000/svg" xmlns:xlink="http://www.w3.org/1999/xlink" width="1200" zoomAndPan="magnify" viewBox="0 0 900 899.99999" height="1200" preserveAspectRatio="xMidYMid meet" version="1.0"><defs><clipPath id="13f2489152"><path d="M 216 48.613281 L 733 48.613281 L 733 836 L 216 836 Z M 216 48.613281 " clip-rule="nonzero"/></clipPath><clipPath id="f29c2f61f9"><rect x="0" width="517" y="0" height="788"/></clipPath><clipPath id="c1f0ed13fc"><path d="M 19.546875 630 L 23.296875 630 L 23.296875 900 L 19.546875 900 Z M 19.546875 630 " clip-rule="nonzero"/></clipPath><clipPath id="2921f234b6"><path d="M 0.546875 0 L 4.296875 0 L 4.296875 270 L 0.546875 270 Z M 0.546875 0 " clip-rule="nonzero"/></clipPath><clipPath id="8493e71d23"><rect x="0" width="5" y="0" height="270"/></clipPath></defs><g clip-path="url(#13f2489152)"><g transform="matrix(1, 0, 0, 1, 216, 48)"><g clip-path="url(#f29c2f61f9)"><path fill="#14427c" d="M 395.820312 745.304688 C 395.820312 745.304688 300.167969 706.867188 386.210938 602.042969 C 472.695312 495.90625 496.28125 440.871094 431.636719 265.285156 C 431.636719 265.285156 522.488281 373.605469 513.75 505.515625 C 504.578125 639.167969 343.410156 618.640625 395.820312 745.304688 Z M 395.820312 745.304688 " fill-opacity="1" fill-rule="nonzero"/><path fill="#14427c" d="M 203.640625 674.984375 C 178.742188 562.730469 295.800781 543.078125 314.144531 422.527344 C 331.617188 307.652344 287.5 251.746094 244.257812 188.414062 C 244.257812 188.414062 286.191406 273.148438 247.753906 360.503906 C 206.695312 454.410156 111.914062 471.882812 136.8125 615.144531 C 136.8125 615.144531 73.480469 551.8125 116.285156 462.273438 C 159.085938 372.734375 173.5 364.433594 155.59375 270.964844 C 137.6875 177.492188 162.582031 121.585938 176.121094 104.988281 C 176.121094 104.988281 154.71875 154.34375 171.316406 208.941406 C 190.972656 273.148438 217.179688 296.734375 213.683594 340.847656 C 213.683594 340.847656 234.652344 311.585938 213.25 219.859375 C 191.847656 127.699219 245.570312 29.863281 313.707031 1.035156 C 313.707031 1.035156 251.246094 55.195312 275.269531 132.503906 C 322.007812 280.574219 424.210938 328.617188 356.511719 465.765625 C 356.511719 465.765625 394.074219 439.5625 403.683594 373.171875 C 412.417969 309.402344 396.257812 279.261719 396.257812 279.261719 C 438.1875 330.804688 427.269531 448.734375 403.246094 498.960938 C 373.109375 562.296875 231.15625 719.972656 403.246094 786.800781 C 403.246094 787.238281 226.351562 777.628906 203.640625 674.984375 Z M 203.640625 674.984375 " fill-opacity="1" fill-rule="nonzero"/><path fill="#14427c" d="M 115.847656 326.433594 C -33.96875 705.558594 284.878906 780.683594 284.878906 780.683594 C 284.878906 780.683594 101.871094 802.960938 23.6875 659.695312 C -54.496094 516.433594 115.847656 326.433594 115.847656 326.433594 Z M 115.847656 326.433594 " fill-opacity="1" fill-rule="nonzero"/></g></g></g><g clip-path="url(#c1f0ed13fc)"><g transform="matrix(1, 0, 0, 1, 19, 630)"><g clip-path="url(#8493e71d23)"><g clip-path="url(#2921f234b6)"><path fill="white" d="M 0.546875 0 L 4.296875 0 L 4.296875 270 L 0.546875 270 Z M 0.546875 0 " fill-opacity="1" fill-rule="nonzero"/></g></g></g></g></svg>