<?xml version="1.0" standalone="no"?>
<!DOCTYPE svg PUBLIC "-//W3C//DTD SVG 20010904//EN"
 "http://www.w3.org/TR/2001/REC-SVG-20010904/DTD/svg10.dtd">
<svg version="1.0" xmlns="http://www.w3.org/2000/svg"
 width="1974.000000pt" height="193.000000pt" viewBox="0 0 1974.000000 193.000000"
 preserveAspectRatio="xMidYMid meet">

<g transform="translate(0.000000,193.000000) scale(0.100000,-0.100000)"
fill="#000000" stroke="none">
<path d="M10 970 l0 -960 840 0 840 0 0 665 0 665 -475 0 -475 0 0 295 0 295
-365 0 -365 0 0 -960z"/>
<path d="M7460 1780 l0 -150 -632 -2 c-348 0 -617 -3 -598 -5 696 -73 1080
-243 1080 -477 0 -46 -5 -61 -33 -98 -160 -209 -552 -331 -1175 -366 l-123 -7
738 -332 738 -332 3 810 2 809 470 0 470 0 2 -806 3 -807 795 804 795 804
-797 3 -798 2 0 150 0 150 -470 0 -470 0 0 -150z"/>
<path d="M3690 1605 l0 -255 -530 0 -530 0 0 -670 0 -670 595 0 595 0 0 925 0
925 -65 0 -65 0 0 -255z"/>
<path d="M11100 1393 c129 -131 491 -496 805 -810 l570 -573 250 0 250 1 -115
29 c-125 32 -250 78 -317 117 l-43 25 0 169 c0 93 2 169 4 169 3 0 20 -9 38
-19 116 -69 429 -181 630 -225 219 -49 316 -59 568 -59 194 0 255 4 350 21
313 57 431 144 376 277 -10 24 -28 41 -63 58 -143 72 -358 106 -823 132 -151
8 -329 22 -394 30 -416 51 -678 161 -772 321 -23 38 -26 54 -22 107 5 86 38
149 119 229 55 55 90 78 181 122 62 30 158 69 213 85 l100 30 -1070 0 -1070 1
235 -237z"/>
<path d="M14822 1615 c79 -16 249 -73 342 -115 l66 -29 0 -177 c0 -163 -1
-176 -17 -171 -10 3 -63 22 -118 42 -179 66 -423 122 -700 160 -152 22 -582
31 -712 16 -111 -13 -235 -44 -271 -67 -88 -57 -79 -195 15 -242 69 -35 133
-45 468 -72 283 -24 838 -108 1018 -155 189 -49 320 -111 402 -190 57 -56 75
-97 75 -174 0 -184 -149 -327 -412 -396 -51 -13 -104 -26 -118 -28 -14 -2 342
-5 790 -5 744 0 809 1 745 14 -172 37 -435 152 -607 267 -344 229 -448 555
-265 829 153 229 451 411 792 483 l110 24 -835 -1 c-723 0 -826 -2 -768 -13z"/>
<path d="M18415 1614 c294 -52 526 -166 706 -344 90 -89 112 -118 147 -190 66
-135 72 -234 22 -360 -54 -136 -211 -314 -375 -426 -160 -109 -374 -205 -577
-258 l-93 -25 703 -1 702 0 0 810 0 810 -657 -1 c-602 -1 -651 -2 -578 -15z"/>
<path d="M17201 1350 c-213 -21 -414 -73 -540 -140 -139 -75 -264 -197 -296
-289 -8 -25 -15 -72 -15 -105 0 -155 153 -326 371 -416 83 -35 241 -75 359
-91 114 -16 462 -16 580 0 413 57 696 256 708 498 4 64 1 80 -25 135 -113 239
-460 394 -926 412 -67 2 -164 1 -216 -4z"/>
<path d="M4760 1110 l0 -210 643 0 c696 0 723 2 830 55 102 51 138 108 117
187 -16 60 -80 119 -161 149 l-64 23 -682 4 -683 3 0 -211z"/>
<path d="M10230 925 l-205 -205 300 1 c165 1 346 4 403 8 l102 6 -197 197
-198 198 -205 -205z"/>
<path d="M4760 359 l0 -349 773 1 c595 0 766 3 747 12 -14 6 -361 163 -772
348 l-748 337 0 -349z"/>
<path d="M9526 225 l-208 -215 1119 0 1118 0 -215 215 -215 215 -696 0 -695 0
-208 -215z"/>
</g>
</svg>
