<?xml version="1.0" standalone="no"?>
<!DOCTYPE svg PUBLIC "-//W3C//DTD SVG 20010904//EN"
 "http://www.w3.org/TR/2001/REC-SVG-20010904/DTD/svg10.dtd">
<svg version="1.0" xmlns="http://www.w3.org/2000/svg"
 width="2457.000000pt" height="193.000000pt" viewBox="0 0 2457.000000 193.000000"
 preserveAspectRatio="xMidYMid meet">

<g transform="translate(0.000000,193.000000) scale(0.100000,-0.100000)"
fill="#000000" stroke="none">
<path d="M10 970 l0 -960 840 0 840 0 0 665 0 665 -475 0 -475 0 0 295 0 295
-365 0 -365 0 0 -960z"/>
<path d="M7460 1780 l0 -150 -632 -2 c-348 0 -617 -3 -598 -5 696 -73 1080
-243 1080 -477 0 -46 -5 -61 -33 -98 -160 -209 -552 -331 -1175 -366 l-123 -7
738 -332 738 -332 3 810 2 809 470 0 470 0 2 -806 3 -807 795 804 795 804
-797 3 -798 2 0 150 0 150 -470 0 -470 0 0 -150z"/>
<path d="M23115 1915 c-85 -8 -195 -24 -255 -39 -113 -28 -238 -70 -254 -86
-7 -7 272 -10 787 -10 438 0 797 2 797 6 0 8 -127 65 -168 75 -99 24 -182 40
-227 45 -291 27 -437 29 -680 9z"/>
<path d="M19830 1383 c0 -280 5 -548 10 -598 49 -435 309 -677 810 -757 114
-18 584 -18 700 0 450 70 697 265 792 625 21 79 22 106 25 660 l4 577 -290 0
-291 0 0 -515 c0 -342 -4 -532 -11 -567 -33 -157 -137 -248 -324 -283 -99 -19
-401 -19 -507 -1 -194 35 -300 134 -328 306 -6 38 -10 271 -10 563 l0 497
-290 0 -290 0 0 -507z m370 237 c14 0 35 -3 48 -6 23 -7 23 -7 -13 -44 -37
-37 -37 -39 -27 -86 6 -27 9 -50 8 -52 -2 -2 -24 7 -50 20 l-46 22 -46 -22
-46 -23 6 53 c7 52 6 54 -29 88 -31 30 -33 35 -18 42 10 3 33 7 50 7 29 1 36
7 59 53 l27 53 25 -53 c21 -42 31 -52 52 -52z m1760 0 c14 0 35 -3 48 -6 23
-7 23 -7 -13 -44 -36 -37 -36 -38 -27 -89 5 -28 8 -51 6 -51 -2 0 -24 10 -49
22 l-45 22 -46 -22 -46 -23 6 53 c7 52 6 54 -29 88 -31 30 -33 35 -18 42 10 3
33 7 50 7 29 1 36 7 59 53 l27 53 25 -53 c21 -42 31 -52 52 -52z m-1782 -397
c9 -7 30 -13 47 -13 47 0 49 -10 10 -50 -34 -35 -35 -37 -26 -85 5 -28 8 -52
6 -53 -2 -2 -23 7 -46 21 l-42 26 -50 -25 -50 -26 7 54 c7 51 6 54 -28 87 -39
38 -38 51 2 51 52 0 69 11 91 58 l23 47 20 -40 c11 -22 27 -46 36 -52z m1760
0 c9 -7 30 -13 47 -13 47 0 49 -10 10 -50 -34 -35 -35 -37 -26 -85 5 -28 8
-52 6 -53 -2 -2 -23 7 -46 21 l-42 26 -50 -25 -50 -26 7 54 c7 51 6 54 -28 87
-39 38 -38 51 2 51 52 0 69 11 91 58 l23 47 20 -40 c11 -22 27 -46 36 -52z
m-1790 -368 c20 -42 24 -45 72 -51 27 -4 50 -10 50 -13 0 -4 -16 -22 -35 -41
-36 -35 -38 -51 -18 -123 4 -16 -1 -15 -46 8 l-51 25 -40 -20 c-21 -11 -42
-20 -45 -20 -4 0 -3 24 0 53 7 52 6 54 -29 81 -20 15 -36 31 -36 35 0 5 23 11
50 15 48 6 52 9 72 51 12 25 25 45 28 45 3 0 16 -20 28 -45z m1760 0 c20 -42
24 -45 72 -51 27 -4 50 -10 50 -13 0 -4 -16 -22 -35 -41 -36 -35 -38 -51 -18
-123 4 -16 -1 -15 -46 8 l-51 25 -40 -20 c-21 -11 -42 -20 -46 -20 -3 0 -3 24
0 53 7 53 6 54 -28 81 -20 15 -36 31 -36 35 0 5 23 11 50 15 48 6 52 9 72 51
12 25 25 45 28 45 3 0 16 -20 28 -45z m-1470 -360 c20 -42 24 -45 72 -51 27
-4 50 -10 50 -13 0 -4 -16 -22 -35 -41 -33 -32 -35 -37 -29 -82 4 -26 4 -48 0
-48 -4 0 -25 9 -46 20 l-40 20 -40 -20 c-21 -11 -42 -20 -46 -20 -4 0 -4 23 0
50 6 48 5 51 -29 81 -19 17 -35 35 -35 39 0 4 23 10 50 14 48 6 52 9 72 51 12
25 25 45 28 45 3 0 16 -20 28 -45z m1180 0 c20 -42 24 -45 72 -51 27 -4 50
-10 50 -13 0 -4 -16 -23 -35 -41 -25 -24 -34 -41 -31 -55 2 -11 7 -35 11 -53
l7 -33 -51 26 -51 25 -40 -20 c-21 -11 -42 -20 -46 -20 -3 0 -3 23 1 51 7 49
6 52 -30 89 l-37 37 55 7 c54 7 55 8 72 52 9 24 20 44 24 44 4 0 17 -20 29
-45z m-591 -109 c20 -41 25 -44 72 -51 28 -4 51 -11 51 -15 0 -5 -16 -22 -36
-38 -35 -29 -35 -30 -26 -81 11 -58 7 -61 -48 -30 l-37 21 -41 -21 c-23 -12
-44 -21 -48 -21 -4 0 -4 23 0 52 7 49 6 52 -29 88 l-37 38 52 7 c48 7 52 10
73 51 11 24 24 44 27 44 3 0 16 -20 27 -44z"/>
<path d="M3690 1605 l0 -255 -530 0 -530 0 0 -670 0 -670 595 0 595 0 0 925 0
925 -65 0 -65 0 0 -255z"/>
<path d="M22464 1701 c-44 -32 -83 -73 -109 -113 l-17 -28 1056 0 1057 0 -23
33 c-36 51 -91 107 -120 123 -23 12 -168 14 -916 14 l-889 0 -39 -29z"/>
<path d="M11100 1393 c129 -131 491 -496 805 -810 l570 -573 250 0 250 1 -115
29 c-125 32 -250 78 -317 117 l-43 25 0 169 c0 93 2 169 4 169 3 0 20 -9 38
-19 116 -69 429 -181 630 -225 219 -49 316 -59 568 -59 194 0 255 4 350 21
313 57 431 144 376 277 -10 24 -28 41 -63 58 -143 72 -358 106 -823 132 -151
8 -329 22 -394 30 -416 51 -678 161 -772 321 -23 38 -26 54 -22 107 5 86 38
149 119 229 55 55 90 78 181 122 62 30 158 69 213 85 l100 30 -1070 0 -1070 1
235 -237z"/>
<path d="M14822 1615 c79 -16 249 -73 342 -115 l66 -29 0 -177 c0 -163 -1
-176 -17 -171 -10 3 -63 22 -118 42 -179 66 -423 122 -700 160 -152 22 -582
31 -712 16 -111 -13 -235 -44 -271 -67 -88 -57 -79 -195 15 -242 69 -35 133
-45 468 -72 283 -24 838 -108 1018 -155 189 -49 320 -111 402 -190 57 -56 75
-97 75 -174 0 -184 -149 -327 -412 -396 -51 -13 -104 -26 -118 -28 -14 -2 342
-5 790 -5 744 0 809 1 745 14 -172 37 -435 152 -607 267 -344 229 -448 555
-265 829 153 229 451 411 792 483 l110 24 -835 -1 c-723 0 -826 -2 -768 -13z"/>
<path d="M18415 1614 c294 -52 526 -166 706 -344 90 -89 112 -118 147 -190 66
-135 72 -234 22 -360 -54 -136 -211 -314 -375 -426 -160 -109 -374 -205 -577
-258 l-93 -25 703 -1 702 0 0 810 0 810 -657 -1 c-602 -1 -651 -2 -578 -15z"/>
<path d="M22312 1493 c-5 -10 -12 -36 -16 -58 -4 -22 -9 -52 -12 -67 l-6 -28
281 0 281 0 0 24 c0 44 43 82 112 99 148 37 576 46 773 17 89 -14 193 -64 220
-107 l20 -32 278 -1 c152 0 277 3 277 7 0 20 -34 140 -42 151 -8 9 -237 12
-1084 12 -1012 0 -1074 -1 -1082 -17z"/>
<path d="M17201 1350 c-337 -33 -579 -127 -736 -287 -162 -163 -155 -338 19
-509 122 -119 318 -203 558 -238 229 -33 524 -29 718 10 283 57 491 187 576
360 34 69 36 78 32 147 -15 239 -278 423 -708 496 -140 24 -333 33 -459 21z"/>
<path d="M4760 1110 l0 -210 643 0 c696 0 723 2 830 55 102 51 138 108 117
187 -16 60 -80 119 -161 149 l-64 23 -682 4 -683 3 0 -211z"/>
<path d="M22292 1239 c3 -25 13 -63 24 -85 l19 -39 830 -2 c706 -1 825 0 795
12 -19 7 -53 14 -75 14 -22 1 -78 8 -125 16 -47 8 -128 18 -180 21 -52 3 -209
17 -348 30 -234 23 -316 38 -348 65 -7 6 -121 11 -304 12 l-292 2 4 -46z"/>
<path d="M23968 1279 c-5 -4 -3 -13 7 -23 15 -14 46 -16 278 -14 244 3 262 4
262 21 0 16 -18 18 -268 20 -148 1 -273 -1 -279 -4z"/>
<path d="M10230 925 l-205 -205 300 1 c165 1 346 4 403 8 l102 6 -197 197
-198 198 -205 -205z"/>
<path d="M22396 1032 c46 -44 137 -109 179 -126 33 -14 144 -16 961 -16 553 0
924 4 924 9 0 23 -129 107 -213 139 l-59 22 -911 0 -911 0 30 -28z"/>
<path d="M22870 820 c80 -18 277 -40 585 -65 350 -29 484 -49 500 -76 4 -5
131 -9 306 -9 232 0 299 3 299 13 0 20 -21 90 -37 125 l-15 32 -857 -1 c-839
-1 -855 -1 -781 -19z"/>
<path d="M4760 359 l0 -349 773 1 c595 0 766 3 747 12 -14 6 -361 163 -772
348 l-748 337 0 -349z"/>
<path d="M22266 694 c-3 -8 -6 -18 -6 -20 0 -2 124 -4 276 -4 257 0 275 1 272
18 -3 16 -25 17 -270 20 -236 2 -266 1 -272 -14z"/>
<path d="M22271 588 c0 -18 8 -55 18 -83 l18 -50 1113 0 1113 0 13 55 c7 30
13 67 14 83 l0 27 -282 -2 -283 -3 -3 -30 c-4 -37 -45 -81 -86 -94 -87 -26
-241 -33 -571 -28 -187 3 -354 9 -372 15 -43 14 -98 59 -128 105 l-25 37 -270
0 -270 0 1 -32z"/>
<path d="M9526 225 l-208 -215 1119 0 1118 0 -215 215 -215 215 -696 0 -695 0
-208 -215z"/>
<path d="M22340 393 c0 -12 30 -54 79 -111 l44 -52 943 0 942 0 55 45 c48 39
97 99 97 119 0 3 -486 6 -1080 6 -594 0 -1080 -3 -1080 -7z"/>
<path d="M22584 169 c-9 -15 150 -79 257 -103 278 -62 837 -62 1104 0 139 32
295 87 295 103 0 8 -1651 8 -1656 0z"/>
</g>
</svg>
