<svg xmlns="http://www.w3.org/2000/svg" xmlns:xlink="http://www.w3.org/1999/xlink" width="1200" zoomAndPan="magnify" viewBox="0 0 900 899.99999" height="1200" preserveAspectRatio="xMidYMid meet" version="1.2"><defs><clipPath id="f2ac3cae40"><path d="M 81.058594 102.734375 L 777 102.734375 L 777 797.234375 L 81.058594 797.234375 Z M 81.058594 102.734375 "/></clipPath></defs><g id="4e48c24298"><path style=" stroke:none;fill-rule:nonzero;fill:#000000;fill-opacity:1;" d="M 412.613281 650.484375 C 410.261719 650.484375 408.359375 647.695312 408.359375 644.277344 L 408.359375 616.476562 L 403.234375 615.390625 C 350.757812 604.261719 311.539062 563.414062 307.871094 516.050781 C 307.449219 510.6875 308.148438 508.339844 311.101562 505.125 C 313.832031 502.179688 319.902344 501.933594 325.878906 501.933594 L 350.292969 501.933594 C 361.449219 501.933594 367.484375 505.628906 368.234375 512.925781 C 371.019531 539.996094 399.089844 561.199219 432.144531 561.199219 C 444.824219 561.199219 457.074219 558.152344 467.578125 552.386719 C 475.871094 547.832031 481.234375 540.621094 482.683594 532.066406 C 484.660156 520.402344 477.894531 508.28125 465.84375 501.890625 L 360.777344 446.277344 C 359.546875 445.632812 358.351562 444.890625 357.222656 444.074219 C 332.292969 426.085938 318.804688 397.929688 321.136719 368.757812 C 323.453125 339.808594 341.089844 313.960938 368.335938 299.617188 C 379.164062 293.917969 390.898438 289.71875 403.214844 287.132812 L 408.359375 286.054688 L 408.359375 255.039062 C 408.359375 251.722656 410.261719 249.035156 412.613281 249.035156 L 450.195312 249.035156 C 452.578125 249.035156 454.445312 251.671875 454.445312 255.039062 L 454.445312 285.835938 L 459.605469 286.898438 C 481.78125 291.453125 501.734375 301.613281 517.3125 316.273438 C 537.035156 334.824219 548.90625 359.808594 550.742188 386.601562 C 551.128906 392.132812 550.558594 394.109375 547.6875 397.179688 C 544.847656 400.226562 538.199219 400.625 532.726562 400.625 L 508.335938 400.625 C 497.054688 400.625 491 396.785156 490.359375 389.21875 C 487.960938 361.039062 464.027344 341.347656 432.144531 341.347656 C 419.910156 341.347656 408.007812 344.210938 397.742188 349.613281 C 388.144531 354.664062 382.195312 363.21875 381.402344 373.082031 C 380.90625 379.234375 382.414062 385.167969 385.753906 390.238281 C 388.238281 394.007812 391.78125 397.128906 396.277344 399.511719 L 495.371094 451.960938 C 529.46875 470.007812 548.34375 505.855469 542.347656 541.160156 C 538.03125 566.621094 521.839844 588.757812 497.921875 601.882812 C 486.144531 608.335938 473.269531 612.992188 459.648438 615.703125 L 454.445312 616.738281 L 454.445312 644.277344 C 454.445312 647.695312 452.535156 650.484375 450.195312 650.484375 L 412.613281 650.484375 "/><g clip-rule="nonzero" clip-path="url(#f2ac3cae40)"><path style=" stroke:none;fill-rule:nonzero;fill:#000000;fill-opacity:1;" d="M 640.070312 669.078125 C 585.328125 721.8125 510.9375 754.292969 429.097656 754.292969 C 261.320312 754.292969 124.832031 617.832031 124.832031 450.09375 C 124.832031 282.351562 261.320312 145.890625 429.097656 145.890625 C 596.871094 145.890625 733.359375 282.351562 733.359375 450.09375 C 733.359375 460.570312 732.828125 470.933594 731.785156 481.144531 L 775.066406 481.144531 C 775.976562 470.910156 776.464844 460.5625 776.464844 450.09375 C 776.464844 258.589844 620.636719 102.796875 429.097656 102.796875 C 237.554688 102.796875 81.726562 258.589844 81.726562 450.09375 C 81.726562 641.59375 237.554688 797.390625 429.097656 797.390625 C 522.066406 797.390625 606.621094 760.683594 669.03125 701.003906 L 640.070312 669.078125 "/></g><path style=" stroke:none;fill-rule:nonzero;fill:#000000;fill-opacity:1;" d="M 776.726562 621.796875 L 776.726562 498.382812 L 662.136719 498.382812 L 662.136719 621.796875 L 620.460938 621.796875 L 719.425781 730.902344 L 818.390625 621.796875 L 776.726562 621.796875 "/></g></svg>