<svg xmlns="http://www.w3.org/2000/svg" xmlns:xlink="http://www.w3.org/1999/xlink" width="1200" zoomAndPan="magnify" viewBox="0 0 900 899.99999" height="1200" preserveAspectRatio="xMidYMid meet" version="1.2"><g id="b511c7cb75"><path style=" stroke:none;fill-rule:nonzero;fill:#000000;fill-opacity:1;" d="M 607.5 341.160156 C 608.996094 338.066406 608.597656 334.386719 606.480469 331.683594 L 454.066406 137.855469 C 450.648438 133.515625 443.351562 133.515625 439.933594 137.855469 L 287.519531 331.683594 C 285.398438 334.386719 285.003906 338.066406 286.5 341.160156 C 288.007812 344.253906 291.144531 346.222656 294.585938 346.222656 L 370.019531 346.222656 L 414.675781 669.804688 C 416.96875 686.390625 430.257812 697.972656 447 697.972656 C 463.742188 697.972656 477.03125 686.390625 479.324219 669.804688 L 523.980469 346.222656 L 599.414062 346.222656 C 602.855469 346.222656 605.992188 344.253906 607.5 341.160156 Z M 607.5 341.160156 "/><path style=" stroke:none;fill-rule:nonzero;fill:#000000;fill-opacity:1;" d="M 213.730469 349.121094 C 210.316406 344.78125 203.015625 344.78125 199.597656 349.121094 L 92.519531 485.296875 C 90.398438 488 90.003906 491.679688 91.5 494.773438 C 93.007812 497.871094 96.144531 499.835938 99.582031 499.835938 L 161.273438 499.835938 C 169.988281 558.667969 170.445312 667.71875 92.109375 785.121094 C 90.234375 787.925781 90.097656 791.546875 91.746094 794.492188 C 93.386719 797.4375 96.550781 799.214844 99.910156 799.089844 C 148.03125 797.335938 187.503906 778.964844 217.230469 744.492188 C 270.402344 682.828125 281.84375 579.609375 274.695312 499.835938 L 313.746094 499.835938 C 317.1875 499.835938 320.324219 497.871094 321.832031 494.773438 C 323.328125 491.679688 322.929688 488 320.8125 485.296875 Z M 213.730469 349.121094 "/><path style=" stroke:none;fill-rule:nonzero;fill:#000000;fill-opacity:1;" d="M 801.890625 785.121094 C 723.554688 667.71875 724.011719 558.667969 732.726562 499.835938 L 794.414062 499.835938 C 797.855469 499.835938 800.992188 497.871094 802.5 494.773438 C 803.996094 491.679688 803.601562 488 801.480469 485.296875 L 694.402344 349.121094 C 690.984375 344.78125 683.683594 344.78125 680.269531 349.121094 L 573.1875 485.296875 C 571.070312 488 570.671875 491.679688 572.167969 494.773438 C 573.675781 497.871094 576.8125 499.835938 580.253906 499.835938 L 619.304688 499.835938 C 612.15625 579.609375 623.597656 682.828125 676.769531 744.492188 C 706.496094 778.964844 745.96875 797.335938 794.089844 799.089844 C 797.449219 799.214844 800.613281 797.4375 802.253906 794.492188 C 803.902344 791.546875 803.761719 787.925781 801.890625 785.121094 Z M 801.890625 785.121094 "/></g></svg>