<svg xmlns="http://www.w3.org/2000/svg" xmlns:xlink="http://www.w3.org/1999/xlink" width="1200" zoomAndPan="magnify" viewBox="0 0 900 899.99999" height="1200" preserveAspectRatio="xMidYMid meet" version="1.2"><defs><clipPath id="3508eb3fec"><path d="M 154 75 L 746.640625 75 L 746.640625 826.996094 L 154 826.996094 Z M 154 75 "/></clipPath></defs><g id="942ef02a71"><g clip-rule="nonzero" clip-path="url(#3508eb3fec)"><path style=" stroke:none;fill-rule:nonzero;fill:#000000;fill-opacity:1;" d="M 736.425781 421.738281 C 736.425781 421.738281 719.507812 415.527344 711.15625 412.527344 C 673.683594 398.390625 634.066406 374.1875 602.800781 349.125 C 575.179688 327.066406 544.984375 295.578125 530.851562 262.378906 C 513.507812 221.894531 487.8125 137.929688 487.8125 95.519531 C 487.8125 89.09375 483.527344 83.527344 477.53125 81.8125 C 476.460938 80.097656 474.75 78.386719 472.820312 77.3125 C 465.96875 73.246094 457.1875 75.601562 453.121094 82.453125 C 447.765625 91.664062 445.839844 103.230469 445.839844 115.65625 C 445.839844 130.21875 449.050781 146.285156 449.695312 158.066406 C 454.191406 221.46875 404.726562 279.511719 361.898438 320.425781 C 318.429688 361.976562 256.542969 400.960938 199.152344 418.738281 C 188.019531 422.167969 176.457031 426.238281 166.605469 432.234375 C 165.320312 432.875 162.75 434.160156 162.75 434.160156 C 157.183594 436.730469 153.757812 442.515625 154.398438 448.511719 C 155.042969 454.722656 159.324219 459.652344 165.320312 461.148438 C 165.320312 461.148438 188.875 466.933594 200.652344 469.289062 C 248.191406 478.714844 291.019531 498.421875 322.070312 536.546875 C 367.894531 593.09375 386.09375 654.140625 406.4375 722.683594 C 413.503906 746.886719 416.074219 772.375 419.285156 797.222656 L 419.285156 812.429688 C 419.285156 820.140625 425.496094 826.566406 433.207031 826.78125 C 440.914062 826.996094 447.554688 820.996094 447.980469 813.285156 C 447.980469 813.285156 448.625 802.363281 447.980469 795.9375 C 447.980469 782.441406 448.410156 769.160156 449.265625 755.882812 C 453.761719 684.554688 485.457031 619.652344 531.496094 565.035156 C 575.605469 512.558594 640.0625 462.433594 709.441406 453.652344 C 717.792969 452.582031 734.28125 449.582031 734.28125 449.582031 C 740.707031 448.296875 745.417969 443.15625 746.058594 436.519531 C 746.273438 430.09375 742.417969 423.878906 736.425781 421.738281 Z M 509.222656 546.398438 C 471.320312 591.378906 442.84375 642.574219 428.921875 698.261719 C 409.222656 632.507812 388.878906 573.386719 344.125 518.339844 C 311.148438 477.644531 266.394531 454.9375 216.5 443.371094 C 275.171875 423.453125 337.488281 383.613281 381.8125 341.203125 C 422.285156 302.648438 465.96875 249.527344 476.460938 191.265625 C 485.242188 222.753906 495.734375 253.167969 504.300781 273.515625 C 520.359375 310.785156 553.550781 346.554688 584.816406 371.402344 C 612.222656 393.25 645.628906 414.671875 679.035156 429.878906 C 612.867188 447.226562 552.050781 495.421875 509.222656 546.398438 Z M 509.222656 546.398438 "/></g></g></svg>