<svg xmlns="http://www.w3.org/2000/svg" xmlns:xlink="http://www.w3.org/1999/xlink" width="1200" zoomAndPan="magnify" viewBox="0 0 900 899.99999" height="1200" preserveAspectRatio="xMidYMid meet" version="1.2"><defs><clipPath id="22882281e8"><path d="M 76.726562 76.726562 L 822.976562 76.726562 L 822.976562 822.976562 L 76.726562 822.976562 Z M 76.726562 76.726562 "/></clipPath></defs><g id="695ad5468c"><g clip-rule="nonzero" clip-path="url(#22882281e8)"><path style=" stroke:none;fill-rule:nonzero;fill:#000000;fill-opacity:1;" d="M 449.851562 822.976562 C 244.117188 822.976562 76.726562 655.585938 76.726562 449.851562 C 76.726562 314.527344 133.570312 214.96875 255.554688 136.375 C 262.167969 132.113281 271.027344 134.019531 275.398438 140.746094 C 279.660156 147.359375 277.753906 156.21875 271.027344 160.589844 C 158.011719 233.242188 105.429688 325.179688 105.429688 449.851562 C 105.429688 639.777344 259.925781 794.273438 449.851562 794.273438 C 639.777344 794.273438 794.273438 639.777344 794.273438 449.851562 C 794.273438 259.925781 639.777344 105.429688 449.851562 105.429688 C 441.890625 105.429688 435.5 99.039062 435.5 91.078125 C 435.5 83.117188 441.890625 76.726562 449.851562 76.726562 C 655.585938 76.726562 822.976562 244.117188 822.976562 449.851562 C 822.976562 655.585938 655.585938 822.976562 449.851562 822.976562 "/></g><path style=" stroke:none;fill-rule:nonzero;fill:#000000;fill-opacity:1;" d="M 263.289062 277.640625 C 255.328125 277.640625 248.9375 271.25 248.9375 263.289062 L 248.9375 162.832031 L 148.480469 162.832031 C 140.523438 162.832031 134.132812 156.441406 134.132812 148.480469 C 134.132812 140.523438 140.523438 134.132812 148.480469 134.132812 L 263.289062 134.132812 C 271.25 134.132812 277.640625 140.523438 277.640625 148.480469 L 277.640625 263.289062 C 277.640625 271.25 271.25 277.640625 263.289062 277.640625 "/><path style=" stroke:none;fill-rule:nonzero;fill:#000000;fill-opacity:1;" d="M 449.851562 736.871094 C 441.890625 736.871094 435.5 730.480469 435.5 722.519531 L 435.5 665.117188 C 435.5 657.15625 441.890625 650.765625 449.851562 650.765625 C 457.8125 650.765625 464.203125 657.15625 464.203125 665.117188 L 464.203125 722.519531 C 464.203125 730.480469 457.8125 736.871094 449.851562 736.871094 "/><path style=" stroke:none;fill-rule:nonzero;fill:#000000;fill-opacity:1;" d="M 586.1875 700.433594 C 581.253906 700.433594 576.320312 697.855469 573.742188 693.144531 L 566.566406 680.589844 C 562.640625 673.636719 564.996094 664.890625 571.949219 660.96875 C 578.785156 657.042969 587.644531 659.511719 591.457031 666.351562 L 598.632812 679.019531 C 602.554688 685.859375 600.199219 694.601562 593.25 698.527344 C 591.007812 699.761719 588.652344 700.433594 586.1875 700.433594 "/><path style=" stroke:none;fill-rule:nonzero;fill:#000000;fill-opacity:1;" d="M 686.082031 600.539062 C 683.617188 600.539062 681.261719 599.976562 679.019531 598.632812 L 666.351562 591.457031 C 659.398438 587.53125 657.042969 578.785156 660.96875 571.949219 C 664.890625 564.996094 673.636719 562.53125 680.476562 566.566406 L 693.144531 573.742188 C 700.097656 577.664062 702.453125 586.410156 698.527344 593.25 C 695.949219 597.957031 691.015625 600.539062 686.082031 600.539062 "/><path style=" stroke:none;fill-rule:nonzero;fill:#000000;fill-opacity:1;" d="M 722.519531 464.203125 L 665.117188 464.203125 C 657.15625 464.203125 650.765625 457.8125 650.765625 449.851562 C 650.765625 441.890625 657.15625 435.5 665.117188 435.5 L 722.519531 435.5 C 730.480469 435.5 736.871094 441.890625 736.871094 449.851562 C 736.871094 457.8125 730.480469 464.203125 722.519531 464.203125 "/><path style=" stroke:none;fill-rule:nonzero;fill:#000000;fill-opacity:1;" d="M 673.414062 335.042969 C 668.480469 335.042969 663.660156 332.464844 660.96875 327.757812 C 657.042969 320.917969 659.398438 312.171875 666.351562 308.25 L 679.019531 301.074219 C 685.859375 297.148438 694.714844 299.503906 698.527344 306.453125 C 702.453125 313.292969 700.097656 322.039062 693.144531 325.964844 L 680.476562 333.136719 C 678.347656 334.484375 675.878906 335.042969 673.414062 335.042969 "/><path style=" stroke:none;fill-rule:nonzero;fill:#000000;fill-opacity:1;" d="M 579.011719 240.640625 C 576.542969 240.640625 574.191406 239.96875 571.949219 238.734375 C 564.996094 234.8125 562.640625 226.066406 566.566406 219.226562 L 573.742188 206.558594 C 577.554688 199.605469 586.410156 197.253906 593.25 201.175781 C 600.199219 205.101562 602.554688 213.847656 598.632812 220.683594 L 591.457031 233.355469 C 588.878906 237.953125 583.945312 240.640625 579.011719 240.640625 "/><path style=" stroke:none;fill-rule:nonzero;fill:#000000;fill-opacity:1;" d="M 449.851562 249.050781 C 441.890625 249.050781 435.5 242.546875 435.5 234.699219 L 435.5 177.296875 C 435.5 169.335938 441.890625 162.945312 449.851562 162.945312 C 457.8125 162.945312 464.203125 169.335938 464.203125 177.296875 L 464.203125 234.699219 C 464.203125 242.546875 457.8125 249.050781 449.851562 249.050781 "/><path style=" stroke:none;fill-rule:nonzero;fill:#000000;fill-opacity:1;" d="M 234.585938 464.203125 L 177.183594 464.203125 C 169.335938 464.203125 162.832031 457.8125 162.832031 449.851562 C 162.832031 441.890625 169.335938 435.5 177.183594 435.5 L 234.585938 435.5 C 242.546875 435.5 248.9375 441.890625 248.9375 449.851562 C 248.9375 457.8125 242.546875 464.203125 234.585938 464.203125 "/><path style=" stroke:none;fill-rule:nonzero;fill:#000000;fill-opacity:1;" d="M 213.621094 600.539062 C 208.6875 600.539062 203.753906 597.957031 201.175781 593.25 C 197.253906 586.410156 199.605469 577.664062 206.558594 573.742188 L 219.117188 566.566406 C 226.066406 562.640625 234.8125 565.109375 238.734375 571.949219 C 242.660156 578.785156 240.304688 587.53125 233.355469 591.457031 L 220.683594 598.632812 C 218.441406 599.976562 216.089844 600.539062 213.621094 600.539062 "/><path style=" stroke:none;fill-rule:nonzero;fill:#000000;fill-opacity:1;" d="M 313.519531 700.433594 C 311.050781 700.433594 308.695312 699.761719 306.453125 698.527344 C 299.503906 694.601562 297.148438 685.859375 301.074219 679.019531 L 308.25 666.351562 C 312.171875 659.511719 320.917969 657.042969 327.757812 660.96875 C 334.707031 664.890625 337.0625 673.636719 333.136719 680.589844 L 325.964844 693.144531 C 323.382812 697.855469 318.449219 700.433594 313.519531 700.433594 "/><path style=" stroke:none;fill-rule:nonzero;fill:#000000;fill-opacity:1;" d="M 355.335938 392.449219 L 449.851562 486.960938 L 587.417969 349.394531 L 564.660156 326.636719 L 459.941406 431.242188 C 454.335938 436.847656 445.367188 436.847656 439.761719 431.242188 L 378.097656 369.6875 Z M 449.851562 521.605469 C 446.152344 521.605469 442.453125 520.261719 439.761719 517.347656 L 324.953125 402.539062 C 319.347656 396.933594 319.347656 387.964844 324.953125 382.359375 L 368.007812 339.304688 C 373.613281 333.699219 382.582031 333.699219 388.1875 339.304688 L 449.851562 400.855469 L 554.570312 296.253906 C 560.175781 290.644531 569.144531 290.644531 574.75 296.253906 L 617.804688 339.304688 C 623.410156 344.910156 623.410156 353.878906 617.804688 359.484375 L 459.941406 517.347656 C 457.25 520.261719 453.550781 521.605469 449.851562 521.605469 "/></g></svg>