<svg xmlns="http://www.w3.org/2000/svg" xmlns:xlink="http://www.w3.org/1999/xlink" width="1200" zoomAndPan="magnify" viewBox="0 0 900 899.99999" height="1200" preserveAspectRatio="xMidYMid meet" version="1.2"><defs><clipPath id="248e41c6ec"><path d="M 84 168 L 733 168 L 733 815.648438 L 84 815.648438 Z M 84 168 "/></clipPath><clipPath id="baf67872fd"><path d="M 478 84.398438 L 815 84.398438 L 815 412 L 478 412 Z M 478 84.398438 "/></clipPath></defs><g id="2bdb7d0f01"><path style=" stroke:none;fill-rule:nonzero;fill:#000000;fill-opacity:1;" d="M 586.445312 365.605469 L 610.390625 365.605469 C 598.417969 323.964844 565.917969 290.882812 524.292969 278.90625 L 524.292969 302.863281 C 552.804688 313.699219 575.609375 336.515625 586.445312 365.605469 Z M 586.445312 365.605469 "/><path style=" stroke:none;fill-rule:nonzero;fill:#000000;fill-opacity:1;" d="M 409.6875 605.171875 C 466.707031 605.171875 515.171875 566.386719 530.566406 513.910156 L 506.621094 513.910156 C 492.363281 553.835938 454.734375 582.355469 410.257812 582.355469 C 353.8125 582.355469 307.625 536.152344 307.625 479.683594 C 307.625 435.195312 336.136719 396.976562 376.046875 383.289062 L 376.046875 359.332031 C 323.019531 374.160156 284.25 422.644531 284.25 479.683594 C 284.25 548.703125 340.695312 605.171875 409.6875 605.171875 Z M 409.6875 605.171875 "/><g clip-rule="nonzero" clip-path="url(#248e41c6ec)"><path style=" stroke:none;fill-rule:nonzero;fill:#000000;fill-opacity:1;" d="M 86.398438 584.636719 L 106.921875 639.394531 C 109.203125 645.101562 113.195312 649.664062 118.898438 651.945312 C 124.597656 654.226562 130.871094 654.796875 136.574219 652.515625 L 190.738281 631.410156 C 211.265625 661.070312 236.925781 686.167969 267.144531 704.992188 L 244.335938 762.601562 C 239.773438 774.011719 245.476562 787.699219 256.878906 792.261719 L 310.476562 813.9375 C 313.328125 815.078125 316.179688 815.648438 319.03125 815.648438 C 321.882812 815.648438 325.300781 815.078125 328.152344 813.9375 C 333.855469 811.65625 338.417969 807.09375 340.695312 801.390625 L 364.644531 742.636719 C 397.144531 748.34375 431.355469 747.773438 463.285156 740.925781 L 488.945312 799.105469 C 491.222656 804.8125 495.785156 808.804688 501.488281 811.085938 C 507.1875 813.367188 513.460938 813.367188 519.164062 810.515625 L 572.191406 787.128906 C 583.59375 781.996094 588.726562 768.304688 583.59375 756.898438 L 558.503906 700.429688 C 584.164062 682.746094 607.539062 660.5 625.214844 634.832031 L 679.382812 657.078125 C 685.085938 659.359375 691.355469 659.359375 697.058594 657.078125 C 702.761719 654.796875 707.324219 650.234375 709.601562 644.53125 L 731.269531 590.34375 C 735.832031 578.363281 730.128906 565.246094 718.726562 560.679688 L 668.550781 540.148438 C 673.113281 520.183594 675.390625 499.648438 675.390625 479.113281 C 675.390625 472.839844 670.261719 467.707031 663.988281 467.707031 C 662.847656 467.707031 662.277344 467.707031 661.136719 468.277344 C 660.566406 468.277344 660.566406 468.277344 659.996094 468.277344 L 421.09375 468.277344 L 421.09375 223.574219 C 421.09375 217.300781 415.960938 212.167969 409.6875 212.167969 C 388.59375 212.167969 367.496094 214.449219 346.96875 219.582031 L 331.003906 182.507812 C 328.722656 176.804688 324.160156 172.8125 318.460938 170.527344 C 312.757812 168.246094 306.484375 168.246094 300.785156 171.097656 L 247.1875 194.484375 C 235.785156 199.621094 230.652344 213.308594 235.785156 224.71875 L 252.890625 263.503906 C 224.378906 284.609375 199.863281 311.417969 181.617188 341.648438 L 139.421875 324.535156 C 133.722656 322.253906 127.449219 322.253906 121.746094 324.535156 C 116.046875 326.816406 111.484375 331.382812 109.203125 337.085938 L 87.535156 391.273438 C 82.976562 402.679688 88.675781 416.371094 100.082031 420.933594 L 146.265625 439.757812 C 144.554688 452.875 143.414062 465.996094 143.414062 479.113281 C 143.414062 497.9375 145.125 517.332031 149.117188 535.582031 L 98.941406 554.976562 C 87.535156 560.109375 81.835938 573.230469 86.398438 584.636719 Z M 167.363281 553.835938 C 172.492188 551.554688 175.914062 545.851562 174.203125 540.148438 C 169.074219 520.753906 166.792969 500.21875 166.792969 479.683594 C 166.792969 464.855469 167.933594 450.023438 170.785156 435.195312 C 171.921875 430.058594 169.074219 424.355469 163.941406 422.644531 L 109.203125 400.398438 L 130.871094 346.210938 L 182.1875 367.316406 C 187.320312 369.597656 193.589844 367.316406 196.441406 362.183594 C 214.6875 328.527344 241.484375 298.867188 273.414062 277.195312 C 277.976562 274.339844 279.6875 268.066406 277.40625 262.933594 L 256.878906 215.589844 L 309.90625 192.203125 L 329.863281 237.835938 C 332.144531 242.96875 337.847656 245.820312 343.546875 244.109375 C 361.222656 238.976562 379.46875 236.125 398.285156 235.554688 L 398.285156 479.683594 C 398.285156 485.960938 403.417969 491.09375 409.6875 491.09375 L 652.585938 491.09375 C 652.015625 509.34375 649.164062 527.027344 644.601562 544.140625 C 642.890625 549.84375 645.742188 555.546875 651.445312 557.828125 L 710.742188 582.355469 L 689.078125 636.542969 L 626.355469 610.875 C 621.226562 608.59375 615.523438 610.875 612.671875 614.867188 C 593.855469 643.390625 568.199219 668.488281 539.121094 686.738281 C 534.558594 689.589844 532.277344 695.867188 534.558594 701 L 563.066406 766.59375 L 510.039062 789.980469 L 480.960938 723.246094 C 478.679688 718.109375 472.976562 715.257812 467.847656 716.96875 C 433.066406 725.527344 395.433594 726.097656 360.082031 718.679688 C 354.382812 717.539062 349.25 720.394531 346.96875 725.527344 L 319.03125 793.402344 L 265.433594 771.15625 L 292.230469 704.992188 C 294.511719 699.859375 292.230469 693.582031 287.671875 690.730469 C 254.601562 671.339844 226.089844 643.960938 205.5625 611.445312 C 202.714844 606.882812 197.011719 605.171875 191.878906 606.882812 L 129.160156 630.839844 L 107.492188 576.652344 Z M 167.363281 553.835938 "/></g><g clip-rule="nonzero" clip-path="url(#baf67872fd)"><path style=" stroke:none;fill-rule:nonzero;fill:#000000;fill-opacity:1;" d="M 489.515625 411.238281 L 740.394531 411.238281 C 741.535156 411.238281 742.101562 411.238281 743.242188 410.667969 C 743.8125 410.667969 743.8125 410.667969 744.382812 410.667969 C 750.65625 410.667969 755.789062 405.53125 755.789062 399.257812 C 755.789062 387.851562 755.21875 375.871094 753.507812 364.464844 L 800.261719 346.210938 C 812.234375 341.648438 817.9375 328.53125 813.375 316.550781 L 792.277344 261.792969 C 790 256.089844 786.007812 251.527344 780.304688 249.242188 C 774.605469 246.960938 768.332031 246.390625 762.628906 248.671875 L 720.4375 265.214844 C 700.480469 230.421875 672.542969 200.191406 639.472656 177.375 L 655.4375 138.015625 C 659.996094 126.609375 654.296875 112.917969 642.890625 108.355469 L 589.296875 86.679688 C 583.59375 84.398438 577.320312 84.398438 571.621094 86.679688 C 565.917969 88.960938 561.355469 93.527344 559.074219 99.230469 L 544.25 136.304688 C 526.574219 132.882812 508.328125 130.601562 490.085938 130.601562 C 483.8125 130.601562 478.679688 135.734375 478.679688 142.007812 L 478.679688 399.828125 C 478.109375 406.101562 483.242188 411.238281 489.515625 411.238281 Z M 547.671875 161.972656 C 553.375 163.113281 559.074219 160.261719 560.785156 155.128906 L 580.171875 108.925781 L 633.769531 131.171875 L 614.382812 179.085938 C 612.101562 184.21875 614.382812 189.921875 618.945312 192.773438 C 654.867188 215.589844 684.515625 247.53125 704.472656 285.75 C 707.324219 290.882812 713.023438 293.164062 718.726562 290.882812 L 770.613281 270.917969 L 791.710938 325.675781 L 736.402344 346.78125 C 731.269531 348.492188 728.417969 354.195312 728.988281 359.332031 C 730.699219 369.027344 731.269531 378.152344 731.839844 388.421875 L 500.917969 388.421875 L 500.917969 155.128906 C 516.882812 156.269531 532.847656 158.550781 547.671875 161.972656 Z M 547.671875 161.972656 "/></g></g></svg>