<svg xmlns="http://www.w3.org/2000/svg" xmlns:xlink="http://www.w3.org/1999/xlink" width="1200" zoomAndPan="magnify" viewBox="0 0 900 899.99999" height="1200" preserveAspectRatio="xMidYMid meet" version="1.2"><defs><clipPath id="d527e004f1"><path d="M 90 92 L 806 92 L 806 813 L 90 813 Z M 90 92 "/></clipPath></defs><g id="4984bd8cb7"><g clip-rule="nonzero" clip-path="url(#d527e004f1)"><path style=" stroke:none;fill-rule:evenodd;fill:#000000;fill-opacity:1;" d="M 371.589844 155.847656 L 637.023438 269.679688 C 641.316406 271.519531 644.097656 275.742188 644.097656 280.414062 L 644.097656 495.046875 C 644.097656 650.113281 531.296875 784.078125 378.671875 810.671875 L 369.03125 812.382812 C 367.679688 812.625 366.296875 812.625 364.945312 812.382812 C 364.945312 812.382812 355.304688 810.671875 355.304688 810.671875 C 202.742188 784.078125 89.941406 650.117188 89.941406 495.046875 L 89.941406 280.414062 C 89.941406 275.746094 92.726562 271.523438 97.015625 269.679688 L 362.386719 155.851562 C 365.324219 154.589844 368.652344 154.589844 371.589844 155.847656 Z M 366.988281 179.296875 C 366.988281 179.296875 113.296875 288.117188 113.296875 288.117188 L 113.296875 495.046875 C 113.296875 638.816406 217.886719 763.015625 359.335938 787.660156 C 359.347656 787.660156 359.363281 787.664062 359.375 787.664062 L 366.988281 789.019531 L 374.605469 787.664062 C 374.617188 787.664062 374.628906 787.660156 374.644531 787.660156 C 516.152344 763.015625 620.746094 638.816406 620.746094 495.046875 L 620.746094 288.117188 Z M 371.585938 220.800781 L 575.144531 308.054688 C 579.4375 309.894531 582.222656 314.117188 582.222656 318.792969 L 582.222656 495.699219 C 582.222656 620.949219 491.792969 729.605469 369.167969 752.9375 C 367.726562 753.210938 366.246094 753.210938 364.800781 752.9375 C 242.246094 729.601562 151.820312 620.949219 151.820312 495.699219 L 151.820312 318.792969 C 151.820312 314.121094 154.601562 309.898438 158.894531 308.054688 L 362.386719 220.800781 C 365.324219 219.542969 368.648438 219.539062 371.585938 220.800781 Z M 366.984375 244.246094 L 175.171875 326.496094 L 175.171875 495.699219 C 175.171875 609.035156 256.472656 707.441406 366.988281 729.558594 C 477.566406 707.441406 558.867188 609.035156 558.867188 495.699219 C 558.867188 495.699219 558.867188 326.496094 558.867188 326.496094 Z M 294.535156 591.578125 L 229.339844 591.578125 C 222.890625 591.578125 217.664062 586.347656 217.664062 579.894531 L 217.664062 422.667969 C 217.664062 416.21875 222.890625 410.988281 229.339844 410.988281 L 295.257812 410.988281 C 308.03125 401.675781 322.085938 392.828125 333.203125 381.996094 C 343.390625 372.066406 350.972656 360.339844 350.972656 344.035156 L 350.972656 296.304688 C 350.972656 289.855469 356.199219 284.625 362.648438 284.625 C 400.535156 284.625 431.550781 315.652344 431.550781 353.554688 L 431.550781 390.578125 C 431.550781 391.109375 431.511719 391.644531 431.441406 392.171875 C 430.957031 395.671875 429.871094 399.777344 428.117188 404.15625 C 430.820312 403.464844 433.648438 403.097656 436.558594 403.097656 L 493.207031 403.097656 C 512.132812 403.097656 527.617188 418.589844 527.617188 437.523438 C 527.617188 443.910156 525.855469 449.902344 522.796875 455.042969 C 531.5 461.304688 537.199219 471.523438 537.199219 483.007812 C 537.199219 496.507812 529.332031 508.253906 517.957031 513.886719 C 520.054688 518.328125 521.226562 523.28125 521.226562 528.496094 C 521.226562 541.253906 514.230469 552.429688 503.894531 558.386719 C 506.304688 563.082031 507.667969 568.398438 507.667969 574.015625 C 507.667969 592.949219 492.1875 608.4375 473.257812 608.4375 L 436.558594 608.4375 C 433.996094 608.4375 431.496094 608.15625 429.085938 607.617188 C 366.921875 618.328125 331.011719 624.097656 294.535156 591.578125 Z M 287.425781 434.347656 L 241.015625 434.347656 L 241.015625 568.214844 L 287.425781 568.214844 Z M 395.878906 497.710938 C 390.625 501.832031 385.625 505.027344 381.816406 507.214844 C 376.230469 510.425781 369.085938 508.492188 365.878906 502.898438 C 362.667969 497.308594 364.601562 490.164062 370.1875 486.953125 C 382.347656 479.96875 416.398438 458.496094 394.375 426.347656 C 391.195312 421.707031 391.773438 415.460938 395.75 411.484375 C 403.027344 404.199219 407.140625 395.769531 408.195312 389.683594 L 408.195312 353.554688 C 408.195312 332.53125 393.765625 314.710938 374.324219 309.515625 L 374.324219 344.035156 C 374.324219 367.402344 364.097656 384.503906 349.496094 398.730469 C 338.117188 409.820312 323.917969 419.042969 310.785156 428.566406 C 310.863281 510.796875 310.875 559.542969 310.824219 574.789062 C 328.144531 589.816406 345.46875 593.75 367.023438 592.757812 C 378.480469 592.230469 391.015625 590.410156 405.152344 588.039062 C 403.222656 583.75 402.148438 579 402.148438 574.015625 C 402.148438 565.3125 405.417969 557.335938 410.789062 551.261719 C 405.417969 545.175781 402.148438 537.195312 402.148438 528.496094 C 402.148438 522.109375 403.910156 516.113281 406.96875 510.976562 C 402.242188 507.574219 398.402344 503.007812 395.878906 497.710938 Z M 433.375 584.605469 C 434.382812 584.914062 435.453125 585.074219 436.558594 585.074219 L 473.257812 585.074219 C 479.339844 585.074219 484.316406 580.101562 484.316406 574.015625 C 484.316406 567.929688 479.339844 562.953125 473.257812 562.953125 L 473.246094 562.953125 L 444.121094 562.917969 L 436.613281 562.953125 C 436.59375 562.953125 436.578125 562.953125 436.558594 562.953125 C 430.476562 562.953125 425.5 567.929688 425.5 574.015625 C 425.5 578.859375 428.652344 583 433.007812 584.488281 C 433.128906 584.527344 433.253906 584.566406 433.375 584.605469 Z M 473.273438 539.589844 L 486.816406 539.589844 C 492.902344 539.589844 497.875 534.601562 497.875 528.496094 C 497.875 522.410156 492.898438 517.433594 486.816406 517.433594 L 436.558594 517.433594 C 430.476562 517.433594 425.5 522.410156 425.5 528.496094 C 425.5 534.566406 430.441406 539.5625 436.507812 539.589844 C 436.523438 539.589844 436.542969 539.589844 436.558594 539.589844 L 444.050781 539.558594 C 444.070312 539.558594 444.09375 539.558594 444.117188 539.558594 L 473.257812 539.589844 Z M 426.976562 494.070312 L 502.789062 494.070312 C 508.871094 494.070312 513.84375 489.09375 513.84375 483.007812 C 513.84375 476.925781 508.871094 471.949219 502.789062 471.949219 L 426.976562 471.949219 C 420.894531 471.949219 415.917969 476.925781 415.917969 483.007812 C 415.917969 489.09375 420.894531 494.070312 426.976562 494.070312 Z M 493.207031 448.585938 C 499.289062 448.585938 504.261719 443.609375 504.261719 437.523438 C 504.261719 431.4375 499.289062 426.460938 493.207031 426.460938 L 436.558594 426.460938 C 430.476562 426.460938 425.5 431.4375 425.5 437.523438 C 425.5 443.609375 430.476562 448.585938 436.558594 448.585938 Z M 670.996094 176.367188 L 670.996094 211.960938 C 670.996094 229.214844 656.996094 243.21875 639.753906 243.21875 C 622.507812 243.21875 608.507812 229.214844 608.507812 211.960938 C 608.507812 211.960938 608.507812 176.367188 608.507812 176.367188 C 599.335938 175.957031 590.425781 171.523438 584.609375 163.523438 C 574.476562 149.566406 577.574219 130.003906 591.523438 119.863281 L 621.386719 98.15625 C 632.339844 90.199219 647.164062 90.199219 658.117188 98.15625 L 687.980469 119.863281 C 701.929688 130.003906 705.027344 149.566406 694.894531 163.523438 C 689.082031 171.523438 680.171875 175.957031 670.996094 176.367188 Z M 665.472656 151.867188 C 668.949219 154.023438 673.558594 153.152344 676 149.789062 C 678.558594 146.265625 677.777344 141.324219 674.253906 138.765625 L 644.390625 117.058594 C 641.625 115.046875 637.878906 115.046875 635.113281 117.058594 L 605.25 138.765625 C 601.726562 141.324219 600.945312 146.265625 603.503906 149.789062 C 605.945312 153.152344 610.554688 154.023438 614.03125 151.867188 C 617.632812 149.632812 622.160156 149.527344 625.863281 151.585938 C 629.566406 153.648438 631.863281 157.554688 631.863281 161.792969 L 631.863281 211.960938 C 631.863281 216.320312 635.398438 219.855469 639.753906 219.855469 C 644.105469 219.855469 647.640625 216.320312 647.640625 211.960938 L 647.640625 161.792969 C 647.640625 157.554688 649.9375 153.648438 653.640625 151.585938 C 657.34375 149.527344 661.871094 149.632812 665.472656 151.867188 Z M 775.960938 289.191406 L 775.960938 324.789062 C 775.960938 342.039062 761.960938 356.042969 744.71875 356.042969 C 727.476562 356.042969 713.476562 342.039062 713.476562 324.789062 C 713.476562 324.789062 713.476562 289.191406 713.476562 289.191406 C 704.300781 288.78125 695.390625 284.351562 689.578125 276.347656 C 679.441406 262.390625 682.539062 242.828125 696.488281 232.6875 L 726.355469 210.980469 C 737.304688 203.023438 752.132812 203.023438 763.082031 210.980469 L 792.949219 232.6875 C 806.898438 242.828125 809.996094 262.390625 799.859375 276.347656 C 794.046875 284.351562 785.136719 288.78125 775.960938 289.191406 Z M 770.441406 264.691406 C 773.917969 266.847656 778.523438 265.976562 780.964844 262.613281 C 783.527344 259.089844 782.746094 254.152344 779.222656 251.589844 L 749.355469 229.882812 C 746.589844 227.871094 742.847656 227.871094 740.082031 229.882812 L 710.214844 251.589844 C 706.691406 254.152344 705.910156 259.089844 708.46875 262.613281 C 710.914062 265.976562 715.519531 266.847656 718.996094 264.691406 C 722.597656 262.457031 727.128906 262.351562 730.832031 264.414062 C 734.535156 266.472656 736.828125 270.378906 736.828125 274.617188 L 736.828125 324.789062 C 736.828125 329.144531 740.363281 332.679688 744.71875 332.679688 C 749.074219 332.679688 752.609375 329.144531 752.609375 324.789062 L 752.609375 274.617188 C 752.609375 270.378906 754.90625 266.472656 758.609375 264.414062 C 762.308594 262.351562 766.839844 262.457031 770.441406 264.691406 Z M 770.441406 264.691406 "/></g></g></svg>