<svg xmlns="http://www.w3.org/2000/svg" xmlns:xlink="http://www.w3.org/1999/xlink" width="1200" zoomAndPan="magnify" viewBox="0 0 900 899.99999" height="1200" preserveAspectRatio="xMidYMid meet" version="1.2"><defs><clipPath id="df08972eaf"><path d="M 67 89.402344 L 790 89.402344 L 790 810.902344 L 67 810.902344 Z M 67 89.402344 "/></clipPath></defs><g id="5dd705c923"><path style=" stroke:none;fill-rule:nonzero;fill:#000000;fill-opacity:1;" d="M 411.253906 658.445312 C 408.8125 658.445312 406.835938 655.550781 406.835938 652.003906 L 406.835938 623.117188 L 401.511719 621.992188 C 347.007812 610.429688 306.277344 567.992188 302.464844 518.789062 C 302.027344 513.21875 302.753906 510.777344 305.824219 507.4375 C 308.65625 504.378906 314.960938 504.125 321.171875 504.125 L 346.527344 504.125 C 358.113281 504.125 364.382812 507.960938 365.164062 515.542969 C 368.054688 543.667969 397.210938 565.695312 431.539062 565.695312 C 444.707031 565.695312 457.429688 562.527344 468.34375 556.539062 C 476.957031 551.808594 482.527344 544.3125 484.03125 535.429688 C 486.085938 523.308594 479.054688 510.71875 466.542969 504.078125 L 357.414062 446.304688 C 356.136719 445.632812 354.894531 444.863281 353.726562 444.011719 C 327.832031 425.328125 313.824219 396.078125 316.246094 365.769531 C 318.652344 335.695312 336.972656 308.839844 365.265625 293.941406 C 376.511719 288.019531 388.703125 283.65625 401.492188 280.972656 L 406.835938 279.851562 L 406.835938 247.628906 C 406.835938 244.183594 408.8125 241.394531 411.253906 241.394531 L 450.285156 241.394531 C 452.761719 241.394531 454.703125 244.132812 454.703125 247.628906 L 454.703125 279.625 L 460.0625 280.726562 C 483.09375 285.457031 503.816406 296.011719 519.996094 311.246094 C 540.484375 330.519531 552.8125 356.472656 554.71875 384.304688 C 555.121094 390.050781 554.527344 392.105469 551.542969 395.296875 C 548.597656 398.464844 541.6875 398.875 536.003906 398.875 L 510.671875 398.875 C 498.957031 398.875 492.667969 394.886719 492.003906 387.027344 C 489.511719 357.75 464.652344 337.296875 431.539062 337.296875 C 418.832031 337.296875 406.46875 340.269531 395.808594 345.882812 C 385.84375 351.128906 379.660156 360.015625 378.839844 370.261719 C 378.320312 376.65625 379.886719 382.820312 383.359375 388.082031 C 385.9375 392 389.621094 395.246094 394.289062 397.71875 L 497.207031 452.207031 C 532.621094 470.957031 552.226562 508.199219 546 544.871094 C 541.515625 571.324219 524.699219 594.324219 499.855469 607.957031 C 487.625 614.664062 474.253906 619.5 460.105469 622.316406 L 454.703125 623.390625 L 454.703125 652.003906 C 454.703125 655.550781 452.71875 658.445312 450.285156 658.445312 L 411.253906 658.445312 "/><g clip-rule="nonzero" clip-path="url(#df08972eaf)"><path style=" stroke:none;fill-rule:nonzero;fill:#000000;fill-opacity:1;" d="M 647.492188 677.761719 C 590.640625 732.546875 513.375 766.292969 428.375 766.292969 C 254.121094 766.292969 112.359375 624.527344 112.359375 450.265625 C 112.359375 276.003906 254.121094 134.238281 428.375 134.238281 C 602.628906 134.238281 744.386719 276.003906 744.386719 450.265625 C 744.386719 461.152344 743.835938 471.917969 742.753906 482.523438 L 787.707031 482.523438 C 788.652344 471.890625 789.15625 461.144531 789.15625 450.265625 C 789.15625 251.320312 627.3125 89.46875 428.375 89.46875 C 229.433594 89.46875 67.589844 251.320312 67.589844 450.265625 C 67.589844 649.210938 229.433594 811.066406 428.375 811.066406 C 524.933594 811.066406 612.753906 772.929688 677.574219 710.929688 L 647.492188 677.761719 "/></g><path style=" stroke:none;fill-rule:nonzero;fill:#000000;fill-opacity:1;" d="M 789.429688 628.644531 L 789.429688 500.433594 L 670.410156 500.433594 L 670.410156 628.644531 L 627.128906 628.644531 L 729.917969 741.992188 L 832.703125 628.644531 L 789.429688 628.644531 "/></g></svg>