<svg xmlns="http://www.w3.org/2000/svg" xmlns:xlink="http://www.w3.org/1999/xlink" width="1200" zoomAndPan="magnify" viewBox="0 0 900 899.99999" height="1200" preserveAspectRatio="xMidYMid meet" version="1.2"><defs><clipPath id="2530797e9d"><path d="M 76.214844 77 L 820 77 L 820 825.558594 L 76.214844 825.558594 Z M 76.214844 77 "/></clipPath></defs><g id="f3dac23f0e"><g clip-rule="nonzero" clip-path="url(#2530797e9d)"><path style=" stroke:none;fill-rule:evenodd;fill:#000000;fill-opacity:1;" d="M 368.65625 143.183594 L 644.320312 261.382812 C 648.777344 263.296875 651.667969 267.679688 651.667969 272.53125 L 651.667969 495.402344 C 651.667969 656.417969 534.523438 795.527344 376.015625 823.136719 L 366 824.917969 C 364.597656 825.167969 363.160156 825.167969 361.757812 824.917969 C 361.757812 824.917969 351.746094 823.136719 351.746094 823.136719 C 193.304688 795.527344 76.15625 656.421875 76.15625 495.402344 L 76.15625 272.53125 C 76.15625 267.683594 79.046875 263.296875 83.503906 261.386719 L 359.101562 143.1875 C 362.152344 141.878906 365.605469 141.878906 368.65625 143.183594 Z M 363.878906 167.53125 C 363.878906 167.53125 100.410156 280.53125 100.410156 280.53125 L 100.410156 495.402344 C 100.410156 644.6875 209.03125 773.65625 355.929688 799.246094 C 355.945312 799.246094 355.957031 799.25 355.972656 799.25 L 363.878906 800.65625 L 371.789062 799.25 C 371.800781 799.25 371.816406 799.246094 371.828125 799.242188 C 518.792969 773.652344 627.414062 644.6875 627.414062 495.402344 L 627.414062 280.53125 Z M 368.652344 210.628906 L 580.058594 301.234375 C 584.515625 303.144531 587.40625 307.53125 587.40625 312.382812 L 587.40625 496.078125 C 587.40625 626.136719 493.496094 738.960938 366.144531 763.1875 C 364.644531 763.472656 363.105469 763.472656 361.609375 763.1875 C 234.328125 738.960938 140.417969 626.136719 140.417969 496.078125 L 140.417969 312.382812 C 140.417969 307.53125 143.308594 303.144531 147.765625 301.234375 L 359.097656 210.628906 C 362.148438 209.324219 365.601562 209.320312 368.652344 210.628906 Z M 363.875 234.976562 L 164.671875 320.378906 L 164.671875 496.078125 C 164.671875 613.761719 249.101562 715.945312 363.878906 738.914062 C 478.722656 715.945312 563.15625 613.765625 563.15625 496.078125 C 563.15625 496.078125 563.15625 320.382812 563.15625 320.382812 Z M 288.632812 595.636719 L 220.925781 595.636719 C 214.226562 595.636719 208.796875 590.207031 208.796875 583.507812 L 208.796875 420.246094 C 208.796875 413.546875 214.226562 408.113281 220.925781 408.113281 L 289.382812 408.113281 C 302.648438 398.445312 317.246094 389.261719 328.792969 378.011719 C 339.375 367.703125 347.246094 355.527344 347.246094 338.59375 L 347.246094 289.035156 C 347.246094 282.335938 352.675781 276.902344 359.371094 276.902344 C 398.71875 276.902344 430.929688 309.121094 430.929688 348.480469 L 430.929688 386.921875 C 430.929688 387.476562 430.890625 388.027344 430.816406 388.578125 C 430.3125 392.214844 429.1875 396.472656 427.363281 401.019531 C 430.171875 400.304688 433.109375 399.925781 436.132812 399.925781 L 494.960938 399.925781 C 514.617188 399.925781 530.699219 416.007812 530.699219 435.671875 C 530.699219 442.300781 528.867188 448.527344 525.691406 453.863281 C 534.734375 460.363281 540.648438 470.972656 540.648438 482.902344 C 540.648438 496.917969 532.480469 509.117188 520.667969 514.964844 C 522.84375 519.574219 524.0625 524.71875 524.0625 530.132812 C 524.0625 543.382812 516.796875 554.988281 506.0625 561.171875 C 508.566406 566.046875 509.980469 571.566406 509.980469 577.398438 C 509.980469 597.0625 493.902344 613.144531 474.246094 613.144531 L 436.132812 613.144531 C 433.46875 613.144531 430.871094 612.851562 428.371094 612.289062 C 363.8125 623.414062 326.515625 629.40625 288.632812 595.636719 Z M 281.25 432.375 L 233.050781 432.375 L 233.050781 571.375 L 281.25 571.375 Z M 393.882812 498.164062 C 388.425781 502.445312 383.230469 505.765625 379.28125 508.035156 C 373.476562 511.367188 366.058594 509.363281 362.726562 503.554688 C 359.394531 497.75 361.398438 490.332031 367.203125 486.996094 C 379.828125 479.746094 415.191406 457.445312 392.320312 424.066406 C 389.019531 419.25 389.617188 412.761719 393.746094 408.632812 C 401.308594 401.066406 405.578125 392.316406 406.675781 385.992188 L 406.675781 348.480469 C 406.675781 326.648438 391.6875 308.144531 371.5 302.75 L 371.5 338.59375 C 371.5 362.859375 360.878906 380.617188 345.714844 395.390625 C 333.898438 406.902344 319.148438 416.480469 305.511719 426.371094 C 305.589844 511.753906 305.605469 562.375 305.550781 578.203125 C 323.539062 593.808594 341.527344 597.890625 363.914062 596.863281 C 375.8125 596.316406 388.832031 594.425781 403.511719 591.960938 C 401.511719 587.507812 400.394531 582.578125 400.394531 577.398438 C 400.394531 568.363281 403.789062 560.082031 409.371094 553.773438 C 403.792969 547.453125 400.394531 539.167969 400.394531 530.132812 C 400.394531 523.5 402.222656 517.277344 405.402344 511.941406 C 400.492188 508.410156 396.503906 503.667969 393.882812 498.164062 Z M 432.824219 588.398438 C 433.871094 588.714844 434.984375 588.886719 436.132812 588.886719 L 474.246094 588.886719 C 480.5625 588.886719 485.726562 583.71875 485.726562 577.398438 C 485.726562 571.082031 480.5625 565.914062 474.246094 565.914062 L 474.230469 565.914062 L 443.984375 565.878906 L 436.1875 565.914062 C 436.167969 565.914062 436.148438 565.914062 436.132812 565.914062 C 429.8125 565.914062 424.648438 571.082031 424.648438 577.398438 C 424.648438 582.429688 427.921875 586.730469 432.441406 588.273438 C 432.570312 588.316406 432.699219 588.359375 432.824219 588.398438 Z M 474.261719 541.65625 L 488.328125 541.65625 C 494.648438 541.65625 499.808594 536.472656 499.808594 530.132812 C 499.808594 523.816406 494.644531 518.648438 488.328125 518.648438 L 436.132812 518.648438 C 429.8125 518.648438 424.648438 523.816406 424.648438 530.132812 C 424.648438 536.4375 429.78125 541.625 436.078125 541.65625 C 436.09375 541.65625 436.113281 541.65625 436.132812 541.65625 L 443.910156 541.621094 C 443.933594 541.621094 443.957031 541.621094 443.980469 541.621094 L 474.246094 541.65625 Z M 426.179688 494.386719 L 504.914062 494.386719 C 511.230469 494.386719 516.394531 489.21875 516.394531 482.902344 C 516.394531 476.582031 511.230469 471.414062 504.914062 471.414062 L 426.179688 471.414062 C 419.863281 471.414062 414.695312 476.582031 414.695312 482.902344 C 414.695312 489.21875 419.863281 494.386719 426.179688 494.386719 Z M 494.960938 447.15625 C 501.277344 447.15625 506.445312 441.988281 506.445312 435.671875 C 506.445312 429.351562 501.277344 424.183594 494.960938 424.183594 L 436.132812 424.183594 C 429.8125 424.183594 424.648438 429.351562 424.648438 435.671875 C 424.648438 441.988281 429.8125 447.15625 436.132812 447.15625 Z M 679.601562 164.492188 L 679.601562 201.453125 C 679.601562 219.367188 665.0625 233.90625 647.15625 233.90625 C 629.25 233.90625 614.707031 219.367188 614.707031 201.453125 C 614.707031 201.453125 614.707031 164.492188 614.707031 164.492188 C 605.179688 164.066406 595.925781 159.460938 589.890625 151.152344 C 579.363281 136.660156 582.578125 116.347656 597.066406 105.820312 L 628.085938 83.277344 C 639.457031 75.015625 654.855469 75.015625 666.226562 83.277344 L 697.242188 105.820312 C 711.730469 116.347656 714.949219 136.660156 704.421875 151.152344 C 698.386719 159.460938 689.132812 164.066406 679.601562 164.492188 Z M 673.867188 139.050781 C 677.480469 141.292969 682.265625 140.386719 684.800781 136.894531 C 687.457031 133.234375 686.648438 128.105469 682.988281 125.445312 L 651.972656 102.90625 C 649.101562 100.816406 645.210938 100.816406 642.339844 102.90625 L 611.324219 125.445312 C 607.664062 128.105469 606.851562 133.234375 609.507812 136.894531 C 612.046875 140.386719 616.832031 141.292969 620.441406 139.050781 C 624.183594 136.730469 628.886719 136.621094 632.730469 138.757812 C 636.578125 140.898438 638.960938 144.957031 638.960938 149.359375 L 638.960938 201.453125 C 638.960938 205.976562 642.632812 209.648438 647.15625 209.648438 C 651.679688 209.648438 655.347656 205.976562 655.347656 201.453125 L 655.347656 149.359375 C 655.347656 144.957031 657.734375 140.898438 661.578125 138.757812 C 665.425781 136.621094 670.128906 136.730469 673.867188 139.050781 Z M 788.613281 281.648438 L 788.613281 318.609375 C 788.613281 336.519531 774.074219 351.0625 756.167969 351.0625 C 738.257812 351.0625 723.722656 336.519531 723.722656 318.609375 C 723.722656 318.609375 723.722656 281.648438 723.722656 281.648438 C 714.191406 281.21875 704.9375 276.617188 698.902344 268.308594 C 688.375 253.816406 691.59375 233.503906 706.078125 222.972656 L 737.09375 200.433594 C 748.46875 192.167969 763.867188 192.167969 775.238281 200.433594 L 806.257812 222.972656 C 820.742188 233.503906 823.960938 253.816406 813.433594 268.308594 C 807.398438 276.617188 798.144531 281.21875 788.613281 281.648438 Z M 782.878906 256.207031 C 786.492188 258.445312 791.277344 257.539062 793.8125 254.046875 C 796.472656 250.390625 795.660156 245.257812 792 242.601562 L 760.984375 220.058594 C 758.113281 217.972656 754.222656 217.972656 751.351562 220.058594 L 720.335938 242.601562 C 716.675781 245.257812 715.863281 250.390625 718.523438 254.046875 C 721.058594 257.539062 725.84375 258.445312 729.457031 256.207031 C 733.195312 253.886719 737.898438 253.773438 741.746094 255.914062 C 745.589844 258.054688 747.972656 262.113281 747.972656 266.511719 L 747.972656 318.609375 C 747.972656 323.132812 751.644531 326.804688 756.167969 326.804688 C 760.691406 326.804688 764.363281 323.132812 764.363281 318.609375 L 764.363281 266.511719 C 764.363281 262.113281 766.746094 258.054688 770.59375 255.914062 C 774.4375 253.773438 779.140625 253.886719 782.878906 256.207031 Z M 782.878906 256.207031 "/></g></g></svg>