<svg xmlns="http://www.w3.org/2000/svg" xmlns:xlink="http://www.w3.org/1999/xlink" width="1200" zoomAndPan="magnify" viewBox="0 0 900 899.99999" height="1200" preserveAspectRatio="xMidYMid meet" version="1.2"><defs><clipPath id="74ae8d3ae9"><path d="M 47.394531 47.394531 L 387 47.394531 L 387 387 L 47.394531 387 Z M 47.394531 47.394531 "/></clipPath><clipPath id="b94adee234"><path d="M 428 47.394531 L 852.894531 47.394531 L 852.894531 345 L 428 345 Z M 428 47.394531 "/></clipPath><clipPath id="bb090a266b"><path d="M 47.394531 428 L 345 428 L 345 852.894531 L 47.394531 852.894531 Z M 47.394531 428 "/></clipPath><clipPath id="ba4233b7b1"><path d="M 471 471 L 852.894531 471 L 852.894531 852.894531 L 471 852.894531 Z M 471 471 "/></clipPath></defs><g id="f798945028"><g clip-rule="nonzero" clip-path="url(#74ae8d3ae9)"><path style=" stroke:none;fill-rule:nonzero;fill:#ededed;fill-opacity:1;" d="M 386.429688 132.152344 C 386.429688 85.535156 348.289062 47.394531 301.671875 47.394531 L 132.152344 47.394531 C 85.535156 47.394531 47.394531 85.535156 47.394531 132.152344 L 47.394531 301.671875 C 47.394531 348.289062 85.535156 386.429688 132.152344 386.429688 L 301.671875 386.429688 C 348.289062 386.429688 386.429688 348.289062 386.429688 301.671875 Z M 344.050781 301.671875 C 344.050781 324.980469 324.980469 344.050781 301.671875 344.050781 L 132.152344 344.050781 C 108.84375 344.050781 89.773438 324.980469 89.773438 301.671875 L 89.773438 132.152344 C 89.773438 108.84375 108.84375 89.773438 132.152344 89.773438 L 301.671875 89.773438 C 324.980469 89.773438 344.050781 108.84375 344.050781 132.152344 Z M 344.050781 301.671875 "/></g><g clip-rule="nonzero" clip-path="url(#b94adee234)"><path style=" stroke:none;fill-rule:nonzero;fill:#ededed;fill-opacity:1;" d="M 789.03125 47.394531 L 619.515625 47.394531 C 584.339844 47.394531 555.945312 75.789062 555.945312 110.964844 L 555.945312 174.53125 L 449.996094 174.53125 C 438.132812 174.53125 428.808594 183.855469 428.808594 195.722656 C 428.808594 207.589844 438.132812 216.910156 449.996094 216.910156 L 555.945312 216.910156 L 555.945312 280.480469 C 555.945312 315.65625 584.339844 344.050781 619.515625 344.050781 L 789.03125 344.050781 C 824.207031 344.050781 852.601562 315.65625 852.601562 280.480469 L 852.601562 110.964844 C 852.601562 75.789062 824.207031 47.394531 789.03125 47.394531 Z M 810.222656 280.480469 C 810.222656 292.347656 800.898438 301.671875 789.03125 301.671875 L 619.515625 301.671875 C 607.648438 301.671875 598.324219 292.347656 598.324219 280.480469 L 598.324219 216.910156 L 652.996094 216.910156 L 646.636719 223.269531 C 638.160156 231.746094 638.160156 244.882812 646.636719 253.359375 C 650.875 257.597656 656.386719 259.714844 661.46875 259.714844 C 666.554688 259.714844 672.488281 257.597656 676.304688 253.359375 L 718.683594 210.976562 C 727.160156 202.503906 727.160156 189.363281 718.683594 180.890625 L 676.304688 138.511719 C 667.828125 130.035156 654.691406 130.035156 646.214844 138.511719 C 637.738281 146.984375 637.738281 160.125 646.214844 168.597656 L 652.570312 174.957031 L 597.902344 174.957031 L 597.902344 111.386719 C 597.902344 99.519531 607.226562 90.199219 619.089844 90.199219 L 788.609375 90.199219 C 800.476562 90.199219 809.796875 99.519531 809.796875 111.386719 L 809.796875 280.90625 Z M 810.222656 280.480469 "/></g><g clip-rule="nonzero" clip-path="url(#bb090a266b)"><path style=" stroke:none;fill-rule:nonzero;fill:#ededed;fill-opacity:1;" d="M 280.480469 555.945312 L 216.910156 555.945312 L 216.910156 449.996094 C 216.910156 438.132812 207.589844 428.808594 195.722656 428.808594 C 183.855469 428.808594 174.53125 438.132812 174.53125 449.996094 L 174.53125 555.945312 L 110.964844 555.945312 C 75.789062 555.945312 47.394531 584.339844 47.394531 619.515625 L 47.394531 789.03125 C 47.394531 824.207031 75.789062 852.601562 110.964844 852.601562 L 280.480469 852.601562 C 315.65625 852.601562 344.050781 824.207031 344.050781 789.03125 L 344.050781 619.515625 C 344.050781 584.339844 315.65625 555.945312 280.480469 555.945312 Z M 301.671875 789.03125 C 301.671875 800.898438 292.347656 810.222656 280.480469 810.222656 L 110.964844 810.222656 C 99.097656 810.222656 89.773438 800.898438 89.773438 789.03125 L 89.773438 619.515625 C 89.773438 607.648438 99.097656 598.324219 110.964844 598.324219 L 174.53125 598.324219 L 174.53125 652.996094 L 168.175781 646.636719 C 159.699219 638.160156 146.5625 638.160156 138.085938 646.636719 C 129.609375 655.113281 129.609375 668.25 138.085938 676.726562 L 180.464844 719.105469 C 184.703125 723.34375 190.210938 725.464844 195.296875 725.464844 C 200.382812 725.464844 206.316406 723.34375 210.132812 719.105469 L 252.511719 676.726562 C 260.984375 668.25 260.984375 655.113281 252.511719 646.636719 C 244.035156 638.160156 230.898438 638.160156 222.421875 646.636719 L 216.0625 652.996094 L 216.0625 598.324219 L 279.632812 598.324219 C 291.5 598.324219 300.824219 607.648438 300.824219 619.515625 L 300.824219 789.03125 Z M 301.671875 789.03125 "/></g><g clip-rule="nonzero" clip-path="url(#ba4233b7b1)"><path style=" stroke:none;fill-rule:nonzero;fill:#ededed;fill-opacity:1;" d="M 746.652344 471.1875 L 619.515625 471.1875 C 607.648438 471.1875 598.324219 480.511719 598.324219 492.378906 C 598.324219 504.242188 607.648438 513.566406 619.515625 513.566406 L 746.652344 513.566406 C 781.828125 513.566406 810.222656 541.960938 810.222656 577.136719 L 810.222656 746.652344 C 810.222656 781.828125 781.828125 810.222656 746.652344 810.222656 L 577.136719 810.222656 C 541.960938 810.222656 513.566406 781.828125 513.566406 746.652344 L 513.566406 619.515625 C 513.566406 607.648438 504.242188 598.324219 492.378906 598.324219 C 480.511719 598.324219 471.1875 607.648438 471.1875 619.515625 L 471.1875 746.652344 C 471.1875 805.136719 518.652344 852.601562 577.136719 852.601562 L 746.652344 852.601562 C 805.136719 852.601562 852.601562 805.136719 852.601562 746.652344 L 852.601562 577.136719 C 852.601562 518.652344 805.136719 471.1875 746.652344 471.1875 Z M 746.652344 471.1875 "/></g><path style=" stroke:none;fill-rule:nonzero;fill:#ededed;fill-opacity:1;" d="M 572.472656 602.5625 C 576.710938 606.800781 582.222656 608.921875 587.308594 608.921875 C 592.390625 608.921875 598.324219 606.800781 602.140625 602.5625 C 610.617188 594.085938 610.617188 580.949219 602.140625 572.472656 L 458.472656 428.808594 L 467.375 428.808594 C 479.238281 428.808594 488.5625 419.484375 488.5625 407.617188 C 488.5625 395.753906 479.238281 386.429688 467.375 386.429688 L 407.617188 386.429688 C 395.753906 386.429688 386.429688 395.753906 386.429688 407.617188 L 386.429688 467.375 C 386.429688 479.238281 395.753906 488.5625 407.617188 488.5625 C 419.484375 488.5625 428.808594 479.238281 428.808594 467.375 L 428.808594 458.472656 L 572.472656 602.140625 Z M 572.472656 602.5625 "/><path style=" stroke:none;fill-rule:nonzero;fill:#ededed;fill-opacity:1;" d="M 259.289062 132.152344 L 174.53125 132.152344 C 151.222656 132.152344 132.152344 151.222656 132.152344 174.53125 L 132.152344 259.289062 C 132.152344 282.597656 151.222656 301.671875 174.53125 301.671875 L 259.289062 301.671875 C 282.597656 301.671875 301.671875 282.597656 301.671875 259.289062 L 301.671875 174.53125 C 301.671875 151.222656 282.597656 132.152344 259.289062 132.152344 Z M 259.289062 280.480469 L 259.289062 259.289062 L 174.53125 259.289062 L 174.53125 174.53125 L 259.289062 174.53125 Z M 259.289062 280.480469 "/></g></svg>