<svg xmlns="http://www.w3.org/2000/svg" xmlns:xlink="http://www.w3.org/1999/xlink" width="1200" zoomAndPan="magnify" viewBox="0 0 900 899.99999" height="1200" preserveAspectRatio="xMidYMid meet" version="1.2"><defs><clipPath id="d6f17a0af9"><path d="M 28.367188 645 L 198 645 L 198 815 L 28.367188 815 Z M 28.367188 645 "/></clipPath></defs><g id="584f88d572"><g clip-rule="nonzero" clip-path="url(#d6f17a0af9)"><path style=" stroke:none;fill-rule:nonzero;fill:#ededed;fill-opacity:1;" d="M 195.828125 736.753906 L 178.519531 725.472656 L 176.6875 713.949219 L 189.667969 697.875 C 190.597656 696.730469 190.707031 695.117188 189.933594 693.835938 L 180.132812 677.832031 C 179.359375 676.574219 177.859375 675.933594 176.421875 676.242188 L 156.222656 680.503906 L 146.796875 673.636719 L 144.609375 653.105469 C 144.457031 651.625 143.375 650.410156 141.9375 650.058594 L 123.703125 645.6875 C 122.269531 645.332031 120.746094 645.929688 119.949219 647.1875 L 108.667969 664.496094 L 97.144531 666.328125 L 81.074219 653.347656 C 79.925781 652.421875 78.3125 652.308594 77.035156 653.082031 L 61.027344 662.886719 C 59.769531 663.65625 59.128906 665.136719 59.4375 666.59375 L 63.699219 686.792969 L 56.832031 696.222656 L 36.300781 698.40625 C 34.824219 698.5625 33.609375 699.644531 33.253906 701.078125 L 28.882812 719.3125 C 28.53125 720.75 29.125 722.273438 30.386719 723.066406 L 47.691406 734.347656 L 49.527344 745.871094 L 36.542969 761.945312 C 35.617188 763.09375 35.507812 764.703125 36.28125 765.984375 L 46.082031 781.988281 C 46.855469 783.25 48.332031 783.886719 49.789062 783.578125 L 69.992188 779.320312 L 79.417969 786.183594 L 81.601562 806.714844 C 81.757812 808.195312 82.839844 809.410156 84.273438 809.761719 L 102.53125 814.132812 C 103.96875 814.488281 105.492188 813.890625 106.285156 812.632812 L 117.566406 795.324219 L 129.089844 793.492188 L 145.164062 806.472656 C 145.957031 807.113281 146.949219 807.355469 147.921875 807.203125 C 148.363281 807.136719 148.804688 806.980469 149.203125 806.738281 L 165.207031 796.9375 C 166.46875 796.164062 167.105469 794.683594 166.796875 793.226562 L 162.539062 773.027344 L 169.402344 763.601562 L 189.933594 761.414062 C 191.414062 761.257812 192.628906 760.179688 192.980469 758.742188 L 197.351562 740.507812 C 197.660156 739.074219 197.066406 737.570312 195.828125 736.753906 Z M 117.28125 756.292969 C 102.707031 758.589844 89.042969 748.652344 86.746094 734.105469 C 84.453125 719.535156 94.386719 705.867188 108.933594 703.574219 C 123.503906 701.277344 137.171875 711.210938 139.46875 725.761719 C 141.761719 740.308594 131.828125 753.996094 117.28125 756.292969 Z M 117.28125 756.292969 "/></g><path style=" stroke:none;fill-rule:nonzero;fill:#ededed;fill-opacity:1;" d="M 868.84375 416.042969 L 846.542969 401.515625 L 844.203125 386.660156 L 860.9375 365.953125 C 862.132812 364.472656 862.285156 362.375 861.269531 360.742188 L 848.640625 340.121094 C 847.648438 338.488281 845.726562 337.671875 843.851562 338.066406 L 817.800781 343.566406 L 805.636719 334.734375 L 802.832031 308.265625 C 802.632812 306.367188 801.242188 304.796875 799.386719 304.355469 L 775.875 298.703125 C 774.023438 298.261719 772.078125 299.035156 771.042969 300.625 L 756.515625 322.921875 L 741.65625 325.261719 L 720.949219 308.527344 C 719.46875 307.335938 717.371094 307.183594 715.738281 308.199219 L 695.121094 320.824219 C 693.484375 321.820312 692.667969 323.738281 693.066406 325.617188 L 698.5625 351.667969 L 689.734375 363.832031 L 663.261719 366.636719 C 661.363281 366.835938 659.796875 368.226562 659.355469 370.078125 L 653.703125 393.589844 C 653.261719 395.445312 654.035156 397.386719 655.625 398.425781 L 677.921875 412.953125 L 680.261719 427.808594 L 663.503906 448.539062 C 662.3125 450.019531 662.160156 452.117188 663.175781 453.75 L 675.800781 474.371094 C 676.796875 476.003906 678.714844 476.820312 680.59375 476.425781 L 706.644531 470.925781 L 718.808594 479.757812 L 721.613281 506.226562 C 721.808594 508.125 723.203125 509.695312 725.054688 510.136719 L 748.566406 515.785156 C 750.421875 516.226562 752.363281 515.457031 753.402344 513.867188 L 767.929688 491.570312 L 782.785156 489.226562 L 803.496094 505.960938 C 804.511719 506.78125 805.8125 507.109375 807.050781 506.910156 C 807.625 506.824219 808.175781 506.625 808.703125 506.292969 L 829.324219 493.664062 C 830.957031 492.671875 831.773438 490.75 831.378906 488.875 L 825.878906 462.824219 L 834.710938 450.660156 L 861.179688 447.855469 C 863.082031 447.65625 864.648438 446.265625 865.089844 444.414062 L 870.742188 420.902344 C 871.203125 419.023438 870.433594 417.082031 868.84375 416.042969 Z M 767.574219 441.234375 C 748.808594 444.214844 731.191406 431.386719 728.210938 412.621094 C 725.230469 393.855469 738.058594 376.238281 756.824219 373.257812 C 775.589844 370.277344 793.207031 383.105469 796.1875 401.871094 C 799.167969 420.636719 786.363281 438.273438 767.574219 441.234375 Z M 767.574219 441.234375 "/><path style=" stroke:none;fill-rule:nonzero;fill:#ededed;fill-opacity:1;" d="M 294.777344 491.746094 C 290.695312 491.746094 287.382812 495.058594 287.382812 499.140625 L 287.382812 714.058594 C 287.382812 718.144531 290.695312 721.453125 294.777344 721.453125 L 394.125 721.453125 C 398.207031 721.453125 401.519531 718.144531 401.519531 714.058594 L 401.519531 499.140625 C 401.519531 495.058594 398.207031 491.746094 394.125 491.746094 Z M 294.777344 491.746094 "/><path style=" stroke:none;fill-rule:nonzero;fill:#ededed;fill-opacity:1;" d="M 443 407.257812 C 438.917969 407.257812 435.605469 410.570312 435.605469 414.652344 L 435.605469 714.058594 C 435.605469 718.144531 438.917969 721.453125 443 721.453125 L 542.347656 721.453125 C 546.433594 721.453125 549.742188 718.144531 549.742188 714.058594 L 549.742188 414.652344 C 549.742188 410.570312 546.433594 407.257812 542.347656 407.257812 Z M 443 407.257812 "/><path style=" stroke:none;fill-rule:nonzero;fill:#ededed;fill-opacity:1;" d="M 192.871094 472.429688 C 217.421875 468.652344 241.835938 463.132812 265.835938 455.914062 C 289.832031 448.695312 313.453125 439.753906 336.414062 429.15625 C 359.375 418.558594 381.714844 406.308594 403.175781 392.507812 C 446.09375 364.914062 485.523438 331.070312 519.785156 292.039062 C 536.917969 272.523438 552.769531 251.746094 567.140625 229.847656 C 574.335938 218.898438 581.136719 207.683594 587.582031 196.222656 C 588.070312 195.386719 588.53125 194.546875 588.996094 193.707031 L 614.273438 206.359375 C 619.132812 208.785156 624.648438 204.636719 623.699219 199.316406 L 604.582031 92 C 603.808594 87.648438 599.0625 85.289062 595.132812 87.273438 L 497.820312 136.417969 C 492.984375 138.867188 493.003906 145.777344 497.839844 148.183594 L 523.78125 161.144531 C 523.316406 162.335938 522.855469 163.550781 522.367188 164.742188 C 518.105469 175.40625 513.472656 185.9375 508.460938 196.3125 C 498.4375 217.085938 486.914062 237.242188 473.976562 256.605469 C 448.101562 295.304688 416.53125 330.761719 380.28125 361.425781 C 362.179688 376.769531 342.90625 390.898438 322.660156 403.679688 C 302.394531 416.464844 281.15625 427.875 259.125 437.8125 C 237.089844 447.746094 214.242188 456.179688 190.816406 463 C 179.09375 466.421875 167.238281 469.425781 155.273438 472.03125 C 143.308594 474.636719 131.210938 476.800781 119.023438 478.585938 C 131.320312 478.410156 143.660156 477.835938 155.980469 476.800781 C 168.277344 475.785156 180.597656 474.328125 192.871094 472.429688 Z M 192.871094 472.429688 "/><path style=" stroke:none;fill-rule:nonzero;fill:#ededed;fill-opacity:1;" d="M 679.664062 496.382812 C 675.539062 496.382812 671.429688 495.320312 667.832031 493.3125 C 664.167969 491.28125 661.054688 488.300781 658.871094 484.726562 L 646.242188 464.105469 C 640.855469 455.320312 641.605469 444.035156 648.074219 436.046875 L 658.03125 423.726562 L 644.761719 415.09375 C 636.128906 409.464844 631.957031 398.976562 634.363281 388.957031 L 640.015625 365.445312 C 642.421875 355.421875 650.921875 347.957031 661.164062 346.875 L 676.882812 345.199219 L 673.617188 329.699219 C 671.496094 319.632812 675.957031 309.234375 684.742188 303.871094 L 692.867188 298.882812 C 692.160156 298.660156 691.386719 298.527344 690.617188 298.527344 L 591.269531 298.527344 C 587.1875 298.527344 583.875 301.839844 583.875 305.925781 L 583.875 714.015625 C 583.875 718.097656 587.1875 721.410156 591.269531 721.410156 L 690.617188 721.410156 C 694.699219 721.410156 698.011719 718.097656 698.011719 714.015625 L 698.011719 493.027344 L 684.699219 495.828125 C 683.019531 496.226562 681.34375 496.382812 679.664062 496.382812 Z M 679.664062 496.382812 "/><path style=" stroke:none;fill-rule:nonzero;fill:#ededed;fill-opacity:1;" d="M 253.296875 714.058594 L 253.296875 571.15625 C 253.296875 567.070312 249.984375 563.761719 245.898438 563.761719 L 146.554688 563.761719 C 142.46875 563.761719 139.15625 567.070312 139.15625 571.15625 L 139.15625 628.996094 L 146.574219 630.785156 C 156.179688 633.082031 163.308594 641.226562 164.371094 651.050781 L 165.140625 658.359375 L 172.316406 656.835938 C 173.90625 656.503906 175.519531 656.328125 177.152344 656.328125 C 185.230469 656.328125 192.871094 660.609375 197.085938 667.5 L 206.890625 683.503906 C 212.054688 691.917969 211.347656 702.734375 205.144531 710.417969 L 200.53125 716.132812 L 206.691406 720.152344 C 207.332031 720.570312 207.949219 721.011719 208.546875 721.5 L 245.921875 721.5 C 249.984375 721.453125 253.296875 718.144531 253.296875 714.058594 Z M 253.296875 714.058594 "/><path style=" stroke:none;fill-rule:nonzero;fill:#ededed;fill-opacity:1;" d="M 209.140625 745.585938 L 697.988281 745.585938 L 697.988281 767.660156 L 209.140625 767.660156 Z M 209.140625 745.585938 "/></g></svg>