<svg xmlns="http://www.w3.org/2000/svg" xmlns:xlink="http://www.w3.org/1999/xlink" width="1200" zoomAndPan="magnify" viewBox="0 0 900 899.99999" height="1200" preserveAspectRatio="xMidYMid meet" version="1.2"><defs><clipPath id="d2aa878356"><path d="M 42.875 830 L 857.375 830 L 857.375 857.375 L 42.875 857.375 Z M 42.875 830 "/></clipPath><clipPath id="fe10012228"><path d="M 331 42.875 L 784 42.875 L 784 272 L 331 272 Z M 331 42.875 "/></clipPath><clipPath id="b6982dee78"><path d="M 42.875 116 L 272 116 L 272 569 L 42.875 569 Z M 42.875 116 "/></clipPath><clipPath id="302bbba76d"><path d="M 628 292 L 857.375 292 L 857.375 744 L 628 744 Z M 628 292 "/></clipPath><clipPath id="cbcc893d48"><path d="M 42.875 279 L 857.375 279 L 857.375 779 L 42.875 779 Z M 42.875 279 "/></clipPath></defs><g id="97872c62cc"><g clip-rule="nonzero" clip-path="url(#d2aa878356)"><path style=" stroke:none;fill-rule:nonzero;fill:#ededed;fill-opacity:1;" d="M 42.875 857.117188 L 857.117188 857.117188 L 857.117188 830.851562 L 42.875 830.851562 L 42.875 857.117188 "/></g><g clip-rule="nonzero" clip-path="url(#fe10012228)"><path style=" stroke:none;fill-rule:nonzero;fill:#ededed;fill-opacity:1;" d="M 358.066406 80.328125 C 388.027344 72.886719 418.910156 69.144531 449.996094 69.144531 C 548.289062 69.144531 641.65625 106.539062 712.8125 174.460938 L 722.097656 183.335938 L 731.792969 173.640625 L 747.128906 234.945312 L 685.828125 219.605469 L 703.578125 201.804688 L 693.828125 192.570312 C 627.703125 129.933594 541.109375 95.410156 449.996094 95.410156 C 418.808594 95.410156 387.925781 99.460938 358.066406 107.414062 Z M 361.605469 133.679688 C 390.234375 125.726562 419.988281 121.675781 449.996094 121.675781 C 529.871094 121.675781 605.953125 150.300781 665.769531 202.523438 L 634.421875 233.867188 L 783.246094 271.0625 L 746.054688 122.238281 L 721.53125 146.761719 C 646.683594 79.660156 550.804688 42.875 449.996094 42.875 C 413.164062 42.875 376.636719 47.800781 341.445312 57.496094 L 331.800781 60.164062 L 331.800781 135.421875 L 358.683594 134.191406 L 361.605469 133.679688 "/></g><g clip-rule="nonzero" clip-path="url(#b6982dee78)"><path style=" stroke:none;fill-rule:nonzero;fill:#ededed;fill-opacity:1;" d="M 174.460938 187.183594 L 183.335938 177.898438 L 173.640625 168.203125 L 234.945312 152.867188 L 219.605469 214.167969 L 201.804688 196.367188 L 192.570312 206.167969 C 129.882812 272.292969 95.410156 358.886719 95.410156 449.996094 C 95.410156 481.1875 99.460938 512.070312 107.464844 541.929688 L 80.328125 541.929688 C 72.886719 511.96875 69.144531 481.085938 69.144531 449.996094 C 69.144531 351.707031 106.539062 258.339844 174.460938 187.183594 Z M 57.496094 558.550781 L 60.164062 568.195312 L 135.421875 568.195312 L 134.191406 541.3125 L 133.730469 538.390625 C 125.726562 509.761719 121.675781 480.007812 121.675781 449.996094 C 121.675781 370.175781 150.300781 294.042969 202.523438 234.226562 L 233.867188 265.574219 L 271.0625 116.75 L 122.238281 153.941406 L 146.761719 178.464844 C 79.660156 253.3125 42.875 349.191406 42.875 449.996094 C 42.875 486.832031 47.800781 523.359375 57.496094 558.550781 "/></g><g clip-rule="nonzero" clip-path="url(#302bbba76d)"><path style=" stroke:none;fill-rule:nonzero;fill:#ededed;fill-opacity:1;" d="M 819.667969 318.667969 C 827.109375 348.628906 830.851562 379.511719 830.851562 410.597656 C 830.851562 508.890625 793.453125 602.257812 725.53125 673.410156 L 716.65625 682.695312 L 726.355469 692.394531 L 665.050781 707.730469 L 680.386719 646.425781 L 698.191406 664.230469 L 707.425781 654.429688 C 770.0625 588.304688 804.585938 501.707031 804.585938 410.597656 C 804.585938 379.410156 800.535156 348.527344 792.582031 318.667969 Z M 765.804688 319.285156 L 766.316406 322.207031 C 774.269531 350.835938 778.320312 380.589844 778.320312 410.597656 C 778.320312 490.421875 749.695312 566.554688 697.472656 626.371094 L 666.128906 595.023438 L 628.933594 743.847656 L 777.757812 706.65625 L 753.234375 682.132812 C 820.335938 607.285156 857.117188 511.40625 857.117188 410.597656 C 857.117188 373.765625 852.195312 337.238281 842.5 302.046875 L 839.832031 292.402344 L 764.574219 292.402344 L 765.804688 319.285156 "/></g><path style=" stroke:none;fill-rule:nonzero;fill:#ededed;fill-opacity:1;" d="M 318.667969 541.929688 L 318.667969 568.195312 L 344.933594 568.195312 L 344.933594 541.929688 L 318.667969 541.929688 "/><path style=" stroke:none;fill-rule:nonzero;fill:#ededed;fill-opacity:1;" d="M 213.605469 568.195312 L 239.871094 568.195312 L 239.871094 541.929688 L 213.605469 541.929688 L 213.605469 568.195312 "/><path style=" stroke:none;fill-rule:nonzero;fill:#ededed;fill-opacity:1;" d="M 266.136719 568.195312 L 292.402344 568.195312 L 292.402344 541.929688 L 266.136719 541.929688 L 266.136719 568.195312 "/><path style=" stroke:none;fill-rule:nonzero;fill:#ededed;fill-opacity:1;" d="M 266.136719 620.726562 L 292.402344 620.726562 L 292.402344 594.460938 L 266.136719 594.460938 L 266.136719 620.726562 "/><path style=" stroke:none;fill-rule:nonzero;fill:#ededed;fill-opacity:1;" d="M 213.605469 620.726562 L 239.871094 620.726562 L 239.871094 594.460938 L 213.605469 594.460938 L 213.605469 620.726562 "/><path style=" stroke:none;fill-rule:nonzero;fill:#ededed;fill-opacity:1;" d="M 318.667969 620.726562 L 344.933594 620.726562 L 344.933594 594.460938 L 318.667969 594.460938 L 318.667969 620.726562 "/><path style=" stroke:none;fill-rule:nonzero;fill:#ededed;fill-opacity:1;" d="M 266.136719 673.257812 L 292.402344 673.257812 L 292.402344 646.992188 L 266.136719 646.992188 L 266.136719 673.257812 "/><path style=" stroke:none;fill-rule:nonzero;fill:#ededed;fill-opacity:1;" d="M 318.667969 673.257812 L 344.933594 673.257812 L 344.933594 646.992188 L 318.667969 646.992188 L 318.667969 673.257812 "/><path style=" stroke:none;fill-rule:nonzero;fill:#ededed;fill-opacity:1;" d="M 213.605469 673.257812 L 239.871094 673.257812 L 239.871094 646.992188 L 213.605469 646.992188 L 213.605469 673.257812 "/><path style=" stroke:none;fill-rule:nonzero;fill:#ededed;fill-opacity:1;" d="M 213.605469 725.789062 L 239.871094 725.789062 L 239.871094 699.523438 L 213.605469 699.523438 L 213.605469 725.789062 "/><path style=" stroke:none;fill-rule:nonzero;fill:#ededed;fill-opacity:1;" d="M 318.667969 725.789062 L 344.933594 725.789062 L 344.933594 699.523438 L 318.667969 699.523438 L 318.667969 725.789062 "/><path style=" stroke:none;fill-rule:nonzero;fill:#ededed;fill-opacity:1;" d="M 266.136719 725.789062 L 292.402344 725.789062 L 292.402344 699.523438 L 266.136719 699.523438 L 266.136719 725.789062 "/><path style=" stroke:none;fill-rule:nonzero;fill:#ededed;fill-opacity:1;" d="M 239.871094 463.132812 L 266.136719 463.132812 L 266.136719 436.863281 L 239.871094 436.863281 L 239.871094 463.132812 "/><path style=" stroke:none;fill-rule:nonzero;fill:#ededed;fill-opacity:1;" d="M 344.933594 463.132812 L 371.199219 463.132812 L 371.199219 436.863281 L 344.933594 436.863281 L 344.933594 463.132812 "/><path style=" stroke:none;fill-rule:nonzero;fill:#ededed;fill-opacity:1;" d="M 292.402344 463.132812 L 318.667969 463.132812 L 318.667969 436.863281 L 292.402344 436.863281 L 292.402344 463.132812 "/><path style=" stroke:none;fill-rule:nonzero;fill:#ededed;fill-opacity:1;" d="M 423.730469 436.863281 L 397.464844 436.863281 L 397.464844 463.132812 L 423.730469 463.132812 L 423.730469 436.863281 "/><path style=" stroke:none;fill-rule:nonzero;fill:#ededed;fill-opacity:1;" d="M 344.933594 410.597656 L 371.199219 410.597656 L 371.199219 384.332031 L 344.933594 384.332031 L 344.933594 410.597656 "/><path style=" stroke:none;fill-rule:nonzero;fill:#ededed;fill-opacity:1;" d="M 423.730469 384.332031 L 397.464844 384.332031 L 397.464844 410.597656 L 423.730469 410.597656 L 423.730469 384.332031 "/><path style=" stroke:none;fill-rule:nonzero;fill:#ededed;fill-opacity:1;" d="M 292.402344 410.597656 L 318.667969 410.597656 L 318.667969 384.332031 L 292.402344 384.332031 L 292.402344 410.597656 "/><path style=" stroke:none;fill-rule:nonzero;fill:#ededed;fill-opacity:1;" d="M 239.871094 410.597656 L 266.136719 410.597656 L 266.136719 384.332031 L 239.871094 384.332031 L 239.871094 410.597656 "/><path style=" stroke:none;fill-rule:nonzero;fill:#ededed;fill-opacity:1;" d="M 239.871094 358.066406 L 266.136719 358.066406 L 266.136719 331.800781 L 239.871094 331.800781 L 239.871094 358.066406 "/><path style=" stroke:none;fill-rule:nonzero;fill:#ededed;fill-opacity:1;" d="M 344.933594 358.066406 L 371.199219 358.066406 L 371.199219 331.800781 L 344.933594 331.800781 L 344.933594 358.066406 "/><path style=" stroke:none;fill-rule:nonzero;fill:#ededed;fill-opacity:1;" d="M 292.402344 358.066406 L 318.667969 358.066406 L 318.667969 331.800781 L 292.402344 331.800781 L 292.402344 358.066406 "/><path style=" stroke:none;fill-rule:nonzero;fill:#ededed;fill-opacity:1;" d="M 423.730469 331.800781 L 397.464844 331.800781 L 397.464844 358.066406 L 423.730469 358.066406 L 423.730469 331.800781 "/><g clip-rule="nonzero" clip-path="url(#cbcc893d48)"><path style=" stroke:none;fill-rule:nonzero;fill:#ededed;fill-opacity:1;" d="M 187.339844 515.664062 L 371.199219 515.664062 L 371.199219 752.054688 L 187.339844 752.054688 Z M 213.605469 305.535156 L 449.996094 305.535156 L 449.996094 752.054688 L 397.464844 752.054688 L 397.464844 489.398438 L 213.605469 489.398438 Z M 541.929688 410.597656 L 581.328125 410.597656 L 581.328125 464.566406 C 564.601562 447.484375 541.363281 436.863281 515.664062 436.863281 L 476.265625 436.863281 L 476.265625 382.898438 C 492.988281 399.980469 516.226562 410.597656 541.929688 410.597656 Z M 515.664062 331.800781 C 547.367188 331.800781 573.890625 354.375 579.992188 384.332031 L 541.929688 384.332031 C 510.226562 384.332031 483.703125 361.761719 477.597656 331.800781 Z M 477.597656 463.132812 L 515.664062 463.132812 C 547.367188 463.132812 573.890625 485.703125 579.992188 515.664062 L 541.929688 515.664062 C 510.226562 515.664062 483.703125 493.089844 477.597656 463.132812 Z M 581.328125 752.054688 L 476.265625 752.054688 L 476.265625 514.226562 C 492.988281 531.308594 516.226562 541.929688 541.929688 541.929688 L 581.328125 541.929688 Z M 673.257812 384.332031 L 711.324219 384.332031 C 705.21875 414.292969 678.695312 436.863281 646.992188 436.863281 L 608.925781 436.863281 C 615.03125 406.90625 641.554688 384.332031 673.257812 384.332031 Z M 673.257812 515.664062 L 711.324219 515.664062 C 705.21875 545.621094 678.695312 568.195312 646.992188 568.195312 L 608.925781 568.195312 C 615.03125 538.234375 641.554688 515.664062 673.257812 515.664062 Z M 607.59375 594.460938 L 646.992188 594.460938 C 697.675781 594.460938 738.921875 553.214844 738.921875 502.53125 L 738.921875 489.398438 L 673.257812 489.398438 C 647.554688 489.398438 624.316406 500.015625 607.59375 517.097656 L 607.59375 463.132812 L 646.992188 463.132812 C 697.675781 463.132812 738.921875 421.886719 738.921875 371.199219 L 738.921875 358.066406 L 673.257812 358.066406 C 647.195312 358.066406 623.648438 369.046875 606.875 386.539062 C 601.4375 341.035156 562.652344 305.535156 515.664062 305.535156 L 476.265625 305.535156 L 476.265625 279.269531 L 187.339844 279.269531 L 187.339844 489.398438 L 161.074219 489.398438 L 161.074219 752.054688 L 42.875 752.054688 L 42.875 778.320312 L 857.117188 778.320312 L 857.117188 752.054688 L 607.59375 752.054688 L 607.59375 594.460938 "/></g></g></svg>