<svg xmlns="http://www.w3.org/2000/svg" xmlns:xlink="http://www.w3.org/1999/xlink" width="1200" zoomAndPan="magnify" viewBox="0 0 900 899.99999" height="1200" preserveAspectRatio="xMidYMid meet" version="1.2"><defs><clipPath id="49f05c7d81"><path d="M 90 58 L 809 58 L 809 842.128906 L 90 842.128906 Z M 90 58 "/></clipPath></defs><g id="b013edb9ab"><g clip-rule="nonzero" clip-path="url(#49f05c7d81)"><path style=" stroke:none;fill-rule:nonzero;fill:#14427c;fill-opacity:1;" d="M 475.191406 419.882812 C 439.828125 419.882812 411.050781 448.660156 411.050781 484.023438 C 411.050781 519.386719 439.828125 548.164062 475.191406 548.164062 C 510.554688 548.164062 539.332031 519.386719 539.332031 484.023438 C 539.332031 448.660156 510.570312 419.882812 475.191406 419.882812 Z M 475.191406 528.65625 C 450.574219 528.65625 430.558594 508.640625 430.558594 484.023438 C 430.558594 459.40625 450.574219 439.390625 475.191406 439.390625 C 499.808594 439.390625 519.824219 459.40625 519.824219 484.023438 C 519.824219 508.640625 499.808594 528.65625 475.191406 528.65625 Z M 808.859375 451.066406 C 808.859375 545.777344 771.984375 634.808594 705.011719 701.78125 C 640.351562 766.445312 555.105469 803.058594 464.054688 805.496094 L 464.054688 832.375 C 464.054688 836.324219 461.679688 839.871094 458.039062 841.382812 C 456.835938 841.886719 455.566406 842.128906 454.316406 842.128906 C 451.777344 842.128906 449.273438 841.136719 447.421875 839.269531 L 355.054688 746.898438 C 353.214844 745.078125 352.191406 742.589844 352.191406 740.007812 C 352.191406 737.421875 353.214844 734.933594 355.054688 733.113281 L 447.421875 640.746094 C 450.21875 637.949219 454.414062 637.117188 458.054688 638.632812 C 461.695312 640.144531 464.070312 643.703125 464.070312 647.636719 L 464.070312 674.304688 C 582.761719 669.183594 677.761719 571.007812 677.761719 451.066406 C 677.761719 358.714844 619.75 274.703125 533.414062 242.023438 C 528.375 240.121094 525.839844 234.480469 527.742188 229.4375 C 529.644531 224.398438 535.285156 221.863281 540.324219 223.765625 C 585.980469 241.046875 625.003906 271.371094 653.195312 311.464844 C 682.039062 352.472656 697.273438 400.746094 697.273438 451.050781 C 697.273438 585.023438 588.289062 694.007812 454.316406 694.007812 C 448.933594 694.007812 444.558594 689.636719 444.558594 684.253906 L 444.558594 671.183594 L 375.75 739.988281 L 444.558594 808.796875 L 444.558594 795.855469 C 444.558594 790.472656 448.933594 786.101562 454.316406 786.101562 C 639.066406 786.101562 789.367188 635.800781 789.367188 451.050781 C 789.367188 313.140625 702.851562 187.34375 574.09375 138.046875 C 569.070312 136.113281 566.550781 130.488281 568.46875 125.445312 C 570.40625 120.40625 576.046875 117.902344 581.070312 119.820312 C 647.375 145.199219 704.023438 189.492188 744.914062 247.875 C 786.730469 307.628906 808.859375 377.882812 808.859375 451.066406 Z M 324.8125 772.753906 C 323.265625 776.539062 319.625 778.832031 315.769531 778.832031 C 314.550781 778.832031 313.300781 778.605469 312.097656 778.117188 C 247.5 751.875 192.445312 707.503906 152.871094 649.800781 C 112.339844 590.699219 90.925781 521.4375 90.925781 449.503906 C 90.925781 354.796875 127.800781 265.761719 194.769531 198.789062 C 259.433594 134.128906 344.679688 97.511719 435.730469 95.074219 L 435.730469 68.199219 C 435.730469 64.246094 438.105469 60.703125 441.746094 59.191406 C 445.390625 57.679688 449.582031 58.507812 452.378906 61.304688 L 544.746094 153.671875 C 548.550781 157.476562 548.550781 163.65625 544.746094 167.460938 L 452.378906 259.828125 C 449.582031 262.625 445.386719 263.453125 441.746094 261.941406 C 438.105469 260.429688 435.730469 256.867188 435.730469 252.933594 L 435.730469 226.269531 C 317.039062 231.390625 222.039062 329.5625 222.039062 449.503906 C 222.039062 541.855469 280.050781 625.867188 366.386719 658.546875 C 371.425781 660.449219 373.960938 666.09375 372.058594 671.132812 C 370.15625 676.171875 364.515625 678.710938 359.476562 676.808594 C 313.820312 659.523438 274.796875 629.199219 246.605469 589.105469 C 217.761719 548.101562 202.527344 499.828125 202.527344 449.523438 C 202.527344 315.546875 311.511719 206.5625 445.484375 206.5625 C 450.867188 206.5625 455.242188 210.9375 455.242188 216.316406 L 455.242188 229.390625 L 524.050781 160.582031 L 455.257812 91.757812 L 455.257812 104.699219 C 455.257812 110.082031 450.882812 114.453125 445.503906 114.453125 C 260.75 114.453125 110.453125 264.753906 110.453125 449.503906 C 110.453125 586.570312 192.496094 708.464844 319.460938 760.054688 C 324.4375 762.070312 326.84375 767.761719 324.8125 772.753906 Z M 517.464844 336.636719 L 304.78125 336.636719 C 299.398438 336.636719 295.023438 341.007812 295.023438 346.390625 L 295.023438 559.074219 C 295.023438 564.457031 299.398438 568.832031 304.78125 568.832031 L 419.40625 568.832031 C 427.714844 574.308594 436.804688 578.539062 446.414062 581.367188 L 449.355469 602.390625 C 450.039062 607.203125 454.152344 610.796875 459.015625 610.796875 L 491.335938 610.796875 C 496.199219 610.796875 500.328125 607.21875 500.996094 602.390625 L 503.9375 581.367188 C 519.367188 576.832031 533.382812 568.734375 545.074219 557.597656 L 564.777344 565.5625 C 569.28125 567.382812 574.453125 565.613281 576.890625 561.402344 L 593.054688 533.417969 C 595.492188 529.207031 594.433594 523.84375 590.613281 520.851562 L 573.867188 507.777344 C 575.722656 500.023438 576.664062 492.054688 576.664062 484.023438 C 576.664062 475.976562 575.722656 468.007812 573.867188 460.269531 L 590.597656 447.195312 C 594.433594 444.207031 595.476562 438.839844 593.039062 434.628906 L 576.875 406.648438 C 574.4375 402.4375 569.28125 400.664062 564.761719 402.484375 L 545.058594 410.453125 C 539.578125 405.25 533.578125 400.726562 527.1875 396.890625 L 527.1875 346.390625 C 527.21875 341.007812 522.863281 336.636719 517.464844 336.636719 Z M 314.535156 356.144531 L 507.710938 356.144531 L 507.710938 387.898438 C 506.457031 387.476562 505.222656 387.054688 503.953125 386.679688 L 501.011719 365.65625 C 500.328125 360.84375 496.214844 357.25 491.351562 357.25 L 459.03125 357.25 C 454.167969 357.25 450.039062 360.828125 449.371094 365.65625 L 446.429688 386.679688 C 431.015625 391.214844 416.984375 399.3125 405.292969 410.453125 L 385.585938 402.484375 C 381.085938 400.664062 375.914062 402.4375 373.476562 406.648438 L 357.3125 434.628906 C 354.875 438.839844 355.929688 444.203125 359.753906 447.195312 L 376.5 460.269531 C 374.644531 468.023438 373.703125 475.976562 373.703125 484.023438 C 373.703125 492.070312 374.644531 500.039062 376.5 507.777344 L 359.769531 520.851562 C 355.929688 523.84375 354.890625 529.207031 357.328125 533.417969 L 366.515625 549.320312 L 314.550781 549.320312 L 314.550781 356.144531 Z M 535.527344 428.53125 C 538.277344 431.523438 542.601562 432.5 546.359375 430.96875 L 564.242188 423.734375 L 571.917969 437.035156 L 556.730469 448.886719 C 553.527344 451.390625 552.210938 455.617188 553.429688 459.488281 C 555.902344 467.390625 557.152344 475.632812 557.152344 484.007812 C 557.152344 492.378906 555.902344 500.625 553.429688 508.527344 C 552.210938 512.394531 553.527344 516.621094 556.730469 519.125 L 571.917969 530.980469 L 564.242188 544.28125 L 546.359375 537.042969 C 542.585938 535.515625 538.277344 536.492188 535.511719 539.484375 C 524.097656 551.890625 509.433594 560.375 493.078125 564 C 489.109375 564.878906 486.101562 568.148438 485.53125 572.164062 L 482.847656 591.25 L 467.5 591.25 L 464.816406 572.164062 C 464.25 568.132812 461.242188 564.878906 457.273438 564 C 440.933594 560.359375 426.25 551.890625 414.835938 539.46875 C 412.089844 536.476562 407.78125 535.5 404.007812 537.027344 L 386.125 544.261719 L 378.449219 530.964844 L 393.636719 519.109375 C 396.839844 516.605469 398.15625 512.378906 396.9375 508.507812 C 394.464844 500.609375 393.214844 492.347656 393.214844 483.992188 C 393.214844 475.632812 394.464844 467.375 396.9375 459.472656 C 398.15625 455.601562 396.839844 451.375 393.636719 448.871094 L 378.449219 437.019531 L 386.125 423.71875 L 404.007812 430.953125 C 407.78125 432.480469 412.089844 431.507812 414.835938 428.515625 C 426.25 416.109375 440.933594 407.621094 457.289062 403.996094 C 461.257812 403.117188 464.265625 399.851562 464.835938 395.835938 L 467.515625 376.746094 L 482.867188 376.746094 L 485.546875 395.835938 C 486.117188 399.867188 489.125 403.117188 493.09375 403.996094 C 499.988281 405.523438 506.570312 407.929688 512.75 411.117188 C 512.878906 411.183594 513.011719 411.246094 513.140625 411.3125 C 521.464844 415.6875 529.023438 421.476562 535.527344 428.53125 Z M 535.527344 428.53125 "/></g></g></svg>