<svg xmlns="http://www.w3.org/2000/svg" xmlns:xlink="http://www.w3.org/1999/xlink" width="1200" zoomAndPan="magnify" viewBox="0 0 900 899.99999" height="1200" preserveAspectRatio="xMidYMid meet" version="1.2"><defs><clipPath id="b2686ed292"><path d="M 61.007812 460 L 90 460 L 90 522 L 61.007812 522 Z M 61.007812 460 "/></clipPath><clipPath id="46c34b150b"><path d="M 377 61.007812 L 439 61.007812 L 439 90 L 377 90 Z M 377 61.007812 "/></clipPath><clipPath id="3b4a09bc8e"><path d="M 459 810 L 521 810 L 521 838.757812 L 459 838.757812 Z M 459 810 "/></clipPath><clipPath id="31382d8eda"><path d="M 607 212 L 838.757812 212 L 838.757812 383 L 607 383 Z M 607 212 "/></clipPath><clipPath id="5e01b094de"><path d="M 61.007812 212 L 292 212 L 292 384 L 61.007812 384 Z M 61.007812 212 "/></clipPath></defs><g id="b8e4ddcde0"><path style=" stroke:none;fill-rule:nonzero;fill:#ededed;fill-opacity:1;" d="M 668.625 705.6875 L 668.625 534.949219 C 668.625 465.679688 620.015625 407.347656 555 392.765625 C 547.707031 400.664062 539.203125 407.957031 529.480469 414.03125 C 593.28125 417.679688 644.320312 470.542969 644.320312 534.949219 L 644.320312 692.929688 L 255.445312 692.929688 L 255.445312 534.949219 C 255.445312 469.933594 306.484375 417.070312 369.675781 413.425781 C 360.5625 407.347656 352.054688 400.058594 344.15625 392.160156 C 279.75 407.347656 231.140625 465.679688 231.140625 534.949219 L 231.140625 705.082031 C 231.140625 711.765625 236.609375 717.234375 243.292969 717.234375 L 656.472656 717.234375 C 663.15625 717.839844 668.625 712.371094 668.625 705.6875 Z M 668.625 705.6875 "/><path style=" stroke:none;fill-rule:nonzero;fill:#ededed;fill-opacity:1;" d="M 449.882812 413.425781 C 516.71875 413.425781 571.40625 358.738281 571.40625 291.902344 C 571.40625 225.0625 516.71875 170.378906 449.882812 170.378906 C 383.042969 170.378906 328.359375 225.0625 328.359375 291.902344 C 328.359375 358.738281 383.042969 413.425781 449.882812 413.425781 Z M 449.882812 194.074219 C 503.351562 194.074219 547.101562 237.824219 547.101562 291.292969 C 547.101562 344.765625 503.351562 388.511719 449.882812 388.511719 C 396.410156 388.511719 352.664062 344.765625 352.664062 291.292969 C 352.664062 237.824219 396.414062 194.074219 449.882812 194.074219 Z M 449.882812 194.074219 "/><path style=" stroke:none;fill-rule:nonzero;fill:#ededed;fill-opacity:1;" d="M 212.304688 169.164062 C 214.734375 169.164062 217.773438 168.554688 220.203125 166.734375 C 229.316406 159.441406 239.039062 152.148438 248.761719 145.464844 C 254.230469 141.820312 256.050781 133.921875 252.40625 128.453125 C 248.761719 122.984375 240.863281 121.160156 235.394531 124.808594 C 225.0625 132.097656 214.734375 139.390625 204.40625 147.289062 C 198.9375 151.542969 198.328125 159.441406 202.582031 164.300781 C 205.621094 167.339844 208.660156 169.164062 212.304688 169.164062 Z M 212.304688 169.164062 "/><path style=" stroke:none;fill-rule:nonzero;fill:#ededed;fill-opacity:1;" d="M 158.226562 231.140625 C 159.441406 229.316406 160.65625 227.496094 161.871094 226.277344 L 161.871094 225.0625 C 161.871094 212.304688 168.554688 200.757812 178.886719 194.074219 C 178.277344 192.859375 177.0625 191.644531 176.453125 190.429688 C 171.59375 186.175781 163.695312 186.175781 159.441406 191.644531 C 150.933594 201.367188 143.035156 211.089844 135.746094 221.417969 C 133.3125 224.457031 133.3125 228.101562 133.921875 231.140625 Z M 158.226562 231.140625 "/><path style=" stroke:none;fill-rule:nonzero;fill:#ededed;fill-opacity:1;" d="M 87.136719 411.601562 C 88.351562 400.058594 90.171875 387.90625 92.605469 376.359375 C 93.820312 371.5 91.386719 366.640625 87.742188 364.207031 L 73.765625 364.207031 C 71.335938 366.03125 69.515625 368.460938 68.90625 371.5 C 66.476562 383.652344 64.652344 396.410156 63.4375 409.171875 L 75.589844 410.386719 Z M 87.136719 411.601562 "/><g clip-rule="nonzero" clip-path="url(#b2686ed292)"><path style=" stroke:none;fill-rule:nonzero;fill:#ededed;fill-opacity:1;" d="M 89.566406 507.605469 C 87.742188 496.0625 86.527344 483.910156 85.917969 471.757812 C 85.3125 465.074219 79.84375 460.210938 73.160156 460.210938 C 66.476562 460.820312 61.613281 466.289062 61.613281 472.972656 C 62.222656 485.730469 63.4375 498.492188 65.867188 511.25 C 67.082031 517.328125 71.945312 521.582031 78.019531 521.582031 C 78.628906 521.582031 79.234375 521.582031 79.84375 521.582031 C 86.527344 520.367188 90.78125 514.289062 89.566406 507.605469 Z M 89.566406 507.605469 "/></g><path style=" stroke:none;fill-rule:nonzero;fill:#ededed;fill-opacity:1;" d="M 487.554688 86.527344 L 488.164062 86.527344 C 499.707031 87.742188 511.25 89.566406 522.796875 91.996094 C 529.480469 93.210938 535.554688 88.957031 537.378906 82.273438 C 538.59375 75.589844 534.339844 69.515625 527.65625 67.691406 C 515.503906 65.261719 503.351562 63.4375 490.59375 62.222656 L 489.984375 62.222656 C 483.300781 61.613281 477.226562 66.476562 476.617188 73.160156 C 476.011719 79.84375 480.871094 85.917969 487.554688 86.527344 Z M 487.554688 86.527344 "/><path style=" stroke:none;fill-rule:nonzero;fill:#ededed;fill-opacity:1;" d="M 737.894531 226.277344 C 739.109375 228.101562 740.324219 229.316406 741.539062 231.140625 L 771.3125 231.140625 C 765.234375 222.027344 758.550781 212.910156 751.261719 204.40625 C 747.007812 198.9375 739.109375 198.328125 734.246094 202.582031 C 733.03125 203.191406 732.425781 204.40625 731.816406 205.011719 C 735.460938 210.480469 737.285156 217.773438 737.285156 224.457031 L 737.285156 226.277344 Z M 737.894531 226.277344 "/><g clip-rule="nonzero" clip-path="url(#46c34b150b)"><path style=" stroke:none;fill-rule:nonzero;fill:#ededed;fill-opacity:1;" d="M 390.335938 89.566406 C 390.945312 89.566406 391.550781 89.566406 392.160156 89.566406 C 403.703125 87.742188 415.855469 86.527344 427.402344 85.917969 C 434.085938 85.3125 438.945312 79.84375 438.945312 73.160156 C 438.335938 66.476562 432.871094 61.007812 426.183594 61.613281 C 413.425781 62.222656 400.664062 64.046875 388.511719 65.867188 C 381.828125 66.476562 376.96875 72.550781 378.183594 79.234375 C 379.398438 85.3125 384.261719 89.566406 390.335938 89.566406 Z M 390.335938 89.566406 "/></g><path style=" stroke:none;fill-rule:nonzero;fill:#ededed;fill-opacity:1;" d="M 663.761719 153.972656 C 673.484375 160.65625 682.601562 168.554688 691.714844 176.453125 C 696.574219 180.707031 704.472656 180.101562 708.726562 175.238281 C 712.980469 170.378906 712.980469 162.480469 707.511719 158.226562 C 697.789062 149.71875 688.070312 141.820312 677.738281 134.527344 C 672.269531 130.277344 664.980469 132.097656 660.726562 136.960938 C 657.078125 142.429688 658.296875 150.328125 663.761719 153.972656 Z M 663.761719 153.972656 "/><path style=" stroke:none;fill-rule:nonzero;fill:#ededed;fill-opacity:1;" d="M 579.914062 108.402344 C 590.851562 112.65625 601.785156 117.515625 612.722656 122.984375 C 618.800781 126.023438 626.089844 123.59375 629.128906 117.515625 C 632.167969 111.441406 629.738281 104.148438 623.660156 101.109375 C 612.117188 95.640625 600.570312 90.171875 588.417969 85.917969 C 582.34375 83.488281 575.050781 86.527344 572.621094 93.210938 C 570.191406 99.289062 573.835938 105.972656 579.914062 108.402344 Z M 579.914062 108.402344 "/><path style=" stroke:none;fill-rule:nonzero;fill:#ededed;fill-opacity:1;" d="M 104.148438 565.328125 C 101.71875 559.253906 95.035156 555.609375 88.957031 557.429688 C 82.882812 559.859375 79.234375 566.542969 81.058594 572.621094 C 85.3125 584.773438 89.566406 596.925781 95.035156 608.46875 C 96.855469 612.722656 101.71875 615.761719 105.972656 615.761719 C 107.792969 615.761719 109.617188 615.152344 110.832031 614.546875 C 116.910156 611.507812 119.945312 604.824219 116.910156 598.75 C 112.046875 587.8125 107.792969 576.875 104.148438 565.328125 Z M 104.148438 565.328125 "/><path style=" stroke:none;fill-rule:nonzero;fill:#ededed;fill-opacity:1;" d="M 296.15625 117.515625 C 297.976562 117.515625 299.800781 116.90625 301.015625 116.300781 C 311.953125 111.441406 322.890625 107.1875 334.433594 103.539062 C 340.511719 101.109375 344.15625 94.425781 342.335938 88.351562 C 339.902344 82.273438 333.21875 78.628906 327.144531 80.449219 C 314.992188 84.703125 303.445312 88.957031 291.902344 94.425781 C 285.824219 97.464844 282.789062 104.148438 285.824219 110.222656 C 287.042969 114.476562 291.292969 117.515625 296.15625 117.515625 Z M 296.15625 117.515625 "/><path style=" stroke:none;fill-rule:nonzero;fill:#ededed;fill-opacity:1;" d="M 761.589844 661.941406 C 756.121094 657.6875 748.832031 658.902344 744.578125 664.371094 C 737.894531 674.09375 729.992188 683.207031 722.09375 692.320312 C 717.839844 697.183594 717.839844 705.082031 723.308594 709.335938 C 728.171875 713.589844 736.070312 713.589844 740.324219 708.121094 C 748.832031 698.398438 756.730469 688.675781 764.019531 678.347656 C 768.273438 673.484375 767.058594 665.585938 761.589844 661.941406 Z M 761.589844 661.941406 "/><path style=" stroke:none;fill-rule:nonzero;fill:#ededed;fill-opacity:1;" d="M 679.5625 733.640625 C 670.449219 740.929688 660.726562 748.222656 650.394531 754.90625 C 644.925781 758.550781 643.105469 766.449219 646.75 771.917969 C 650.394531 777.386719 658.296875 779.210938 663.765625 775.566406 C 674.09375 768.273438 684.421875 760.980469 694.753906 753.082031 C 700.222656 748.828125 700.828125 740.929688 696.574219 736.070312 C 692.320312 729.992188 684.421875 729.386719 679.5625 733.640625 Z M 679.5625 733.640625 "/><path style=" stroke:none;fill-rule:nonzero;fill:#ededed;fill-opacity:1;" d="M 145.464844 651.003906 C 141.820312 645.535156 133.921875 643.710938 128.453125 647.359375 C 122.984375 651.003906 121.160156 658.902344 124.808594 664.371094 C 132.097656 674.699219 139.390625 685.636719 147.289062 695.359375 C 149.71875 698.398438 153.367188 699.613281 157.011719 699.613281 C 159.441406 699.613281 162.480469 699.003906 164.910156 697.183594 C 170.378906 692.929688 170.984375 685.03125 166.734375 680.167969 C 159.441406 670.449219 152.148438 660.726562 145.464844 651.003906 Z M 145.464844 651.003906 "/><path style=" stroke:none;fill-rule:nonzero;fill:#ededed;fill-opacity:1;" d="M 819.921875 378.183594 C 813.238281 379.398438 808.984375 385.476562 809.59375 392.160156 C 811.414062 403.703125 812.628906 415.855469 813.238281 428.007812 C 813.84375 434.691406 818.707031 439.554688 825.390625 439.554688 C 832.074219 439.554688 838.148438 433.476562 837.542969 426.792969 C 836.933594 414.03125 835.113281 401.273438 833.289062 388.511719 C 832.679688 381.222656 826.605469 376.96875 819.921875 378.183594 Z M 819.921875 378.183594 "/><path style=" stroke:none;fill-rule:nonzero;fill:#ededed;fill-opacity:1;" d="M 825.996094 476.011719 C 819.3125 475.402344 813.238281 480.261719 812.628906 486.945312 L 812.628906 487.554688 C 811.414062 499.707031 809.59375 511.25 807.160156 522.796875 C 805.945312 529.480469 810.199219 535.554688 816.882812 537.378906 C 822.960938 538.59375 829.644531 534.339844 831.464844 527.65625 C 833.898438 515.503906 835.71875 502.746094 837.542969 489.984375 L 837.542969 488.769531 C 837.542969 482.695312 832.679688 477.226562 825.996094 476.011719 Z M 825.996094 476.011719 "/><path style=" stroke:none;fill-rule:nonzero;fill:#ededed;fill-opacity:1;" d="M 805.945312 573.835938 C 799.871094 571.40625 792.578125 574.445312 790.148438 581.128906 C 785.894531 592.066406 781.035156 603 775.566406 613.9375 C 772.527344 620.015625 774.957031 627.304688 781.035156 630.34375 C 787.109375 633.382812 794.402344 630.953125 797.4375 624.875 C 802.90625 613.332031 808.375 601.785156 812.628906 589.632812 C 815.667969 582.949219 812.023438 576.265625 805.945312 573.835938 Z M 805.945312 573.835938 "/><path style=" stroke:none;fill-rule:nonzero;fill:#ededed;fill-opacity:1;" d="M 236 745.792969 C 226.28125 739.109375 217.164062 731.210938 208.050781 723.308594 C 203.191406 719.058594 195.289062 719.058594 191.039062 724.523438 C 186.785156 729.386719 186.785156 737.285156 192.253906 741.539062 C 201.976562 750.046875 211.695312 757.945312 222.027344 765.234375 C 224.457031 767.058594 226.886719 767.667969 229.316406 767.667969 C 232.964844 767.667969 236.609375 765.84375 239.039062 762.804688 C 242.683594 757.335938 241.46875 749.4375 236 745.792969 Z M 236 745.792969 "/><path style=" stroke:none;fill-rule:nonzero;fill:#ededed;fill-opacity:1;" d="M 319.246094 790.753906 C 308.308594 786.503906 297.371094 781.640625 286.433594 776.171875 C 280.355469 773.132812 273.066406 775.566406 270.027344 781.640625 C 266.988281 787.71875 269.421875 795.007812 275.496094 798.046875 C 287.042969 803.515625 298.585938 808.984375 310.128906 813.238281 C 311.347656 813.84375 313.167969 813.84375 314.382812 813.84375 C 319.246094 813.84375 324.105469 810.808594 325.929688 805.945312 C 328.964844 800.476562 325.929688 793.1875 319.246094 790.753906 Z M 319.246094 790.753906 "/><path style=" stroke:none;fill-rule:nonzero;fill:#ededed;fill-opacity:1;" d="M 411.601562 813.238281 C 400.058594 812.023438 387.90625 810.199219 376.359375 807.769531 C 369.675781 806.554688 363.601562 810.808594 361.777344 817.492188 C 360.5625 824.175781 364.816406 830.25 371.5 832.074219 C 383.652344 834.503906 396.410156 836.328125 408.5625 837.542969 C 408.5625 837.542969 409.171875 837.542969 409.78125 837.542969 C 410.386719 837.542969 410.386719 837.542969 410.996094 837.542969 C 417.070312 837.542969 422.539062 832.679688 423.148438 826.605469 C 423.148438 819.3125 418.285156 813.84375 411.601562 813.238281 Z M 411.601562 813.238281 "/><g clip-rule="nonzero" clip-path="url(#3b4a09bc8e)"><path style=" stroke:none;fill-rule:nonzero;fill:#ededed;fill-opacity:1;" d="M 507 810.808594 C 495.453125 812.628906 483.300781 813.84375 471.148438 814.453125 C 464.464844 815.058594 459.605469 820.527344 459.605469 827.210938 C 460.210938 833.894531 465.074219 838.757812 471.757812 838.757812 C 471.757812 838.757812 472.363281 838.757812 472.363281 838.757812 C 485.125 838.148438 497.882812 836.933594 510.035156 834.503906 C 516.71875 833.289062 520.972656 827.210938 520.367188 820.527344 C 519.757812 813.84375 513.683594 809.589844 507 810.808594 Z M 507 810.808594 "/></g><path style=" stroke:none;fill-rule:nonzero;fill:#ededed;fill-opacity:1;" d="M 598.140625 783.464844 C 587.203125 788.324219 576.265625 792.578125 564.722656 796.222656 C 558.644531 798.65625 555 805.339844 556.824219 811.414062 C 558.644531 817.492188 565.9375 821.136719 572.011719 819.3125 C 584.164062 815.058594 595.710938 810.808594 607.863281 805.339844 C 613.9375 802.300781 616.976562 795.617188 613.9375 789.539062 C 611.507812 783.464844 604.21875 780.425781 598.140625 783.464844 Z M 598.140625 783.464844 "/><g clip-rule="nonzero" clip-path="url(#31382d8eda)"><path style=" stroke:none;fill-rule:nonzero;fill:#ededed;fill-opacity:1;" d="M 826.605469 255.445312 L 713.589844 255.445312 L 713.589844 224.457031 C 713.589844 219.59375 710.550781 215.34375 706.296875 213.519531 C 702.042969 211.695312 696.574219 212.304688 692.929688 215.34375 L 611.507812 288.257812 C 609.078125 290.6875 607.863281 294.332031 607.863281 297.976562 C 607.863281 301.625 609.078125 304.660156 612.117188 307.09375 C 612.117188 307.09375 693.535156 380.007812 693.535156 380.007812 C 700.828125 386.691406 713.589844 381.222656 713.589844 370.890625 L 713.589844 339.902344 L 826.605469 339.902344 C 833.289062 339.902344 838.757812 334.433594 838.757812 327.75 L 838.757812 267.597656 C 838.757812 260.914062 833.289062 255.445312 826.605469 255.445312 Z M 814.453125 315.597656 L 701.4375 315.597656 C 694.753906 315.597656 689.285156 321.066406 689.285156 327.75 L 689.285156 343.550781 L 638.242188 297.976562 L 689.285156 252.40625 L 689.285156 267.597656 C 689.285156 274.28125 694.753906 279.75 701.4375 279.75 L 814.453125 279.75 Z M 814.453125 315.597656 "/></g><g clip-rule="nonzero" clip-path="url(#5e01b094de)"><path style=" stroke:none;fill-rule:nonzero;fill:#ededed;fill-opacity:1;" d="M 193.46875 381.828125 C 197.722656 383.652344 202.582031 383.652344 206.226562 380.007812 L 287.648438 307.09375 C 290.078125 304.660156 291.902344 301.625 291.902344 297.976562 C 291.902344 294.332031 290.6875 291.292969 287.648438 288.863281 L 206.226562 215.949219 C 202.582031 212.910156 197.722656 211.695312 192.859375 214.125 C 188.605469 215.949219 185.570312 220.203125 185.570312 225.0625 L 185.570312 255.445312 L 73.160156 255.445312 C 66.476562 255.445312 61.007812 260.914062 61.007812 267.597656 L 61.007812 327.75 C 61.007812 334.433594 66.476562 339.902344 73.160156 339.902344 L 186.175781 339.902344 C 186.175781 339.902344 186.175781 370.890625 186.175781 370.890625 C 186.175781 375.753906 189.214844 380.007812 193.46875 381.828125 Z M 85.3125 315.597656 L 85.3125 279.75 L 198.328125 279.75 C 205.011719 279.75 210.480469 274.28125 210.480469 267.597656 L 210.480469 251.800781 L 261.519531 297.976562 L 210.480469 343.550781 L 210.480469 327.75 C 210.480469 321.066406 205.011719 315.597656 198.328125 315.597656 Z M 85.3125 315.597656 "/></g></g></svg>