<svg xmlns="http://www.w3.org/2000/svg" xmlns:xlink="http://www.w3.org/1999/xlink" width="940" zoomAndPan="magnify" viewBox="0 0 705 591.000005" height="788" preserveAspectRatio="xMidYMid meet" version="1.0"><defs><clipPath id="7200436d3c"><path d="M 228.179688 110 L 476.757812 110 L 476.757812 480 L 228.179688 480 Z M 228.179688 110 " clip-rule="nonzero"/></clipPath></defs><path fill="#ffffff" d="M 461.082031 459.441406 C 461.082031 468.882812 454.785156 472.03125 446.917969 467.3125 L 360.367188 420.101562 C 352.5 415.378906 339.910156 415.378906 332.039062 420.101562 L 243.914062 467.3125 C 236.046875 472.03125 229.753906 467.3125 229.753906 459.441406 L 229.753906 132.121094 C 229.753906 122.679688 237.621094 116.386719 245.488281 116.386719 L 443.769531 116.386719 C 453.210938 116.386719 459.507812 124.253906 459.507812 132.121094 L 459.507812 459.441406 Z M 461.082031 459.441406 " fill-opacity="1" fill-rule="nonzero"/><g clip-path="url(#7200436d3c)"><path fill="#fffaea" d="M 243.914062 479.898438 C 240.769531 479.898438 237.621094 479.898438 236.046875 478.328125 C 231.328125 475.179688 228.179688 468.882812 228.179688 462.589844 L 228.179688 133.695312 C 228.179688 121.105469 239.195312 110.089844 253.359375 110.089844 L 451.640625 110.089844 C 465.800781 110.089844 476.816406 121.105469 476.816406 133.695312 L 476.816406 461.015625 C 476.816406 468.882812 473.667969 473.605469 468.949219 476.753906 C 464.226562 479.898438 456.359375 479.898438 450.066406 476.753906 L 363.515625 429.542969 C 358.792969 426.394531 347.777344 426.394531 343.054688 429.542969 L 254.929688 476.753906 C 250.210938 478.328125 247.0625 479.898438 243.914062 479.898438 Z M 251.785156 125.828125 C 247.0625 125.828125 243.914062 128.972656 243.914062 133.695312 L 243.914062 461.015625 C 243.914062 462.589844 243.914062 462.589844 243.914062 462.589844 C 243.914062 462.589844 245.488281 462.589844 245.488281 461.015625 L 333.613281 413.804688 C 344.628906 407.511719 360.367188 409.085938 369.808594 413.804688 L 456.359375 461.015625 C 457.933594 461.015625 457.933594 461.015625 457.933594 461.015625 C 457.933594 461.015625 457.933594 459.441406 457.933594 459.441406 L 457.933594 133.695312 C 457.933594 128.972656 454.785156 125.828125 450.066406 125.828125 Z M 251.785156 125.828125 " fill-opacity="1" fill-rule="nonzero"/></g></svg>